<svg width="153" height="105" xmlns="http://www.w3.org/2000/svg" xmlns:xlink="http://www.w3.org/1999/xlink"><svg viewBox="-1 -1 77 26" width="77" height="26" xmlns="http://www.w3.org/2000/svg"><path d="M67.7 0H6.9L0 7.9v7.9L7.3 24h60.8l6.9-7.9V8.3z"/><path d="M9 15.3v-6l1.2-1.4h1.2l1.2 1.3v1.6h-1.1V9.7c0-.5-.3-.8-.7-.8-.4 0-.7.4-.7.8v5c0 .2.1.4.2.6.3.3.8.3 1.1 0 .1-.2.2-.4.2-.6v-1h1.1v1.5l-1.2 1.4h-1.2L9 15.3zm4.1 0v-6l1.2-1.4h1.2l1.2 1.3v6l-1.2 1.4h-1.2l-1.2-1.3zm1.1-.6c0 .2.1.4.2.6.1.2.3.2.5.2s.4-.1.5-.2c.1-.2.2-.4.2-.6v-5c0-.2-.1-.4-.2-.6-.1-.2-.3-.2-.5-.2s-.4.1-.5.2c-.1.2-.2.4-.2.6v5zm3.5 1.9V7.8h1.1l1.2 4.1V7.8h1v8.8h-1v-1.8l-1.2-4.1v5.9h-1.1zm4.1-1.3v-1.6h1.1v1.1c0 .2.1.4.2.6.3.3.7.3 1 0 .1-.1.2-.4.2-.6v-.4c0-.3-.1-.6-.2-.8-.2-.3-.4-.6-.6-.8L22 11.1V9l1-1.2h1l1 1.1v1.8h-1V9.5c0-.2-.1-.4-.2-.5-.2-.3-.6-.3-.8 0v1c0 .3.1.5.2.8.2.3.4.6.6.8l1.5 1.7v1.9L24 16.6h-1l-1.2-1.3zm4.2 1.3V7.8h2.7v1.1H27v2.6h1v1.1h-.9v2.9h1.8v1.1H26zm3.5-1.3v-6l1.2-1.4h1.2l1.2 1.3v1.6H32V9.7c0-.2-.1-.4-.2-.6-.1-.2-.3-.2-.5-.2s-.4.1-.5.2c-.1.2-.2.4-.2.6v5c0 .2.1.4.2.6.1.2.3.2.5.2s.4-.1.5-.2c.1-.2.2-.4.2-.6v-2.2h-.6v-.9h2.2v.9H33v4.1h-.4l-.3-.7-.6.7h-1.1l-1.1-1.3zm4.5 0V7.8h1.1v6.9c0 .2.1.4.2.6.3.3.8.3 1.1 0 .1-.2.2-.4.2-.6V7.8h1.1v8.8h-.4l-.3-.9-1 .9h-.8L34 15.3zm4.5 1.3v-1.1h.7V8.9h-.7V7.8h2.4v1.1h-.7v6.6h.7v1.1h-2.4zm3.2 0V7.8h1.1v7.7h1.9v1.1h-3zm3.3 0v-2.5l.6-6.2h2.2l.6 6.2v2.5h-1v-2.8H46v2.8h-1zm1.1-3.9h1.2L47 8.9h-.5l-.4 3.8zm2.7 2.6v-1.6h1.1v1.1c0 .4.3.8.7.8.4 0 .7-.3.7-.8v-.4c0-.3 0-.6-.2-.8-.2-.3-.4-.6-.6-.8L49 11.1V9l1.1-1.2h1l1 1.1v1.8h-1V9.5c0-.2-.1-.4-.2-.5-.2-.3-.5-.3-.8-.1L50 9v1c0 .3 0 .5.2.8.2.3.4.6.6.8l1.5 1.7v1.9l-1.2 1.4H50l-1.2-1.3zm5.9 1.3v-2.5l.6-6.2h2.3l.6 6.2v2.5h-1v-2.8h-1.3v2.8h-1.2zm1.1-3.9h1.1l-.3-3.8h-.4l-.4 3.8zm2.8 2.6v-6l1.2-1.4H61l1.2 1.3v1.6h-1.1V9.7c0-.5-.3-.8-.7-.8-.4 0-.7.4-.7.8v5c0 .2.1.4.2.6.3.3.8.3 1.1 0 .1-.2.2-.4.2-.6v-1h1.1v1.5L61 16.6h-1.2l-1.2-1.3zm4.1 1.3v-2.5l.6-6.2h2.3l.6 6.2v2.5h-1v-2.8h-1.3v2.8h-1.2zm1.1-3.9h1.1l-.3-3.8h-.4l-.4 3.8zm.2-5.4l1.3-1.8h.7l-1.3 1.8H64z" fill="#fff"/></svg><svg y="26" viewBox="-1 -1 77 26" width="77" height="26" xmlns="http://www.w3.org/2000/svg"><path d="M67.7 0H6.9L0 7.9v7.9L7.3 24h60.8l6.9-7.9V8.3z" fill="#fff"/><path d="M9 15.3v-6l1.2-1.4h1.2l1.2 1.3v1.6h-1.1V9.7c0-.5-.3-.8-.7-.8-.4 0-.7.4-.7.8v5c0 .2.1.4.2.6.3.3.8.3 1.1 0 .1-.2.2-.4.2-.6v-1h1.1v1.5l-1.2 1.4h-1.2L9 15.3zm4.1 0v-6l1.2-1.4h1.2l1.2 1.3v6l-1.2 1.4h-1.2l-1.2-1.3zm1.1-.6c0 .2.1.4.2.6.1.2.3.2.5.2s.4-.1.5-.2c.1-.2.2-.4.2-.6v-5c0-.2-.1-.4-.2-.6-.1-.2-.3-.2-.5-.2s-.4.1-.5.2c-.1.2-.2.4-.2.6v5zm3.5 1.9V7.8h1.1l1.2 4.1V7.8h1v8.8h-1v-1.8l-1.2-4.1v5.9h-1.1zm4.1-1.3v-1.6h1.1v1.1c0 .2.1.4.2.6.3.3.7.3 1 0 .1-.1.2-.4.2-.6v-.4c0-.3-.1-.6-.2-.8-.2-.3-.4-.6-.6-.8L22 11.1V9l1-1.2h1l1 1.1v1.8h-1V9.5c0-.2-.1-.4-.2-.5-.2-.3-.6-.3-.8 0v1c0 .3.1.5.2.8.2.3.4.6.6.8l1.5 1.7v1.9L24 16.6h-1l-1.2-1.3zm4.2 1.3V7.8h2.7v1.1H27v2.6h1v1.1h-.9v2.9h1.8v1.1H26zm3.5-1.3v-6l1.2-1.4h1.2l1.2 1.3v1.6H32V9.7c0-.2-.1-.4-.2-.6-.1-.2-.3-.2-.5-.2s-.4.1-.5.2c-.1.2-.2.4-.2.6v5c0 .2.1.4.2.6.1.2.3.2.5.2s.4-.1.5-.2c.1-.2.2-.4.2-.6v-2.2h-.6v-.9h2.2v.9H33v4.1h-.4l-.3-.7-.6.7h-1.1l-1.1-1.3zm4.5 0V7.8h1.1v6.9c0 .2.1.4.2.6.3.3.8.3 1.1 0 .1-.2.2-.4.2-.6V7.8h1.1v8.8h-.4l-.3-.9-1 .9h-.8L34 15.3zm4.5 1.3v-1.1h.7V8.9h-.7V7.8h2.4v1.1h-.7v6.6h.7v1.1h-2.4zm3.2 0V7.8h1.1v7.7h1.9v1.1h-3zm3.3 0v-2.5l.6-6.2h2.2l.6 6.2v2.5h-1v-2.8H46v2.8h-1zm1.1-3.9h1.2L47 8.9h-.5l-.4 3.8zm2.7 2.6v-1.6h1.1v1.1c0 .4.3.8.7.8.4 0 .7-.3.7-.8v-.4c0-.3 0-.6-.2-.8-.2-.3-.4-.6-.6-.8L49 11.1V9l1.1-1.2h1l1 1.1v1.8h-1V9.5c0-.2-.1-.4-.2-.5-.2-.3-.5-.3-.8-.1L50 9v1c0 .3 0 .5.2.8.2.3.4.6.6.8l1.5 1.7v1.9l-1.2 1.4H50l-1.2-1.3zm5.9 1.3v-2.5l.6-6.2h2.3l.6 6.2v2.5h-1v-2.8h-1.3v2.8h-1.2zm1.1-3.9h1.1l-.3-3.8h-.4l-.4 3.8zm2.8 2.6v-6l1.2-1.4H61l1.2 1.3v1.6h-1.1V9.7c0-.5-.3-.8-.7-.8-.4 0-.7.4-.7.8v5c0 .2.1.4.2.6.3.3.8.3 1.1 0 .1-.2.2-.4.2-.6v-1h1.1v1.5L61 16.6h-1.2l-1.2-1.3zm4.1 1.3v-2.5l.6-6.2h2.3l.6 6.2v2.5h-1v-2.8h-1.3v2.8h-1.2zm1.1-3.9h1.1l-.3-3.8h-.4l-.4 3.8zm.2-5.4l1.3-1.8h.7l-1.3 1.8H64z"/></svg><svg x="77" viewBox="-1 -1 76 31" width="76" height="31" xmlns="http://www.w3.org/2000/svg"><path d="M54.9 13.5l.8-2.4h.6l-.1 1 .4-1h.6l-.8 2.4h-.6l.1-1.1-.4 1.1h-.6zm2 0l.8-2.4h-.5l-.8 2.4h.5zm2.3 1.2c0-.2.1-.3.1-.4-.1.1-.1.3-.2.5l-.2.6h.3v-.7m-.1-3.5l-.8 1v1.2l.8-2.2zm1.1 4.9H59v-.3h-.4l-.1.3h-.6l1.1-2.2-2.9 1.3c-.6.3-1.7.6-2.1-.1-.2-.4-.1-1.1.3-1.7.2-.4.5-.7.8-1.1-.2.3-.6 1.2 0 1.7.3.2.8.2 1.1.1l2.4-.7h-.7v-1l-.3 1H57l.8-2.4h.5l-.3.7.5-.7H60l-.1.4h-.5l-.1.6h.5l-.1.4h-.5l-.2.6h.6l-.1.2 2.6-.7-2.6 1.2h.3l-.2 2.4.6-2.4h.6l-.6 2.4zm1.4-1.6c.1-.2 0-.3-.2-.3l-.2.6c.3 0 .4-.1.4-.3m-.1-.8c.5 0 .8.2.7.8-.1.3-.3.5-.5.6l.2 1h-.7l-.1-1c0 .1-.1.2-.1.4l-.2.6h-.6l.6-2.4h.7m-6.8 3.9l.1-.5.1.5h-.2zm-.2.5l.2-.3h.3l.1.3h.1l-.3-1.1h-.1l-.3 1.1zm.7-1.1v1.1h.1l-.1-1.1zm.4.5v-.4h.3s.1.1.1.2v.1h-.1l-.3.1zm-.1.6l.1-.5h.3l.1.1v.2-.2s0-.1-.1-.1l.1-.1v-.2c0-.1 0-.2-.1-.3h-.4v1.1zm1.5 0h.1v-.5h.3v-.1h-.3v-.3h.4V17H57v1.1zm1.1-.2c0 .1-.1.1-.2.1s-.2-.1-.2-.1c0-.1-.1-.2-.1-.3 0-.1 0-.2.1-.4 0-.1.1-.1.2-.1s.1 0 .2.1c0 .1.1.2.1.3-.1.1-.1.3-.1.4m0-.7c0-.1-.2-.2-.3-.2-.1 0-.2.1-.3.2-.1.1-.1.3-.1.4 0 .1 0 .3.1.4 0 .1.1.2.3.2.1 0 .2-.1.3-.2.1-.1.1-.3.1-.4 0-.2 0-.3-.1-.4m.3.3v-.4h.3s.1.1.1.2v.1h-.1l-.3.1zm-.1.6l.1-.5h.3l.1.1v.4h.2v-.5s0-.1-.1-.1l.1-.1v-.2c0-.1 0-.2-.1-.3h-.4l-.2 1.2zm1.2-1c0-.1-.1-.1-.2-.1s-.2.1-.2.2c-.1.1-.1.2-.1.3 0 .2 0 .3.1.5 0 .1.1.1.2.1s.2-.1.2-.1c0-.1.1-.2.1-.3h-.1v.2c0 .1-.1.1-.2.1s-.1 0-.2-.1c0-.1-.1-.2-.1-.3 0-.1 0-.2.1-.4 0-.1.1-.1.2-.1h.2v.2h.1c0-.1 0-.2-.1-.2m.2 1h.5V18h-.4v-.4h.4v-.1h-.4v-.3h.4V17h-.5v1.1zm1.7-1v.9h.2v-1h-.1l-.1.1zM3.9 29V16.2h5.7v-3.6H3.9v-9h6.5V0H0v29h3.9zM22 22.7c0 1.7-1 2.7-2.6 2.7s-2.6-1-2.6-2.7V6.3c0-1.7 1-2.7 2.6-2.7s2.6 1 2.6 2.7v16.4m-.6 6.3l4.5-4.6v-20L21.6 0h-4.3l-4.5 4.6v20l4.3 4.4h4.3zm17.7-18.5c0 1.7-1 2.7-2.6 2.7H34V3.6h2.4c1.6 0 2.6 1 2.6 2.7v4.2M43 29V16.4l-3.7-1.7L43 12V4.4L38.7 0h-8.6v29H34V16.8h2.6c1.6 0 2.4 1.3 2.4 2.9V29h4zm12.4 0l4.5-4.6v-5H56v3.4c0 1.7-1 2.7-2.6 2.7s-2.6-1-2.6-2.7V6.3c0-1.7 1-2.7 2.6-2.7s2.6 1 2.6 2.7v3.4h3.9V4.4L55.7 0h-4.3l-4.5 4.6v20l4.3 4.4h4.2zM74 29v-3.6h-6.5v-9.7h3.8v-3.6h-3.8V3.6h6.1V0h-10v29H74z" fill="#fff"/></svg><svg viewBox="-1 -1 65 53" width="65" height="53" y="52" xmlns="http://www.w3.org/2000/svg"><path d="M8 17.2L14 0h4.2l-.7 7.6L20.2 0h4l-6.1 17.2-3.9-.1.5-8.1-2.9 8.3-3.8-.1zm14.9.2L29 .1h-3.9l-6 17.2 3.8.1zm17.3 8.9c.1-1.1.4-2.2.6-3.3-.5 1.1-.8 2.2-1.3 3.3l-1.7 4h1.9l.5-4M39.4.5l-.3.3-5.5 6.8.2 8.7L39.4.5zm8.3 35.9h-8.8l.2-2.3-3-.1-1 2.3h-4.5l7.9-15.8-22 9.8C11.6 32.4 4 34.9.8 29.4c-1.8-3-.6-7.7 2-12 1.7-2.7 3.9-5.2 6-7.7-1.2 2-4.6 8.9-.2 12.3 1.7 1.4 4.7 1.6 8.4.5l18.3-5.1-5.2-.1V9.9l-2.6 7.4h-3.9L29.7.1h3.9l-1.9 5 4-5 10.9.1-1.1 3.2h-3.4L41 6.8h3.4l-1 3.1-3.5-.1-1.4 4.2 4.2-.1-.5 1.6 19.3-5.3-19.2 8.6h2.5l-1.4 17.3 4.8-17.3 4.5.1-5 17.5zm10.5-11.6c.5-1.6-.2-2.2-1.4-2.1L55.6 27h.3c1.1.1 2-1 2.3-2.2m-.5-5.9c3.8.1 6.2 1.2 5 5.9-.6 1.9-1.8 3.6-3.8 4.3l1.3 7.3h-4.8l-.5-7.3c-.2.9-.4 1.8-.7 2.6l-1.3 4.7-4.4-.1 4.8-17.5 4.4.1M6.5 47.4l.8-3.6.8 3.6H6.5zM5 50.7h.7l.6-2.4h2l.5 2.4h.8l-1.9-8.1H7l-2 8.1zm5.4-8.1v8.1h.7v-8.1h-.7zm2.7 3.7v-2.8h1.7c.2 0 .4 0 .6.2.3.2.4.6.4 1.2 0 .4-.1.8-.3 1.1-.2.2-.5.3-.8.3h-1.6zm-.7 4.4h.7v-3.5h1.5c.2 0 .4 0 .6.2.2.2.3.5.4 1v2.2h.9v-.2c-.1-.1-.2-.3-.2-.5s0-.4-.1-.7v-1.1c0-.3-.1-.7-.2-1-.1-.2-.3-.4-.4-.5.2-.2.4-.5.5-.7.1-.4.2-.8.2-1.2 0-.9-.2-1.6-.7-1.9-.3-.2-.6-.3-1-.3h-2.4l.2 8.2zm11.2 0h.7V47h2.6v-1h-2.6v-2.4h2.9v-1h-3.6v8.1zm8.1-1.7c-.3.7-.7 1-1.3 1-.6 0-1.2-.4-1.4-.9-.3-.7-.5-1.5-.4-2.3 0-1.1.2-2 .5-2.5.2-.5.8-.8 1.3-.8.6 0 1.1.3 1.3.9.3.7.5 1.5.5 2.3-.1.7-.3 1.5-.5 2.3m.6-5.2c-.4-.9-1.1-1.4-2-1.4s-1.5.5-2 1.5c-.4.9-.6 1.8-.5 2.8 0 1 .2 2.1.6 3 .3.7 1.1 1.2 1.9 1.2.9 0 1.5-.5 2-1.4.4-.9.6-2 .6-3-.1-.8-.3-1.8-.6-2.7m2.1 2.6v-2.8h1.7c.2 0 .4 0 .6.2.2.2.3.6.3 1.2 0 .4-.1.8-.3 1.1-.2.2-.5.3-.8.3h-1.5zm-.7 4.4h.7v-3.5H36c.2 0 .4 0 .6.2.2.2.3.5.3 1.1v2c0 .1 0 .2.1.3h.9v-.2c-.1-.1-.2-.2-.2-.5 0-.2 0-.4-.1-.7v-1.1c0-.4 0-.7-.2-1-.1-.2-.3-.4-.5-.5.2-.2.4-.4.5-.7.1-.4.2-.8.2-1.2 0-.9-.2-1.6-.7-1.9-.3-.2-.6-.3-1-.3h-2.3l.1 8zm8.8-7.5c-.3-.5-.9-.8-1.5-.8-.8 0-1.4.4-1.8 1.2-.4.9-.6 1.9-.6 2.9 0 1.6.3 2.7.8 3.5.5.8 1.6 1.1 2.4.6.3-.2.6-.5.7-.8.4-.7.6-1.4.6-2.1h-.7c0 .4-.1.9-.3 1.3-.2.6-.6.9-1.1.9-.6 0-1-.3-1.2-.9-.3-.7-.4-1.5-.4-2.3 0-1.2.1-2 .5-2.6.2-.5.7-.8 1.2-.8.4 0 .7.2 1 .5.3.4.4.8.5 1.2h.7c-.2-.6-.4-1.3-.8-1.8m1.6 7.5h3.8v-1h-3.1v-2.7h2.9v-.9h-2.8v-2.4H48v-1h-3.8l-.1 8zm12.3-7.1h.3v6.1h-.3v1h1.2v-1h-.3v-7.1h-.9v1z"/></svg><svg x="65" y="52" viewBox="-1 -1 65 53" width="65" height="53" xmlns="http://www.w3.org/2000/svg"><path d="M8 17.2L14 0h4.2l-.7 7.6L20.2 0h4l-6.1 17.2-3.9-.1.5-8.1-2.9 8.3-3.8-.1zm14.9.2L29 .1h-3.9l-6 17.2 3.8.1zm17.3 8.9c.1-1.1.4-2.2.6-3.3-.5 1.1-.8 2.2-1.3 3.3l-1.7 4h1.9l.5-4M39.4.5l-.3.3-5.5 6.8.2 8.7L39.4.5zm8.3 35.9h-8.8l.2-2.3-3-.1-1 2.3h-4.5l7.9-15.8-22 9.8C11.6 32.4 4 34.9.8 29.4c-1.8-3-.6-7.7 2-12 1.7-2.7 3.9-5.2 6-7.7-1.2 2-4.6 8.9-.2 12.3 1.7 1.4 4.7 1.6 8.4.5l18.3-5.1-5.2-.1V9.9l-2.6 7.4h-3.9L29.7.1h3.9l-1.9 5 4-5 10.9.1-1.1 3.2h-3.4L41 6.8h3.4l-1 3.1-3.5-.1-1.4 4.2 4.2-.1-.5 1.6 19.3-5.3-19.2 8.6h2.5l-1.4 17.3 4.8-17.3 4.5.1-5 17.5zm10.5-11.6c.5-1.6-.2-2.2-1.4-2.1L55.6 27h.3c1.1.1 2-1 2.3-2.2m-.5-5.9c3.8.1 6.2 1.2 5 5.9-.6 1.9-1.8 3.6-3.8 4.3l1.3 7.3h-4.8l-.5-7.3c-.2.9-.4 1.8-.7 2.6l-1.3 4.7-4.4-.1 4.8-17.5 4.4.1M6.5 47.4l.8-3.6.8 3.6H6.5zM5 50.7h.7l.6-2.4h2l.5 2.4h.8l-1.9-8.1H7l-2 8.1zm5.4-8.1v8.1h.7v-8.1h-.7zm2.7 3.7v-2.8h1.7c.2 0 .4 0 .6.2.3.2.4.6.4 1.2 0 .4-.1.8-.3 1.1-.2.2-.5.3-.8.3h-1.6zm-.7 4.4h.7v-3.5h1.5c.2 0 .4 0 .6.2.2.2.3.5.4 1v2.2h.9v-.2c-.1-.1-.2-.3-.2-.5s0-.4-.1-.7v-1.1c0-.3-.1-.7-.2-1-.1-.2-.3-.4-.4-.5.2-.2.4-.5.5-.7.1-.4.2-.8.2-1.2 0-.9-.2-1.6-.7-1.9-.3-.2-.6-.3-1-.3h-2.4l.2 8.2zm11.2 0h.7V47h2.6v-1h-2.6v-2.4h2.9v-1h-3.6v8.1zm8.1-1.7c-.3.7-.7 1-1.3 1-.6 0-1.2-.4-1.4-.9-.3-.7-.5-1.5-.4-2.3 0-1.1.2-2 .5-2.5.2-.5.8-.8 1.3-.8.6 0 1.1.3 1.3.9.3.7.5 1.5.5 2.3-.1.7-.3 1.5-.5 2.3m.6-5.2c-.4-.9-1.1-1.4-2-1.4s-1.5.5-2 1.5c-.4.9-.6 1.8-.5 2.8 0 1 .2 2.1.6 3 .3.7 1.1 1.2 1.9 1.2.9 0 1.5-.5 2-1.4.4-.9.6-2 .6-3-.1-.8-.3-1.8-.6-2.7m2.1 2.6v-2.8h1.7c.2 0 .4 0 .6.2.2.2.3.6.3 1.2 0 .4-.1.8-.3 1.1-.2.2-.5.3-.8.3h-1.5zm-.7 4.4h.7v-3.5H36c.2 0 .4 0 .6.2.2.2.3.5.3 1.1v2c0 .1 0 .2.1.3h.9v-.2c-.1-.1-.2-.2-.2-.5 0-.2 0-.4-.1-.7v-1.1c0-.4 0-.7-.2-1-.1-.2-.3-.4-.5-.5.2-.2.4-.4.5-.7.1-.4.2-.8.2-1.2 0-.9-.2-1.6-.7-1.9-.3-.2-.6-.3-1-.3h-2.3l.1 8zm8.8-7.5c-.3-.5-.9-.8-1.5-.8-.8 0-1.4.4-1.8 1.2-.4.9-.6 1.9-.6 2.9 0 1.6.3 2.7.8 3.5.5.8 1.6 1.1 2.4.6.3-.2.6-.5.7-.8.4-.7.6-1.4.6-2.1h-.7c0 .4-.1.9-.3 1.3-.2.6-.6.9-1.1.9-.6 0-1-.3-1.2-.9-.3-.7-.4-1.5-.4-2.3 0-1.2.1-2 .5-2.6.2-.5.7-.8 1.2-.8.4 0 .7.2 1 .5.3.4.4.8.5 1.2h.7c-.2-.6-.4-1.3-.8-1.8m1.6 7.5h3.8v-1h-3.1v-2.7h2.9v-.9h-2.8v-2.4H48v-1h-3.8l-.1 8zm12.3-7.1h.3v6.1h-.3v1h1.2v-1h-.3v-7.1h-.9v1z" fill="#fff"/></svg></svg>