<svg width="370" height="258" xmlns="http://www.w3.org/2000/svg" xmlns:xlink="http://www.w3.org/1999/xlink"><svg width="186" height="53.86" viewBox="-1 -1 186 53.86" xmlns="http://www.w3.org/2000/svg"><g data-name="Layer 2"><g data-name="Isolation Mode"><path d="M166.21 0H17L0 17.08v17l17.79 17.78H167l17-17V17.87L166.21 0z"/><path d="M22 33V19.94l3-3h2.9l2.91 2.89v3.44h-2.62V21a1.79 1.79 0 10-3.58 0v10.78a1.79 1.79 0 00.48 1.31 2 2 0 002.62 0 1.79 1.79 0 00.48-1.31v-2.2h2.62v3.3l-3 3h-2.93zm10.17 0V19.94l3-3h2.89L41 19.81v13.07l-3 3h-2.94zm2.62-1.24a1.83 1.83 0 00.47 1.31 1.78 1.78 0 001.31.48 1.74 1.74 0 001.31-.48 1.79 1.79 0 00.48-1.31V21a1.78 1.78 0 00-.48-1.31 1.74 1.74 0 00-1.31-.48 1.78 1.78 0 00-1.31.48 1.81 1.81 0 00-.47 1.31zm8.52 4.15v-19h2.61l3 8.8v-8.8h2.61v19H49v-3.86l-3-8.8v12.66zM53.48 33v-3.42h2.62v2.47a1.62 1.62 0 00.47 1.19 1.65 1.65 0 002.84-1.19v-.95a3.63 3.63 0 00-.41-1.75 9.37 9.37 0 00-1.41-1.7l-3.69-3.72v-4.41l2.62-2.6H59l2.48 2.47v3.86h-2.35v-2.62a1.57 1.57 0 00-.38-1.07 1.35 1.35 0 00-2 0 1.53 1.53 0 00-.39 1.07v1a3.15 3.15 0 00.41 1.65A10.67 10.67 0 0058.31 25L62 28.76v4.12l-3 3h-2.63zm10.33 2.91v-19h6.74v2.33h-4.14v5.66h2.21v2.34h-2.21v6.33h4.41v2.34zM72.33 33V19.94l3-3h2.89l2.91 2.89v3.44h-2.61V21a1.81 1.81 0 00-.47-1.31 1.78 1.78 0 00-1.31-.48 1.74 1.74 0 00-1.31.48A1.78 1.78 0 0075 21v10.78a1.79 1.79 0 00.48 1.31 1.74 1.74 0 001.31.48 1.78 1.78 0 001.31-.48 1.83 1.83 0 00.47-1.31V27.1h-1.42v-1.93h5.37v1.93h-1.37v8.81h-1l-.81-1.55-1.53 1.55h-2.59zm11.14 0V16.92h2.62v14.86a1.79 1.79 0 00.48 1.31 2 2 0 002.62 0 1.79 1.79 0 00.48-1.31V16.92h2.62v19h-1.1L90.35 34l-1.92 1.92h-2.07zm10.88 2.91v-2.34H96V19.25h-1.65v-2.33h5.91v2.33h-1.65v14.32h1.65v2.34zm7.97 0v-19h2.6v16.66h4.55v2.34zm8.11 0V30.4l1.37-13.48h5.52l1.37 13.48v5.51h-2.48v-6.06h-3.3v6.06zm2.74-8.4H116l-.84-8.26H114zm6.61 5.49v-3.42h2.62v2.47a1.65 1.65 0 103.3 0v-.95a3.52 3.52 0 00-.38-1.75 9.23 9.23 0 00-1.4-1.7l-3.73-3.72v-4.41l2.62-2.6h2.48l2.47 2.47v3.86h-2.34v-2.62a1.57 1.57 0 00-.38-1.07 1.33 1.33 0 00-2 0 1.53 1.53 0 00-.39 1.07v1a3.06 3.06 0 00.41 1.65A10.51 10.51 0 00124.6 25l3.71 3.73v4.12l-3 3h-2.62zm14.31 2.91V30.4l1.37-13.48H141l1.36 13.48v5.51h-2.47v-6.06h-3.31v6.06zm2.74-8.4h2.78l-.84-8.26h-1.1zm7.02 5.49V19.94l3-3h2.89l2.91 2.89v3.44h-2.62V21a1.79 1.79 0 10-3.58 0v10.78a1.79 1.79 0 00.48 1.31 2 2 0 002.62 0 1.79 1.79 0 00.48-1.31v-2.2h2.62v3.3l-3 3h-2.89zm9.91 2.91V30.4l1.36-13.48h5.53L162 30.4v5.51h-2.47v-6.06h-3.31v6.06zm2.73-8.4h2.79l-.85-8.26h-1.1zm.56-11.7l3.31-3.81H162l-3.31 3.85z" fill="#fff"/></g></g></svg><svg width="186" height="53.86" viewBox="-1 -1 186 53.86" y="53.86" xmlns="http://www.w3.org/2000/svg"><g data-name="Layer 2"><g data-name="Isolation Mode"><path fill="#fff" d="M166.21 0H17L0 17.08v17l17.79 17.78H167l17-17V17.87L166.21 0z"/><path d="M22 33V19.94l3-3h2.9l2.91 2.89v3.44h-2.62V21a1.79 1.79 0 10-3.58 0v10.78a1.79 1.79 0 00.48 1.31 2 2 0 002.62 0 1.79 1.79 0 00.48-1.31v-2.2h2.62v3.3l-3 3h-2.93zm10.17 0V19.94l3-3h2.89L41 19.81v13.07l-3 3h-2.94zm2.62-1.24a1.83 1.83 0 00.47 1.31 1.78 1.78 0 001.31.48 1.74 1.74 0 001.31-.48 1.79 1.79 0 00.48-1.31V21a1.78 1.78 0 00-.48-1.31 1.74 1.74 0 00-1.31-.48 1.78 1.78 0 00-1.31.48 1.81 1.81 0 00-.47 1.31zm8.52 4.15v-19h2.61l3 8.8v-8.8h2.61v19H49v-3.86l-3-8.8v12.66zM53.48 33v-3.42h2.62v2.47a1.62 1.62 0 00.47 1.19 1.65 1.65 0 002.84-1.19v-.95a3.63 3.63 0 00-.41-1.75 9.37 9.37 0 00-1.41-1.7l-3.69-3.72v-4.41l2.62-2.6H59l2.48 2.47v3.86h-2.35v-2.62a1.57 1.57 0 00-.38-1.07 1.35 1.35 0 00-2 0 1.53 1.53 0 00-.39 1.07v1a3.15 3.15 0 00.41 1.65A10.67 10.67 0 0058.31 25L62 28.76v4.12l-3 3h-2.63zm10.33 2.91v-19h6.74v2.33h-4.14v5.66h2.21v2.34h-2.21v6.33h4.41v2.34zM72.33 33V19.94l3-3h2.89l2.91 2.89v3.44h-2.61V21a1.81 1.81 0 00-.47-1.31 1.78 1.78 0 00-1.31-.48 1.74 1.74 0 00-1.31.48A1.78 1.78 0 0075 21v10.78a1.79 1.79 0 00.48 1.31 1.74 1.74 0 001.31.48 1.78 1.78 0 001.31-.48 1.83 1.83 0 00.47-1.31V27.1h-1.42v-1.93h5.37v1.93h-1.37v8.81h-1l-.81-1.55-1.53 1.55h-2.59zm11.14 0V16.92h2.62v14.86a1.79 1.79 0 00.48 1.31 2 2 0 002.62 0 1.79 1.79 0 00.48-1.31V16.92h2.62v19h-1.1L90.35 34l-1.92 1.92h-2.07zm10.88 2.91v-2.34H96V19.25h-1.65v-2.33h5.91v2.33h-1.65v14.32h1.65v2.34zm7.97 0v-19h2.6v16.66h4.55v2.34zm8.11 0V30.4l1.37-13.48h5.52l1.37 13.48v5.51h-2.48v-6.06h-3.3v6.06zm2.74-8.4H116l-.84-8.26H114zm6.61 5.49v-3.42h2.62v2.47a1.65 1.65 0 103.3 0v-.95a3.52 3.52 0 00-.38-1.75 9.23 9.23 0 00-1.4-1.7l-3.73-3.72v-4.41l2.62-2.6h2.48l2.47 2.47v3.86h-2.34v-2.62a1.57 1.57 0 00-.38-1.07 1.33 1.33 0 00-2 0 1.53 1.53 0 00-.39 1.07v1a3.06 3.06 0 00.41 1.65A10.51 10.51 0 00124.6 25l3.71 3.73v4.12l-3 3h-2.62zm14.31 2.91V30.4l1.37-13.48H141l1.36 13.48v5.51h-2.47v-6.06h-3.31v6.06zm2.74-8.4h2.78l-.84-8.26h-1.1zm7.02 5.49V19.94l3-3h2.89l2.91 2.89v3.44h-2.62V21a1.79 1.79 0 10-3.58 0v10.78a1.79 1.79 0 00.48 1.31 2 2 0 002.62 0 1.79 1.79 0 00.48-1.31v-2.2h2.62v3.3l-3 3h-2.89zm9.91 2.91V30.4l1.36-13.48h5.53L162 30.4v5.51h-2.47v-6.06h-3.31v6.06zm2.73-8.4h2.79l-.85-8.26h-1.1zm.56-11.7l3.31-3.81H162l-3.31 3.85z"/></g></g></svg><svg width="164" height="64" viewBox="-1 -1 164 64" x="186" y="149.45" xmlns="http://www.w3.org/2000/svg"><g data-name="Layer 2"><path d="M120.23 28.84l1.77-5.05h1.23L123 26l.78-2.21H125l-1.77 5.06H122l.15-2.43-.85 2.43zm4.33 0l1.76-5.07h-1.13l-1.76 5.06zm5.06 2.61c0-.33.11-.63.17-.95-.14.32-.25.65-.39 1l-.51 1.18h.56l.18-1.22m-.26-7.56l-.08.08-1.59 2v2.54zm2.43 10.53h-2.58l.07-.67h-.88l-.27.66h-1.32l2.3-4.64-6.41 2.88c-1.41.62-3.64 1.34-4.56-.26-.51-.89-.17-2.26.59-3.53a20.82 20.82 0 011.76-2.26c-.36.59-1.34 2.6-.08 3.62a2.8 2.8 0 002.46.15l5.32-1.51h-1.5V26.7l-.7 2.16h-1.14l1.77-5.06h1.13l-.55 1.47 1.16-1.46h3.18l-.32.94h-1l-.35 1h1l-.3.91h-1l-.4 1.22h1.21l-.16.48 5.62-1.56-5.59 2.52h.73l-.4 5.08 1.4-5.08h1.3zm3.07-3.39c.14-.46-.07-.65-.41-.61l-.36 1.26h.08a.76.76 0 00.69-.64m-.16-1.74c1.12 0 1.82.37 1.46 1.74a1.8 1.8 0 01-1.11 1.27l.37 2.15H134l-.13-2.14c-.07.27-.13.52-.19.77l-.39 1.37H132l1.41-5.15h1.26m-14.88 8.38l.24-1.05.23 1.05zm-.44 1h.21l.17-.71h.59l.16.71h.22l-.54-2.37h-.23zm1.59-2.37v2.37h.2v-2.4zm.77 1.09v-.81h.48a.23.23 0 01.17.05.42.42 0 01.11.35.46.46 0 01-.08.32.28.28 0 01-.22.09zm-.21 1.28h.2v-1h.45a.39.39 0 01.18.05.41.41 0 01.11.31v.66h.25v-.05s-.06-.07-.07-.14 0-.12 0-.21V38a.71.71 0 00-.05-.3.37.37 0 00-.13-.15.71.71 0 00.15-.22.88.88 0 00.06-.35.65.65 0 00-.21-.56.49.49 0 00-.28-.08h-.69zm3.27 0h.23v-1.1h.75v-.28H125v-.72h.84v-.29h-1zm2.35-.51a.43.43 0 01-.4.3.46.46 0 01-.41-.27 1.54 1.54 0 01-.13-.67 1.76 1.76 0 01.15-.75.43.43 0 01.39-.24.41.41 0 01.38.25 1.45 1.45 0 01.14.67 2.25 2.25 0 01-.12.71m.18-1.52a.64.64 0 00-.59-.4.61.61 0 00-.58.44 1.85 1.85 0 00-.16.82 1.91 1.91 0 00.18.88.6.6 0 00.55.36.63.63 0 00.57-.41 1.8 1.8 0 00.17-.88 1.76 1.76 0 00-.14-.81m.62.75v-.81h.49a.2.2 0 01.16 0 .42.42 0 01.12.35.51.51 0 01-.09.32.27.27 0 01-.22.09zm-.21 1.28h.21v-1h.46a.39.39 0 01.17 0 .38.38 0 01.11.32v.39a1.58 1.58 0 010 .19.64.64 0 000 .07h.34s0-.07-.07-.14a1.15 1.15 0 010-.2V38a.58.58 0 00-.05-.3.31.31 0 00-.13-.15.56.56 0 00.16-.21 1.16 1.16 0 00.06-.35.68.68 0 00-.21-.56.44.44 0 00-.28-.08h-.69zm2.58-2.19a.52.52 0 00-.44-.23.55.55 0 00-.53.36 1.81 1.81 0 00-.17.86 1.75 1.75 0 00.23 1 .5.5 0 00.44.25.54.54 0 00.48-.3 1.46 1.46 0 00.17-.63h-.2a1.05 1.05 0 01-.09.37c-.08.19-.19.28-.34.28a.39.39 0 01-.36-.26 1.63 1.63 0 01-.12-.68 1.47 1.47 0 01.14-.75.39.39 0 01.35-.25.37.37 0 01.28.14.85.85 0 01.13.36h.2a1 1 0 00-.17-.54m.47 2.2h1.11v-.28H131v-.81h.83v-.28H131v-.72h.9v-.28h-1.1zm3.58-2.08h.08v1.79h-.09v.29h.35v-.28h-.09v-2.08h-.26zM8.47 62V34.59H21V27H8.47V7.64h14.28V0H0v62zm39.72-13.48c0 3.6-2.23 5.84-5.8 5.84s-5.8-2.24-5.8-5.84v-35c0-3.6 2.23-5.84 5.8-5.84s5.8 2.24 5.8 5.84v35M46.85 62l9.82-9.88V9.43L47.3 0h-9.37l-9.81 9.88v42.68L37.48 62zm38.83-39.54c0 3.59-2.23 5.84-5.8 5.84h-5.35V7.64h5.35c3.57 0 5.8 2.24 5.8 5.84v9M94.16 62V35l-8-3.59 8-5.84V9.43L84.79 0H66.06v62h8.47V35.94h5.8c3.57 0 5.35 2.7 5.35 6.29V62zm27.23 0l9.81-9.88V41.33h-8.47v7.19c0 3.6-2.23 5.84-5.8 5.84s-5.8-2.24-5.8-5.84v-35c0-3.6 2.23-5.84 5.8-5.84s5.8 2.24 5.8 5.84v7.18h8.47V9.43L121.84 0h-9.37l-9.82 9.88v42.68L112 62zM162 62v-7.64h-14.27V33.69h8.38v-7.64h-8.38V7.64h13.38V0h-21.86v62z" fill="#fff" data-name="Layer 1"/></g></svg><svg width="184" height="149.45" viewBox="-1 -1 184 149.45" y="107.72" xmlns="http://www.w3.org/2000/svg"><g data-name="Layer 2"><path d="M23.13 49.88L40.52.15 52.7 0l-2.05 21.92L58.45.11l11.43.05L52.38 50l-11.27-.18 1.49-23.9-8.47 24zm42.94.34L83.55.3 72.35.24 54.89 50.09zM116.22 76c.43-3.26 1.11-6.26 1.65-9.43h-.09c-1.32 3.2-2.4 6.39-3.85 9.58l-5 11.65 5.53.12L116.22 76M113.7 1.51l-.81.82L97.1 22.07l.53 25.08zm24.07 103.7h-25.55l.72-6.61-8.7-.18-2.78 6.51-13.07.1 22.83-45.7-63.64 28.38c-14 6.09-36 13.17-45.14-2.61-5.1-8.76-1.75-22.24 5.87-34.79 5-7.72 11.14-15.07 17.38-22.23-3.5 5.84-13.29 25.65-.69 35.63 5 4 13.63 4.51 24.35 1.46l52.79-14.79-14.9-.15V28.75l-7.37 21.31H68.59L86.09.39l11.2-.08-5.4 14.5L103.4.45l31.53.16-3.23 9.27-9.8-.09-3.48 9.91 9.86.06-3 8.93-10-.19-4 12 12-.17-1.56 4.76 55.74-15.38L122 54.46l7.21.09-4 50 13.93-50 12.91.16zm30.42-33.41c1.4-4.54-.67-6.36-4.09-6l-3.58 12.41.81-.08c3.39.11 6-3 6.86-6.34m-1.62-17.07c11.1.15 18.05 3.57 14.5 17.1-1.62 5.48-5.18 10.53-11 12.45l3.65 21.16h-13.73l-1.35-21c-.66 2.64-1.28 5.11-1.88 7.54l-3.89 13.51-12.75-.17 14-50.63 12.42.12m-147.8 82.25l2.43-10.28 2.28 10.32zm-4.28 9.54h2l1.65-7H24l1.58 7h2.24l-5.4-23.31h-2.29zm15.71-23.29v23.31h2.05V123.3zm7.6 10.7v-8h4.83a2.48 2.48 0 011.62.48c.78.62 1.16 1.75 1.14 3.42a4.81 4.81 0 01-.79 3.19 3 3 0 01-2.24.91zm-2 12.64h2v-10h4.47a3 3 0 011.77.48c.67.5 1 1.51 1.09 3l.09 3.9a12 12 0 00.14 1.83 3.79 3.79 0 00.14.79H48v-.5a2.21 2.21 0 01-.65-1.42c-.06-.47-.11-1.13-.15-2v-3.13a7.74 7.74 0 00-.52-2.93 4 4 0 00-1.29-1.47 6 6 0 001.53-2.14 8.43 8.43 0 00.55-3.45c0-2.64-.64-4.49-2-5.48a4.52 4.52 0 00-2.79-.8h-6.93zm32.46.05h2.06v-10.57h7.41v-2.79h-7.42v-7.06h8.4v-2.86H68.26zm23.21-5c-.82 2-2.11 3-3.88 3a4.38 4.38 0 01-4.15-2.69 14.55 14.55 0 01-1.24-6.54c0-3.22.51-5.68 1.47-7.36a4.3 4.3 0 013.82-2.43 4.22 4.22 0 013.8 2.47 14.38 14.38 0 011.37 6.67 19.19 19.19 0 01-1.23 6.9m1.81-14.9c-1.27-2.63-3.22-4-5.86-4s-4.45 1.41-5.77 4.29a19.73 19.73 0 00-1.58 8.08 18.7 18.7 0 001.8 8.69 5.92 5.92 0 005.42 3.54c2.46 0 4.38-1.35 5.72-4a18.86 18.86 0 001.68-8.67 17.61 17.61 0 00-1.44-7.93m6.2 7.37v-8l4.82.06a2.39 2.39 0 011.61.45c.78.61 1.19 1.75 1.15 3.42a4.78 4.78 0 01-.84 3.2 2.91 2.91 0 01-2.18.86zm-2.06 12.63h2v-10h4.52a3.1 3.1 0 011.77.44c.66.51 1 1.55 1 3.09l.11 3.84c.05.94.07 1.54.1 1.89s.11.55.17.75h2.5v-.51c-.36-.24-.52-.68-.68-1.44-.08-.44-.1-1.1-.15-2v-3.1a7.2 7.2 0 00-.48-3 3.67 3.67 0 00-1.33-1.5 4.74 4.74 0 001.58-2.09 9.47 9.47 0 00.57-3.43c0-2.64-.72-4.5-2.08-5.52a4.8 4.8 0 00-2.78-.79h-6.76zm25.55-21.59a5.18 5.18 0 00-4.41-2.32c-2.25 0-4 1.18-5.21 3.56a18 18 0 00-1.73 8.47c0 4.56.75 7.9 2.29 10.07a5.14 5.14 0 009.09-.54 13.77 13.77 0 001.76-6.16h-2a12.39 12.39 0 01-.92 3.67c-.78 1.83-1.92 2.71-3.38 2.67a3.84 3.84 0 01-3.59-2.49 15.88 15.88 0 01-1.17-6.68c0-3.36.43-5.81 1.34-7.43a3.93 3.93 0 013.49-2.41 3.32 3.32 0 012.77 1.31 7.65 7.65 0 011.33 3.58h2a10.8 10.8 0 00-1.69-5.32m4.64 21.63l11 .05v-2.78h-9v-7.92h8.26v-2.71h-8.23v-7.06h8.89v-2.83h-10.91zM163 126.37h.83v17.67H163v2.83h3.43v-2.76h-.86l.07-17.67v-2.76h-2.61z" data-name="Layer 1"/></g></svg><svg width="184" height="149.45" viewBox="-1 -1 184 149.45" x="186" xmlns="http://www.w3.org/2000/svg"><g data-name="Layer 2"><path d="M23.13 49.88L40.52.15 52.7 0l-2.05 21.92L58.45.11l11.43.05L52.38 50l-11.27-.18 1.49-23.9-8.47 24zm42.94.34L83.55.3 72.35.24 54.89 50.09zM116.22 76c.43-3.26 1.11-6.26 1.65-9.43h-.09c-1.32 3.2-2.4 6.39-3.85 9.58l-5 11.65 5.53.12L116.22 76M113.7 1.51l-.81.82L97.1 22.07l.53 25.08zm24.07 103.7h-25.55l.72-6.61-8.7-.18-2.78 6.51-13.07.1 22.83-45.7-63.64 28.38c-14 6.09-36 13.17-45.14-2.61-5.1-8.76-1.75-22.24 5.87-34.79 5-7.72 11.14-15.07 17.38-22.23-3.5 5.84-13.29 25.65-.69 35.63 5 4 13.63 4.51 24.35 1.46l52.79-14.79-14.9-.15V28.75l-7.37 21.31H68.59L86.09.39l11.2-.08-5.4 14.5L103.4.45l31.53.16-3.23 9.27-9.8-.09-3.48 9.91 9.86.06-3 8.93-10-.19-4 12 12-.17-1.56 4.76 55.74-15.38L122 54.46l7.21.09-4 50 13.93-50 12.91.16zm30.42-33.41c1.4-4.54-.67-6.36-4.09-6l-3.58 12.41.81-.08c3.39.11 6-3 6.86-6.34m-1.62-17.07c11.1.15 18.05 3.57 14.5 17.1-1.62 5.48-5.18 10.53-11 12.45l3.65 21.16h-13.73l-1.35-21c-.66 2.64-1.28 5.11-1.88 7.54l-3.89 13.51-12.75-.17 14-50.63 12.42.12m-147.8 82.25l2.43-10.28 2.28 10.32zm-4.28 9.54h2l1.65-7H24l1.58 7h2.24l-5.4-23.31h-2.29zm15.71-23.29v23.31h2.05V123.3zm7.6 10.7v-8h4.83a2.48 2.48 0 011.62.48c.78.62 1.16 1.75 1.14 3.42a4.81 4.81 0 01-.79 3.19 3 3 0 01-2.24.91zm-2 12.64h2v-10h4.47a3 3 0 011.77.48c.67.5 1 1.51 1.09 3l.09 3.9a12 12 0 00.14 1.83 3.79 3.79 0 00.14.79H48v-.5a2.21 2.21 0 01-.65-1.42c-.06-.47-.11-1.13-.15-2v-3.13a7.74 7.74 0 00-.52-2.93 4 4 0 00-1.29-1.47 6 6 0 001.53-2.14 8.43 8.43 0 00.55-3.45c0-2.64-.64-4.49-2-5.48a4.52 4.52 0 00-2.79-.8h-6.93zm32.46.05h2.06v-10.57h7.41v-2.79h-7.42v-7.06h8.4v-2.86H68.26zm23.21-5c-.82 2-2.11 3-3.88 3a4.38 4.38 0 01-4.15-2.69 14.55 14.55 0 01-1.24-6.54c0-3.22.51-5.68 1.47-7.36a4.3 4.3 0 013.82-2.43 4.22 4.22 0 013.8 2.47 14.38 14.38 0 011.37 6.67 19.19 19.19 0 01-1.23 6.9m1.81-14.9c-1.27-2.63-3.22-4-5.86-4s-4.45 1.41-5.77 4.29a19.73 19.73 0 00-1.58 8.08 18.7 18.7 0 001.8 8.69 5.92 5.92 0 005.42 3.54c2.46 0 4.38-1.35 5.72-4a18.86 18.86 0 001.68-8.67 17.61 17.61 0 00-1.44-7.93m6.2 7.37v-8l4.82.06a2.39 2.39 0 011.61.45c.78.61 1.19 1.75 1.15 3.42a4.78 4.78 0 01-.84 3.2 2.91 2.91 0 01-2.18.86zm-2.06 12.63h2v-10h4.52a3.1 3.1 0 011.77.44c.66.51 1 1.55 1 3.09l.11 3.84c.05.94.07 1.54.1 1.89s.11.55.17.75h2.5v-.51c-.36-.24-.52-.68-.68-1.44-.08-.44-.1-1.1-.15-2v-3.1a7.2 7.2 0 00-.48-3 3.67 3.67 0 00-1.33-1.5 4.74 4.74 0 001.58-2.09 9.47 9.47 0 00.57-3.43c0-2.64-.72-4.5-2.08-5.52a4.8 4.8 0 00-2.78-.79h-6.76zm25.55-21.59a5.18 5.18 0 00-4.41-2.32c-2.25 0-4 1.18-5.21 3.56a18 18 0 00-1.73 8.47c0 4.56.75 7.9 2.29 10.07a5.14 5.14 0 009.09-.54 13.77 13.77 0 001.76-6.16h-2a12.39 12.39 0 01-.92 3.67c-.78 1.83-1.92 2.71-3.38 2.67a3.84 3.84 0 01-3.59-2.49 15.88 15.88 0 01-1.17-6.68c0-3.36.43-5.81 1.34-7.43a3.93 3.93 0 013.49-2.41 3.32 3.32 0 012.77 1.31 7.65 7.65 0 011.33 3.58h2a10.8 10.8 0 00-1.69-5.32m4.64 21.63l11 .05v-2.78h-9v-7.92h8.26v-2.71h-8.23v-7.06h8.89v-2.83h-10.91zM163 126.37h.83v17.67H163v2.83h3.43v-2.76h-.86l.07-17.67v-2.76h-2.61z" fill="#fff" data-name="Layer 1"/></g></svg></svg>