<svg width="394" height="273" xmlns="http://www.w3.org/2000/svg" xmlns:xlink="http://www.w3.org/1999/xlink"><svg width="178" height="55" viewBox="-1 -1 178 55" y="158" xmlns="http://www.w3.org/2000/svg"><g data-name="Layer 2"><g data-name="Isolation Mode"><path d="M158.98 0H16.26L0 17.45v17.37L17.01 53h142.73L176 35.63V18.26L158.98 0z"/><path d="M14 33.73V19.67l3.15-3.25h3l3 3.11v3.7h-2.66v-2.37a1.94 1.94 0 00-.49-1.41 1.83 1.83 0 00-1.37-.51 1.8 1.8 0 00-1.36.51 1.94 1.94 0 00-.5 1.41V32.4a2 2 0 00.5 1.41 1.81 1.81 0 001.36.52 1.83 1.83 0 001.37-.52 2 2 0 00.49-1.41V30h2.73v3.55l-3.16 3.25h-3zm10.63 0V19.67l3.15-3.25h3l3 3.11v14.06l-3.16 3.25h-3zm2.73-1.33a2 2 0 00.5 1.41 2.05 2.05 0 002.73 0 2 2 0 00.49-1.41V20.86a1.94 1.94 0 00-.49-1.41 2.08 2.08 0 00-2.73 0 1.94 1.94 0 00-.5 1.41zm8.87 4.44V16.42H39l3.16 9.47v-9.47h2.71v20.42h-2.76v-4.15L39 23.23v13.61zm10.6-3.11V30h2.72v2.65A1.77 1.77 0 0050 34a1.78 1.78 0 002.47 0 1.73 1.73 0 00.53-1.31v-1a3.93 3.93 0 00-.4-1.87A9.63 9.63 0 0051.14 28l-3.88-4v-4.77L50 16.42h2.57l2.58 2.66v4.15H52.7v-2.82a1.71 1.71 0 00-.4-1.15 1.29 1.29 0 00-1-.47 1.31 1.31 0 00-1 .47 1.72 1.72 0 00-.41 1.15v1a3.46 3.46 0 00.43 1.77 10.77 10.77 0 001.59 1.93l3.86 4v4.44l-3.15 3.25h-2.79zm10.74 3.11V16.42h7v2.52h-4.28V25h2.29v2.51h-2.29v6.81h4.58v2.51zm8.87-3.11V19.67l3.15-3.25h3l3 3.11v3.7h-2.7v-2.37a1.94 1.94 0 00-.49-1.41 1.83 1.83 0 00-1.4-.51 1.8 1.8 0 00-1.36.51 1.94 1.94 0 00-.5 1.41V32.4a2 2 0 00.5 1.41 1.81 1.81 0 001.36.52 1.83 1.83 0 001.37-.52 2 2 0 00.49-1.41v-5h-1.39v-2.11h5.58v2.09h-1.43v9.46h-1l-.84-1.66-1.59 1.66h-2.74zm11.56 0V16.42h2.73v16a2 2 0 00.5 1.41 1.81 1.81 0 001.36.52 1.83 1.83 0 001.41-.54 2 2 0 00.49-1.41v-16h2.73v20.44h-1.15l-.86-2.07-2 2.07h-2.16zm11.36 3.11v-2.51h1.72V18.94h-1.72v-2.52h6.16v2.52H93.8v15.39h1.72v2.51zm8.3 0V16.42h2.71v17.91h4.73v2.51zm8.45 0v-5.92l1.42-14.5h5.75l1.42 14.5v5.92h-2.57v-6.52h-3.45v6.52zm2.85-9h2.9l-.86-8.9h-1.15zm6.88 5.89V30h2.72v2.65a1.77 1.77 0 00.49 1.28 1.78 1.78 0 002.47 0 1.73 1.73 0 00.49-1.28v-1a3.93 3.93 0 00-.4-1.87 9.63 9.63 0 00-1.46-1.78l-3.88-4v-4.77l2.73-2.81h2.57l2.58 2.66v4.15h-2.44v-2.82a1.71 1.71 0 00-.4-1.15 1.29 1.29 0 00-1-.47 1.31 1.31 0 00-1 .47 1.72 1.72 0 00-.41 1.15v1a3.46 3.46 0 00.43 1.77 10.77 10.77 0 001.59 1.93l3.86 4v4.44l-3.15 3.25h-2.73zM130.23 36v-5.88l1.42-14.5h5.75l1.42 14.5V36h-2.58v-6.48h-3.44V36zm2.84-9H136l-.88-8.87H134zm7.31 5.93V18.87l3.15-3.25h3l3 3.11v3.7h-2.73v-2.37a1.94 1.94 0 00-.49-1.41 1.83 1.83 0 00-1.37-.51 1.8 1.8 0 00-1.36.51 1.94 1.94 0 00-.5 1.41V31.6a2 2 0 00.5 1.41 1.81 1.81 0 001.36.52 1.83 1.83 0 001.37-.52 2 2 0 00.49-1.41v-2.37h2.73v3.56L146.4 36h-3zM150.7 36v-5.88l1.42-14.5h5.75l1.42 14.5V36h-2.58v-6.48h-3.44V36zm2.84-9h2.9l-.87-8.87h-1.15zm.58-12.57l3.45-4.15h1.72l-3.44 4.15z" fill="#fff"/></g></g></svg><svg width="178" height="55" viewBox="-1 -1 178 55" x="178" y="158" xmlns="http://www.w3.org/2000/svg"><g data-name="Layer 2"><g data-name="Isolation Mode"><path fill="#fff" d="M158.98 0H16.26L0 17.45v17.37L17.01 53h142.73L176 35.63V18.26L158.98 0z"/><path d="M14 33.73V19.67l3.15-3.25h3l3 3.11v3.7h-2.66v-2.37a1.94 1.94 0 00-.49-1.41 1.83 1.83 0 00-1.37-.51 1.8 1.8 0 00-1.36.51 1.94 1.94 0 00-.5 1.41V32.4a2 2 0 00.5 1.41 1.81 1.81 0 001.36.52 1.83 1.83 0 001.37-.52 2 2 0 00.49-1.41V30h2.73v3.55l-3.16 3.25h-3zm10.63 0V19.67l3.15-3.25h3l3 3.11v14.06l-3.16 3.25h-3zm2.73-1.33a2 2 0 00.5 1.41 2.05 2.05 0 002.73 0 2 2 0 00.49-1.41V20.86a1.94 1.94 0 00-.49-1.41 2.08 2.08 0 00-2.73 0 1.94 1.94 0 00-.5 1.41zm8.87 4.44V16.42H39l3.16 9.47v-9.47h2.71v20.42h-2.76v-4.15L39 23.23v13.61zm10.6-3.11V30h2.72v2.65A1.77 1.77 0 0050 34a1.78 1.78 0 002.47 0 1.73 1.73 0 00.53-1.31v-1a3.93 3.93 0 00-.4-1.87A9.63 9.63 0 0051.14 28l-3.88-4v-4.77L50 16.42h2.57l2.58 2.66v4.15H52.7v-2.82a1.71 1.71 0 00-.4-1.15 1.29 1.29 0 00-1-.47 1.31 1.31 0 00-1 .47 1.72 1.72 0 00-.41 1.15v1a3.46 3.46 0 00.43 1.77 10.77 10.77 0 001.59 1.93l3.86 4v4.44l-3.15 3.25h-2.79zm10.74 3.11V16.42h7v2.52h-4.28V25h2.29v2.51h-2.29v6.81h4.58v2.51zm8.87-3.11V19.67l3.15-3.25h3l3 3.11v3.7h-2.7v-2.37a1.94 1.94 0 00-.49-1.41 1.83 1.83 0 00-1.4-.51 1.8 1.8 0 00-1.36.51 1.94 1.94 0 00-.5 1.41V32.4a2 2 0 00.5 1.41 1.81 1.81 0 001.36.52 1.83 1.83 0 001.37-.52 2 2 0 00.49-1.41v-5h-1.39v-2.11h5.58v2.09h-1.43v9.46h-1l-.84-1.66-1.59 1.66h-2.74zm11.56 0V16.42h2.73v16a2 2 0 00.5 1.41 1.81 1.81 0 001.36.52 1.83 1.83 0 001.41-.54 2 2 0 00.49-1.41v-16h2.73v20.44h-1.15l-.86-2.07-2 2.07h-2.16zm11.36 3.11v-2.51h1.72V18.94h-1.72v-2.52h6.16v2.52H93.8v15.39h1.72v2.51zm8.3 0V16.42h2.71v17.91h4.73v2.51zm8.45 0v-5.92l1.42-14.5h5.75l1.42 14.5v5.92h-2.57v-6.52h-3.45v6.52zm2.85-9h2.9l-.86-8.9h-1.15zm6.88 5.89V30h2.72v2.65a1.77 1.77 0 00.49 1.28 1.78 1.78 0 002.47 0 1.73 1.73 0 00.49-1.28v-1a3.93 3.93 0 00-.4-1.87 9.63 9.63 0 00-1.46-1.78l-3.88-4v-4.77l2.73-2.81h2.57l2.58 2.66v4.15h-2.44v-2.82a1.71 1.71 0 00-.4-1.15 1.29 1.29 0 00-1-.47 1.31 1.31 0 00-1 .47 1.72 1.72 0 00-.41 1.15v1a3.46 3.46 0 00.43 1.77 10.77 10.77 0 001.59 1.93l3.86 4v4.44l-3.15 3.25h-2.73zM130.23 36v-5.88l1.42-14.5h5.75l1.42 14.5V36h-2.58v-6.48h-3.44V36zm2.84-9H136l-.88-8.87H134zm7.31 5.93V18.87l3.15-3.25h3l3 3.11v3.7h-2.73v-2.37a1.94 1.94 0 00-.49-1.41 1.83 1.83 0 00-1.37-.51 1.8 1.8 0 00-1.36.51 1.94 1.94 0 00-.5 1.41V31.6a2 2 0 00.5 1.41 1.81 1.81 0 001.36.52 1.83 1.83 0 001.37-.52 2 2 0 00.49-1.41v-2.37h2.73v3.56L146.4 36h-3zM150.7 36v-5.88l1.42-14.5h5.75l1.42 14.5V36h-2.58v-6.48h-3.44V36zm2.84-9h2.9l-.87-8.87h-1.15zm.58-12.57l3.45-4.15h1.72l-3.44 4.15z"/></g></g></svg><svg width="152" height="60" viewBox="-1 -1 152 60" y="213" xmlns="http://www.w3.org/2000/svg"><g data-name="Layer 2"><g data-name="Layer 1" fill="#fff"><path d="M112.35 26.98l.79-2.28-.14 2.28 1.06.01 1.63-4.73-1.07-.01-.73 2.07.19-2.08-1.13.01-1.63 4.73h1.03zm2.98.03l1.64-4.74-1.05-.01-1.63 4.74 1.04.01z"/><path d="M120 29.46l-.17 1.14h-.52l.47-1.1c.14-.31.24-.61.36-.91 0 .3-.11.58-.15.89m-1.74-2.74v-2.38l1.48-1.88.07-.08zm5.08.72h-1.2l-1.3 4.75.37-4.75h-.68l5.18-2.36-5.2 1.46.14-.45h-1.12l.38-1.14h.93l.28-.85h-.92l.33-.94h.91l.3-.88h-2.94l-1.08 1.37.51-1.38h-1L115.57 27h1.05l.69-2v2h1.39l-4.93 1.4a2.56 2.56 0 01-2.28-.13c-1.17-.95-.25-2.83.07-3.39a18.8 18.8 0 00-1.62 2.12c-.71 1.19-1 2.48-.55 3.31.85 1.5 2.91.82 4.22.25l5.94-2.7-2.14 4.34h1.22l.26-.62h.82l-.07.63H122z"/><path d="M124.87 29.06a.72.72 0 01-.64.61h-.08l.34-1.18c.32 0 .51.14.38.57m-.15-1.62h-1.16l-1.31 4.81h1.19l.36-1.25c.06-.23.12-.46.18-.71l.13 2h1.28l-.34-2a1.66 1.66 0 001-1.18c.33-1.29-.31-1.61-1.35-1.63m-13.35 7.79l-.21-1-.23 1zM111 34h.22l.5 2.21h-.21l-.14-.66h-.55l-.16.66h-.19zm.965 2.169l.003-2.22h.19l-.003 2.22zM113.12 35a.29.29 0 00.21-.09.46.46 0 00.07-.3.39.39 0 00-.11-.33.22.22 0 00-.15 0h-.45V35zm-.62-1h.64a.38.38 0 01.26.08.6.6 0 01.19.52.82.82 0 010 .33.78.78 0 01-.14.2.41.41 0 01.12.14 1.18 1.18 0 010 .28v.49c0 .05 0 .11.06.13h-.23v-.08a.63.63 0 010-.17v-.37a.39.39 0 00-.1-.29.27.27 0 00-.17 0h-.42v1h-.19zm3.04-.03h.97v.27h-.78v.67h.69v.27h-.7v1h-.19l.01-2.21zm2.16 1.73a1.88 1.88 0 00.11-.65 1.49 1.49 0 00-.12-.64.41.41 0 00-.36-.23.42.42 0 00-.36.23 1.45 1.45 0 00-.13.7 1.32 1.32 0 00.11.62.4.4 0 00.39.25.38.38 0 00.36-.28m.17-1.41a1.66 1.66 0 01.13.71 1.87 1.87 0 01-.15.83.6.6 0 01-.54.38.54.54 0 01-.5-.34 1.78 1.78 0 01-.17-.82 2 2 0 01.14-.77.59.59 0 01.54-.41.58.58 0 01.55.38m1 .75a.29.29 0 00.21-.08.49.49 0 00.07-.31.35.35 0 00-.1-.32.25.25 0 00-.15-.05h-.45V35zm-.61-1h.63a.42.42 0 01.26.08.6.6 0 01.2.52.78.78 0 01-.06.33.48.48 0 01-.14.2.32.32 0 01.12.14.82.82 0 010 .28v.48c0 .04 0 .12.06.14h-.24v-.62a.37.37 0 00-.1-.29.25.25 0 00-.16 0h-.43v.95h-.19zm2.38.14a1 1 0 01.16.5h-.19a.8.8 0 00-.12-.34.31.31 0 00-.26-.12.36.36 0 00-.33.23 1.54 1.54 0 00-.12.7 1.5 1.5 0 00.11.64.34.34 0 00.33.23c.14 0 .25-.08.32-.25a1 1 0 00.08-.35h.19a1.24 1.24 0 01-.17.58.47.47 0 01-.44.29.5.5 0 01-.41-.23 2.22 2.22 0 01-.05-1.77.53.53 0 01.49-.33.47.47 0 01.41.22m.43-.16h1.02v.27h-.83v.67h.77v.26h-.77v.75h.84v.27l-1.03-.01v-2.21zm3.32.27h.08l-.01 1.68h-.08v.27l.32-.01v-.26h-.08l.01-1.68v-.27h-.24v.27zM0 58V0h21.06v7.15H7.85v18.06h11.56v7.15H7.85V58H0zm44.62-12.61V12.61c0-3.36-2.06-5.46-5.37-5.46s-5.37 2.1-5.37 5.46v32.78c0 3.36 2.07 5.46 5.37 5.46s5.37-2.1 5.37-5.46M34.71 58L26 49.17V9.25L35.12 0h8.67l8.68 8.82v39.93L43.38 58zm44.63-37v-8.4c0-3.36-2.07-5.46-5.37-5.46H69v19.33h5c3.3 0 5.37-2.1 5.37-5.46m0 37v-18.5c0-3.36-1.66-5.89-5-5.89H69V58h-7.84V0h17.35l8.67 8.82V24l-7.43 5.46 7.43 3.36V58z"/><path d="M103.72 58l-8.67-8.83V9.25L104.14 0h8.67l8.67 8.82v10.51h-7.84v-6.72c0-3.36-2.07-5.46-5.37-5.46s-5.37 2.1-5.37 5.46v32.78c0 3.36 2.06 5.46 5.37 5.46s5.37-2.1 5.37-5.46v-6.73h7.84v10.09L112.4 58zm25.22 0V0h20.24v7.15h-12.4v17.22h7.77v7.15h-7.77v19.33H150V58h-21.06z"/></g></g></svg><svg width="197" height="158" viewBox="-1 -1 197 158" xmlns="http://www.w3.org/2000/svg"><g data-name="Layer 2"><path d="M23.13 49.88L40.52.15 52.7 0l-2.05 21.92L58.45.11l11.43.05L52.38 50l-11.27-.18 1.49-23.9-8.47 24zm42.94.34L83.55.3 72.35.24 54.89 50.09zM116.22 76c.43-3.26 1.11-6.26 1.65-9.43h-.09c-1.32 3.2-2.4 6.39-3.85 9.58l-5 11.65 5.53.12L116.22 76M113.7 1.51l-.81.82L97.1 22.07l.53 25.08zm24.07 103.7h-25.55l.72-6.61-8.7-.18-2.78 6.51-13.07.1 22.83-45.7-63.64 28.38c-14 6.09-36 13.17-45.14-2.61-5.1-8.76-1.75-22.24 5.87-34.79 5-7.72 11.14-15.07 17.38-22.23-3.5 5.84-13.29 25.65-.69 35.63 5 4 13.63 4.51 24.35 1.46l52.79-14.79-14.9-.15V28.75l-7.37 21.31H68.59L86.09.39l11.2-.08-5.4 14.5L103.4.45l31.53.16-3.23 9.27-9.8-.09-3.48 9.91 9.86.06-3 8.93-10-.19-4 12 12-.17-1.56 4.76 55.74-15.38L122 54.46l7.21.09-4 50 13.93-50 12.91.16zm30.42-33.41c1.4-4.54-.67-6.36-4.09-6l-3.58 12.41.81-.08c3.39.11 6-3 6.86-6.34m-1.62-17.07c11.1.15 18.05 3.57 14.5 17.1-1.62 5.48-5.18 10.53-11 12.45l3.65 21.16h-13.73l-1.35-21c-.66 2.64-1.28 5.11-1.88 7.54l-3.89 13.51-12.75-.17 14-50.63 12.42.12m-147.8 82.25l2.43-10.28 2.28 10.32zm-4.28 9.54h2l1.65-7H24l1.58 7h2.24l-5.4-23.31h-2.29zm15.71-23.29v23.31h2.05V123.3zm7.6 10.7v-8h4.83a2.48 2.48 0 011.62.48c.78.62 1.16 1.75 1.14 3.42a4.81 4.81 0 01-.79 3.19 3 3 0 01-2.24.91zm-2 12.64h2v-10h4.47a3 3 0 011.77.48c.67.5 1 1.51 1.09 3l.09 3.9a12 12 0 00.14 1.83 3.79 3.79 0 00.14.79H48v-.5a2.21 2.21 0 01-.65-1.42c-.06-.47-.11-1.13-.15-2v-3.13a7.74 7.74 0 00-.52-2.93 4 4 0 00-1.29-1.47 6 6 0 001.53-2.14 8.43 8.43 0 00.55-3.45c0-2.64-.64-4.49-2-5.48a4.52 4.52 0 00-2.79-.8h-6.93zm32.46.05h2.06v-10.57h7.41v-2.79h-7.42v-7.06h8.4v-2.86H68.26zm23.21-5c-.82 2-2.11 3-3.88 3a4.38 4.38 0 01-4.15-2.69 14.55 14.55 0 01-1.24-6.54c0-3.22.51-5.68 1.47-7.36a4.3 4.3 0 013.82-2.43 4.22 4.22 0 013.8 2.47 14.38 14.38 0 011.37 6.67 19.19 19.19 0 01-1.23 6.9m1.81-14.9c-1.27-2.63-3.22-4-5.86-4s-4.45 1.41-5.77 4.29a19.73 19.73 0 00-1.58 8.08 18.7 18.7 0 001.8 8.69 5.92 5.92 0 005.42 3.54c2.46 0 4.38-1.35 5.72-4a18.86 18.86 0 001.68-8.67 17.61 17.61 0 00-1.44-7.93m6.2 7.37v-8l4.82.06a2.39 2.39 0 011.61.45c.78.61 1.19 1.75 1.15 3.42a4.78 4.78 0 01-.84 3.2 2.91 2.91 0 01-2.18.86zm-2.06 12.63h2v-10h4.52a3.1 3.1 0 011.77.44c.66.51 1 1.55 1 3.09l.11 3.84c.05.94.07 1.54.1 1.89s.11.55.17.75h2.5v-.51c-.36-.24-.52-.68-.68-1.44-.08-.44-.1-1.1-.15-2v-3.1a7.2 7.2 0 00-.48-3 3.67 3.67 0 00-1.33-1.5 4.74 4.74 0 001.58-2.09 9.47 9.47 0 00.57-3.43c0-2.64-.72-4.5-2.08-5.52a4.8 4.8 0 00-2.78-.79h-6.76zm25.55-21.59a5.18 5.18 0 00-4.41-2.32c-2.25 0-4 1.18-5.21 3.56a18 18 0 00-1.73 8.47c0 4.56.75 7.9 2.29 10.07a5.14 5.14 0 009.09-.54 13.77 13.77 0 001.76-6.16h-2a12.39 12.39 0 01-.92 3.67c-.78 1.83-1.92 2.71-3.38 2.67a3.84 3.84 0 01-3.59-2.49 15.88 15.88 0 01-1.17-6.68c0-3.36.43-5.81 1.34-7.43a3.93 3.93 0 013.49-2.41 3.32 3.32 0 012.77 1.31 7.65 7.65 0 011.33 3.58h2a10.8 10.8 0 00-1.69-5.32m4.64 21.63l11 .05v-2.78h-9v-7.92h8.26v-2.71h-8.23v-7.06h8.89v-2.83h-10.91zM163 126.37h.83v17.67H163v2.83h3.43v-2.76h-.86l.07-17.67v-2.76h-2.61z" data-name="Layer 1"/></g></svg><svg width="197" height="158" viewBox="-1 -1 197 158" x="197" xmlns="http://www.w3.org/2000/svg"><g data-name="Layer 2"><path d="M23.13 49.88L40.52.15 52.7 0l-2.05 21.92L58.45.11l11.43.05L52.38 50l-11.27-.18 1.49-23.9-8.47 24zm42.94.34L83.55.3 72.35.24 54.89 50.09zM116.22 76c.43-3.26 1.11-6.26 1.65-9.43h-.09c-1.32 3.2-2.4 6.39-3.85 9.58l-5 11.65 5.53.12L116.22 76M113.7 1.51l-.81.82L97.1 22.07l.53 25.08zm24.07 103.7h-25.55l.72-6.61-8.7-.18-2.78 6.51-13.07.1 22.83-45.7-63.64 28.38c-14 6.09-36 13.17-45.14-2.61-5.1-8.76-1.75-22.24 5.87-34.79 5-7.72 11.14-15.07 17.38-22.23-3.5 5.84-13.29 25.65-.69 35.63 5 4 13.63 4.51 24.35 1.46l52.79-14.79-14.9-.15V28.75l-7.37 21.31H68.59L86.09.39l11.2-.08-5.4 14.5L103.4.45l31.53.16-3.23 9.27-9.8-.09-3.48 9.91 9.86.06-3 8.93-10-.19-4 12 12-.17-1.56 4.76 55.74-15.38L122 54.46l7.21.09-4 50 13.93-50 12.91.16zm30.42-33.41c1.4-4.54-.67-6.36-4.09-6l-3.58 12.41.81-.08c3.39.11 6-3 6.86-6.34m-1.62-17.07c11.1.15 18.05 3.57 14.5 17.1-1.62 5.48-5.18 10.53-11 12.45l3.65 21.16h-13.73l-1.35-21c-.66 2.64-1.28 5.11-1.88 7.54l-3.89 13.51-12.75-.17 14-50.63 12.42.12m-147.8 82.25l2.43-10.28 2.28 10.32zm-4.28 9.54h2l1.65-7H24l1.58 7h2.24l-5.4-23.31h-2.29zm15.71-23.29v23.31h2.05V123.3zm7.6 10.7v-8h4.83a2.48 2.48 0 011.62.48c.78.62 1.16 1.75 1.14 3.42a4.81 4.81 0 01-.79 3.19 3 3 0 01-2.24.91zm-2 12.64h2v-10h4.47a3 3 0 011.77.48c.67.5 1 1.51 1.09 3l.09 3.9a12 12 0 00.14 1.83 3.79 3.79 0 00.14.79H48v-.5a2.21 2.21 0 01-.65-1.42c-.06-.47-.11-1.13-.15-2v-3.13a7.74 7.74 0 00-.52-2.93 4 4 0 00-1.29-1.47 6 6 0 001.53-2.14 8.43 8.43 0 00.55-3.45c0-2.64-.64-4.49-2-5.48a4.52 4.52 0 00-2.79-.8h-6.93zm32.46.05h2.06v-10.57h7.41v-2.79h-7.42v-7.06h8.4v-2.86H68.26zm23.21-5c-.82 2-2.11 3-3.88 3a4.38 4.38 0 01-4.15-2.69 14.55 14.55 0 01-1.24-6.54c0-3.22.51-5.68 1.47-7.36a4.3 4.3 0 013.82-2.43 4.22 4.22 0 013.8 2.47 14.38 14.38 0 011.37 6.67 19.19 19.19 0 01-1.23 6.9m1.81-14.9c-1.27-2.63-3.22-4-5.86-4s-4.45 1.41-5.77 4.29a19.73 19.73 0 00-1.58 8.08 18.7 18.7 0 001.8 8.69 5.92 5.92 0 005.42 3.54c2.46 0 4.38-1.35 5.72-4a18.86 18.86 0 001.68-8.67 17.61 17.61 0 00-1.44-7.93m6.2 7.37v-8l4.82.06a2.39 2.39 0 011.61.45c.78.61 1.19 1.75 1.15 3.42a4.78 4.78 0 01-.84 3.2 2.91 2.91 0 01-2.18.86zm-2.06 12.63h2v-10h4.52a3.1 3.1 0 011.77.44c.66.51 1 1.55 1 3.09l.11 3.84c.05.94.07 1.54.1 1.89s.11.55.17.75h2.5v-.51c-.36-.24-.52-.68-.68-1.44-.08-.44-.1-1.1-.15-2v-3.1a7.2 7.2 0 00-.48-3 3.67 3.67 0 00-1.33-1.5 4.74 4.74 0 001.58-2.09 9.47 9.47 0 00.57-3.43c0-2.64-.72-4.5-2.08-5.52a4.8 4.8 0 00-2.78-.79h-6.76zm25.55-21.59a5.18 5.18 0 00-4.41-2.32c-2.25 0-4 1.18-5.21 3.56a18 18 0 00-1.73 8.47c0 4.56.75 7.9 2.29 10.07a5.14 5.14 0 009.09-.54 13.77 13.77 0 001.76-6.16h-2a12.39 12.39 0 01-.92 3.67c-.78 1.83-1.92 2.71-3.38 2.67a3.84 3.84 0 01-3.59-2.49 15.88 15.88 0 01-1.17-6.68c0-3.36.43-5.81 1.34-7.43a3.93 3.93 0 013.49-2.41 3.32 3.32 0 012.77 1.31 7.65 7.65 0 011.33 3.58h2a10.8 10.8 0 00-1.69-5.32m4.64 21.63l11 .05v-2.78h-9v-7.92h8.26v-2.71h-8.23v-7.06h8.89v-2.83h-10.91zM163 126.37h.83v17.67H163v2.83h3.43v-2.76h-.86l.07-17.67v-2.76h-2.61z" fill="#fff" data-name="Layer 1"/></g></svg></svg>