<svg width="272" height="150" xmlns="http://www.w3.org/2000/svg" xmlns:xlink="http://www.w3.org/1999/xlink"><svg width="186" height="53.86" viewBox="-1 -1 186 53.86" xmlns="http://www.w3.org/2000/svg"><g data-name="Layer 2"><g data-name="Isolation Mode"><path d="M166.21 0H17L0 17.08v17l17.79 17.78H167l17-17V17.87L166.21 0z"/><path d="M22 33V19.94l3-3h2.9l2.91 2.89v3.44h-2.62V21a1.79 1.79 0 10-3.58 0v10.78a1.79 1.79 0 00.48 1.31 2 2 0 002.62 0 1.79 1.79 0 00.48-1.31v-2.2h2.62v3.3l-3 3h-2.93zm10.17 0V19.94l3-3h2.89L41 19.81v13.07l-3 3h-2.94zm2.62-1.24a1.83 1.83 0 00.47 1.31 1.78 1.78 0 001.31.48 1.74 1.74 0 001.31-.48 1.79 1.79 0 00.48-1.31V21a1.78 1.78 0 00-.48-1.31 1.74 1.74 0 00-1.31-.48 1.78 1.78 0 00-1.31.48 1.81 1.81 0 00-.47 1.31zm8.52 4.15v-19h2.61l3 8.8v-8.8h2.61v19H49v-3.86l-3-8.8v12.66zM53.48 33v-3.42h2.62v2.47a1.62 1.62 0 00.47 1.19 1.65 1.65 0 002.84-1.19v-.95a3.63 3.63 0 00-.41-1.75 9.37 9.37 0 00-1.41-1.7l-3.69-3.72v-4.41l2.62-2.6H59l2.48 2.47v3.86h-2.35v-2.62a1.57 1.57 0 00-.38-1.07 1.35 1.35 0 00-2 0 1.53 1.53 0 00-.39 1.07v1a3.15 3.15 0 00.41 1.65A10.67 10.67 0 0058.31 25L62 28.76v4.12l-3 3h-2.63zm10.33 2.91v-19h6.74v2.33h-4.14v5.66h2.21v2.34h-2.21v6.33h4.41v2.34zM72.33 33V19.94l3-3h2.89l2.91 2.89v3.44h-2.61V21a1.81 1.81 0 00-.47-1.31 1.78 1.78 0 00-1.31-.48 1.74 1.74 0 00-1.31.48A1.78 1.78 0 0075 21v10.78a1.79 1.79 0 00.48 1.31 1.74 1.74 0 001.31.48 1.78 1.78 0 001.31-.48 1.83 1.83 0 00.47-1.31V27.1h-1.42v-1.93h5.37v1.93h-1.37v8.81h-1l-.81-1.55-1.53 1.55h-2.59zm11.14 0V16.92h2.62v14.86a1.79 1.79 0 00.48 1.31 2 2 0 002.62 0 1.79 1.79 0 00.48-1.31V16.92h2.62v19h-1.1L90.35 34l-1.92 1.92h-2.07zm10.88 2.91v-2.34H96V19.25h-1.65v-2.33h5.91v2.33h-1.65v14.32h1.65v2.34zm7.97 0v-19h2.6v16.66h4.55v2.34zm8.11 0V30.4l1.37-13.48h5.52l1.37 13.48v5.51h-2.48v-6.06h-3.3v6.06zm2.74-8.4H116l-.84-8.26H114zm6.61 5.49v-3.42h2.62v2.47a1.65 1.65 0 103.3 0v-.95a3.52 3.52 0 00-.38-1.75 9.23 9.23 0 00-1.4-1.7l-3.73-3.72v-4.41l2.62-2.6h2.48l2.47 2.47v3.86h-2.34v-2.62a1.57 1.57 0 00-.38-1.07 1.33 1.33 0 00-2 0 1.53 1.53 0 00-.39 1.07v1a3.06 3.06 0 00.41 1.65A10.51 10.51 0 00124.6 25l3.71 3.73v4.12l-3 3h-2.62zm14.31 2.91V30.4l1.37-13.48H141l1.36 13.48v5.51h-2.47v-6.06h-3.31v6.06zm2.74-8.4h2.78l-.84-8.26h-1.1zm7.02 5.49V19.94l3-3h2.89l2.91 2.89v3.44h-2.62V21a1.79 1.79 0 10-3.58 0v10.78a1.79 1.79 0 00.48 1.31 2 2 0 002.62 0 1.79 1.79 0 00.48-1.31v-2.2h2.62v3.3l-3 3h-2.89zm9.91 2.91V30.4l1.36-13.48h5.53L162 30.4v5.51h-2.47v-6.06h-3.31v6.06zm2.73-8.4h2.79l-.85-8.26h-1.1zm.56-11.7l3.31-3.81H162l-3.31 3.85z" fill="#fff"/></g></g></svg><svg width="186" height="53.86" viewBox="-1 -1 186 53.86" y="53.86" xmlns="http://www.w3.org/2000/svg"><g data-name="Layer 2"><g data-name="Isolation Mode"><path fill="#fff" d="M166.21 0H17L0 17.08v17l17.79 17.78H167l17-17V17.87L166.21 0z"/><path d="M22 33V19.94l3-3h2.9l2.91 2.89v3.44h-2.62V21a1.79 1.79 0 10-3.58 0v10.78a1.79 1.79 0 00.48 1.31 2 2 0 002.62 0 1.79 1.79 0 00.48-1.31v-2.2h2.62v3.3l-3 3h-2.93zm10.17 0V19.94l3-3h2.89L41 19.81v13.07l-3 3h-2.94zm2.62-1.24a1.83 1.83 0 00.47 1.31 1.78 1.78 0 001.31.48 1.74 1.74 0 001.31-.48 1.79 1.79 0 00.48-1.31V21a1.78 1.78 0 00-.48-1.31 1.74 1.74 0 00-1.31-.48 1.78 1.78 0 00-1.31.48 1.81 1.81 0 00-.47 1.31zm8.52 4.15v-19h2.61l3 8.8v-8.8h2.61v19H49v-3.86l-3-8.8v12.66zM53.48 33v-3.42h2.62v2.47a1.62 1.62 0 00.47 1.19 1.65 1.65 0 002.84-1.19v-.95a3.63 3.63 0 00-.41-1.75 9.37 9.37 0 00-1.41-1.7l-3.69-3.72v-4.41l2.62-2.6H59l2.48 2.47v3.86h-2.35v-2.62a1.57 1.57 0 00-.38-1.07 1.35 1.35 0 00-2 0 1.53 1.53 0 00-.39 1.07v1a3.15 3.15 0 00.41 1.65A10.67 10.67 0 0058.31 25L62 28.76v4.12l-3 3h-2.63zm10.33 2.91v-19h6.74v2.33h-4.14v5.66h2.21v2.34h-2.21v6.33h4.41v2.34zM72.33 33V19.94l3-3h2.89l2.91 2.89v3.44h-2.61V21a1.81 1.81 0 00-.47-1.31 1.78 1.78 0 00-1.31-.48 1.74 1.74 0 00-1.31.48A1.78 1.78 0 0075 21v10.78a1.79 1.79 0 00.48 1.31 1.74 1.74 0 001.31.48 1.78 1.78 0 001.31-.48 1.83 1.83 0 00.47-1.31V27.1h-1.42v-1.93h5.37v1.93h-1.37v8.81h-1l-.81-1.55-1.53 1.55h-2.59zm11.14 0V16.92h2.62v14.86a1.79 1.79 0 00.48 1.31 2 2 0 002.62 0 1.79 1.79 0 00.48-1.31V16.92h2.62v19h-1.1L90.35 34l-1.92 1.92h-2.07zm10.88 2.91v-2.34H96V19.25h-1.65v-2.33h5.91v2.33h-1.65v14.32h1.65v2.34zm7.97 0v-19h2.6v16.66h4.55v2.34zm8.11 0V30.4l1.37-13.48h5.52l1.37 13.48v5.51h-2.48v-6.06h-3.3v6.06zm2.74-8.4H116l-.84-8.26H114zm6.61 5.49v-3.42h2.62v2.47a1.65 1.65 0 103.3 0v-.95a3.52 3.52 0 00-.38-1.75 9.23 9.23 0 00-1.4-1.7l-3.73-3.72v-4.41l2.62-2.6h2.48l2.47 2.47v3.86h-2.34v-2.62a1.57 1.57 0 00-.38-1.07 1.33 1.33 0 00-2 0 1.53 1.53 0 00-.39 1.07v1a3.06 3.06 0 00.41 1.65A10.51 10.51 0 00124.6 25l3.71 3.73v4.12l-3 3h-2.62zm14.31 2.91V30.4l1.37-13.48H141l1.36 13.48v5.51h-2.47v-6.06h-3.31v6.06zm2.74-8.4h2.78l-.84-8.26h-1.1zm7.02 5.49V19.94l3-3h2.89l2.91 2.89v3.44h-2.62V21a1.79 1.79 0 10-3.58 0v10.78a1.79 1.79 0 00.48 1.31 2 2 0 002.62 0 1.79 1.79 0 00.48-1.31v-2.2h2.62v3.3l-3 3h-2.89zm9.91 2.91V30.4l1.36-13.48h5.53L162 30.4v5.51h-2.47v-6.06h-3.31v6.06zm2.73-8.4h2.79l-.85-8.26h-1.1zm.56-11.7l3.31-3.81H162l-3.31 3.85z"/></g></g></svg><svg y="107.72" viewBox="-1 -1 105 42" width="105" height="42" xmlns="http://www.w3.org/2000/svg"><path d="M76.4 18.6l1.1-3.3h.8l-.1 1.4.5-1.4h.8l-1.1 3.3h-.8l.1-1.6-.5 1.6h-.8zm2.8 0l1.1-3.3h-.7l-1.1 3.3h.7zm3.2 1.7c0-.2.1-.4.1-.6-.1.2-.2.4-.2.6l-.3.8h.4v-.8m-.1-4.9l-1.1 1.3v1.6l1.1-2.9zm1.5 6.8h-1.6v-.4h-.6l-.2.4h-.8l1.5-3-4.1 1.9c-.9.4-2.3.9-2.9-.2-.3-.6-.1-1.5.4-2.3.3-.5.7-1 1.1-1.5-.2.4-.9 1.7-.1 2.3.5.3 1.1.3 1.6.1l3.4-1h-1v-1.4l-.4 1.4h-.7l1.1-3.3h.7l-.3.9.7-.9h2l-.2.8h-.6l-.2.6h.6l-.2.6h-.6l-.3.8h.8l-.1.3 3.6-1-3.6 1.6h.5l-.3 3.3.9-3.3h.8l-.9 3.3zm2-2.2c.1-.3 0-.4-.3-.4l-.2.8h.1c.1 0 .3-.1.4-.4m-.2-1.1c.7 0 1.2.2.9 1.1-.1.4-.4.7-.7.8l.2 1.4h-.9l-.1-1.4c0 .2-.1.3-.1.5l-.2.9h-.8l.9-3.3h.8m-9.4 5.4l.2-.7.1.7h-.3zm-.3.7h.1l.1-.5h.4l.1.5h.1l-.3-1.5h-.1l-.4 1.5zm1-1.6V25h.1v-1.5l-.1-.1zm.5.7v-.5h.4c.1.1.1.1.1.2s0 .1-.1.2l-.1.1h-.3zm-.2.9h.1v-.6h.4c0 .1.1.1.1.2v.5h.2v-.6s0-.1-.1-.1l.1-.1v-.2c0-.1 0-.3-.1-.4-.1 0-.1-.1-.2-.1h-.4l-.1 1.4zm2.1 0h.1v-.7h.6v-.2h-.5v-.5h.5v-.2h-.6l-.1 1.6zm1.5-.4c0 .1-.1.2-.3.2-.1 0-.2-.1-.3-.2-.1-.1-.1-.3-.1-.4 0-.2 0-.3.1-.5 0-.1.1-.2.2-.2s.2.1.2.2c.1.1.1.3.1.4.2.2.2.4.1.5m.1-.9c-.1-.2-.2-.3-.4-.3s-.3.1-.4.3c-.1.2-.1.3-.1.5s0 .4.1.6c.1.1.2.2.3.2.2 0 .3-.1.4-.3.1-.2.1-.4.1-.6.1-.1.1-.3 0-.4m.4.4v-.5h.4c.1.1.1.1.1.2s0 .1-.1.2l-.1.1h-.3zm-.1.9h.1v-.6h.4c.1.1.1.1.1.2v.4h.2v-.6s0-.1-.1-.1l.1-.1V24c0-.1 0-.3-.1-.4-.1 0-.1-.1-.2-.1h-.4l-.1 1.5zm1.6-1.4c-.1-.1-.2-.2-.3-.1-.1 0-.3.1-.3.2-.1.2-.1.4-.1.6 0 .2 0 .4.1.6.1.1.2.2.3.2.1 0 .2-.1.3-.2.1-.1.1-.3.1-.4h-.1c0 .1 0 .2-.1.2-.1.1-.1.2-.2.2s-.2-.1-.2-.2c-.1-.1-.1-.3-.1-.4 0-.2 0-.3.1-.5 0-.1.1-.2.2-.2s.1 0 .2.1c0 .1.1.1.1.2h.1c0-.1 0-.3-.1-.3m.3 1.4h.7v-.2h-.6v-.5h.5v-.2h-.5v-.5h.6v-.2h-.7V25zm2.3-1.4l.1 1.2h-.1v.2h.2v-.2h-.1v-1.4h-.2l.1.2zM5.4 40V22.3h8v-4.9h-8V4.9h9.1V0H0v40h5.4zm25.2-8.7c0 2.3-1.4 3.8-3.7 3.8s-3.7-1.4-3.7-3.8V8.7C23.3 6.4 24.7 5 27 5s3.7 1.4 3.7 3.8v22.5m-.9 8.7l6.2-6.4V6.1L30 0h-6l-6.2 6.4v27.5l6 6.1h6zm24.7-25.5c0 2.3-1.4 3.8-3.7 3.8h-3.4V4.9h3.4c2.3 0 3.7 1.4 3.7 3.8v5.8M59.9 40V22.6l-5.1-2.3 5.1-3.8V6.1l-6-6.1H42v40h5.4V23.2h3.7c2.3 0 3.4 1.7 3.4 4.1V40h5.4zm17.3 0l6.2-6.4v-7H78v4.6c0 2.3-1.4 3.8-3.7 3.8s-3.7-1.4-3.7-3.8V8.7c0-2.3 1.4-3.8 3.7-3.8S78 6.4 78 8.7v4.6h5.4V6.1l-6-6.1h-6l-6.2 6.4v27.5l5.9 6.1h6.1zm25.8 0v-4.9h-9.1V21.7h5.3v-4.9h-5.3V4.9h8.5V0H88.5v40H103z" fill="#fff"/></svg><svg viewBox="-1 -1 86 70" width="86" height="70" x="186" xmlns="http://www.w3.org/2000/svg"><path d="M10.7 23l8-22.9 5.6-.1-.9 10.1L27 .1h5.3l-8.1 23L19 23l.7-11-3.9 11h-5.1zm19.8.2l8.1-23h-5.2l-8.1 23h5.2zM53.6 35c.2-1.5.5-2.9.8-4.3-.6 1.5-1.1 2.9-1.8 4.4l-2.3 5.4 2.6.1.7-5.6M52.5.7l-.4.4-7.3 9.1.2 11.6L52.5.7zm11.1 47.8H51.8l.3-3-4-.1-1.3 3h-6l10.5-21.1L22 40.4c-6.5 2.8-16.6 6.1-20.8-1.2-2.4-4-.8-10.3 2.7-16 2.3-3.6 5.1-6.9 8-10.2-1.6 2.7-6.1 11.8-.3 16.4 2.3 1.8 6.3 2.1 11.2.7l24.4-6.8-6.9-.1v-9.9l-3.4 9.8h-5.2L39.8.2H45l-2.5 6.7L47.8.3l14.6.1-1.5 4.3h-4.5l-1.6 4.6h4.6L58 13.4l-4.6-.1-1.8 5.5 5.5-.1-.7 2.2 25.7-7.1-25.8 11.3h3.3l-1.8 23.1 6.4-23.1 6 .1-6.6 23.3zm14-15.4c.6-2.1-.3-2.9-1.9-2.8L74 36h.4c1.6.1 2.8-1.4 3.2-2.9m-.7-7.9c5.1.1 8.3 1.6 6.7 7.9-.7 2.5-2.4 4.9-5.1 5.7l1.7 9.8h-6.3l-.6-9.7c-.3 1.2-.6 2.4-.9 3.5l-1.8 6.2-5.9-.1 6.5-23.3h5.7m-68.3 38l1.1-4.7 1.1 4.8-2.2-.1zm-1.9 4.4h.9l.8-3.2h2.7l.7 3.2h1l-2.5-10.7h-1L6.7 67.6zm7.2-10.8v10.7h.9V56.8h-.9zm3.5 5v-3.7h2.2c.3 0 .5.1.7.2.4.3.5.8.5 1.6.1.5-.1 1-.4 1.5-.3.3-.6.4-1 .4h-2zm-.9 5.8h.9V63h2.1c.3 0 .6.1.8.2.3.2.5.7.5 1.4v1.8c0 .3 0 .6.1.8 0 .1 0 .2.1.4h1.2v-.2c-.2-.2-.3-.4-.3-.7 0-.2-.1-.5-.1-.9v-1.4c0-.5-.1-.9-.2-1.4-.1-.3-.3-.5-.6-.7.3-.3.5-.6.7-1 .2-.5.3-1 .3-1.6 0-1.2-.3-2.1-.9-2.5-.4-.3-.8-.4-1.3-.4h-3.2l-.1 10.8zm15 0h1v-4.9h3.4v-1.3h-3.4v-3.3h3.9v-1.3h-4.8l-.1 10.8zm10.7-2.3c-.4.9-1 1.4-1.8 1.4s-1.6-.5-1.9-1.2c-.4-.9-.6-2-.6-3 0-1.5.2-2.6.7-3.4.3-.7 1-1.1 1.8-1.1s1.4.5 1.8 1.1c.5 1 .7 2 .6 3.1 0 1-.2 2.1-.6 3.1m.8-6.8c-.6-1.2-1.5-1.8-2.7-1.8-1.2 0-2.1.7-2.7 2-.5 1.2-.8 2.4-.7 3.7 0 1.4.2 2.8.8 4 .4 1 1.4 1.6 2.5 1.6s2-.6 2.6-1.8c.6-1.3.8-2.6.8-4 .1-1.3-.1-2.6-.6-3.7m2.9 3.4v-3.7h2.2c.3 0 .5.1.7.2.4.3.5.8.5 1.6.1.5-.1 1-.4 1.5-.3.3-.6.4-1 .4h-2zm-1 5.8h.9v-4.6h2.1c.3 0 .6.1.8.2.3.2.5.7.5 1.4l.1 1.8v.9c0 .2.1.3.1.3h1.2v-.2c-.2-.1-.2-.3-.3-.7 0-.2 0-.5-.1-.9v-1.4c0-.5-.1-.9-.2-1.4-.1-.3-.3-.5-.6-.7.3-.2.6-.6.7-1 .2-.5.3-1 .3-1.6 0-1.2-.3-2.1-1-2.5-.4-.3-.8-.4-1.3-.4H45l-.1 10.8zm11.8-10c-.5-.7-1.2-1.1-2-1.1-1 0-1.8.5-2.4 1.6-.6 1.2-.9 2.6-.8 3.9 0 2.1.3 3.6 1.1 4.6.7 1.1 2.1 1.5 3.3.8.4-.2.7-.6.9-1.1.5-.9.8-1.8.8-2.8h-.9c-.1.6-.2 1.2-.4 1.7-.4.8-.9 1.2-1.6 1.2-.7 0-1.4-.5-1.7-1.1-.4-1-.6-2-.5-3.1 0-1.5.2-2.7.6-3.4.3-.7.9-1.1 1.6-1.1.5 0 1 .2 1.3.6.3.5.6 1.1.6 1.7h.9c-.1-.8-.3-1.6-.8-2.4m2.1 10h5.1v-1.3h-4.2v-3.7h3.8v-1.2h-3.8v-3.3h4.1V57h-5v10.7zm16.4-9.4h.4v8.1h-.4v1.3h1.6v-1.3h-.4V57h-1.2v1.3z"/></svg><svg x="186" y="70" viewBox="-1 -1 86 70" width="86" height="70" xmlns="http://www.w3.org/2000/svg"><path d="M10.7 23l8-22.9 5.6-.1-.9 10.1L27 .1h5.3l-8.1 23L19 23l.7-11-3.9 11h-5.1zm19.8.2l8.1-23h-5.2l-8.1 23h5.2zM53.6 35c.2-1.5.5-2.9.8-4.3-.6 1.5-1.1 2.9-1.8 4.4l-2.3 5.4 2.6.1.7-5.6M52.5.7l-.4.4-7.3 9.1.2 11.6L52.5.7zm11.1 47.8H51.8l.3-3-4-.1-1.3 3h-6l10.5-21.1L22 40.4c-6.5 2.8-16.6 6.1-20.8-1.2-2.4-4-.8-10.3 2.7-16 2.3-3.6 5.1-6.9 8-10.2-1.6 2.7-6.1 11.8-.3 16.4 2.3 1.8 6.3 2.1 11.2.7l24.4-6.8-6.9-.1v-9.9l-3.4 9.8h-5.2L39.8.2H45l-2.5 6.7L47.8.3l14.6.1-1.5 4.3h-4.5l-1.6 4.6h4.6L58 13.4l-4.6-.1-1.8 5.5 5.5-.1-.7 2.2 25.7-7.1-25.8 11.3h3.3l-1.8 23.1 6.4-23.1 6 .1-6.6 23.3zm14-15.4c.6-2.1-.3-2.9-1.9-2.8L74 36h.4c1.6.1 2.8-1.4 3.2-2.9m-.7-7.9c5.1.1 8.3 1.6 6.7 7.9-.7 2.5-2.4 4.9-5.1 5.7l1.7 9.8h-6.3l-.6-9.7c-.3 1.2-.6 2.4-.9 3.5l-1.8 6.2-5.9-.1 6.5-23.3h5.7m-68.3 38l1.1-4.7 1.1 4.8-2.2-.1zm-1.9 4.4h.9l.8-3.2h2.7l.7 3.2h1l-2.5-10.7h-1L6.7 67.6zm7.2-10.8v10.7h.9V56.8h-.9zm3.5 5v-3.7h2.2c.3 0 .5.1.7.2.4.3.5.8.5 1.6.1.5-.1 1-.4 1.5-.3.3-.6.4-1 .4h-2zm-.9 5.8h.9V63h2.1c.3 0 .6.1.8.2.3.2.5.7.5 1.4v1.8c0 .3 0 .6.1.8 0 .1 0 .2.1.4h1.2v-.2c-.2-.2-.3-.4-.3-.7 0-.2-.1-.5-.1-.9v-1.4c0-.5-.1-.9-.2-1.4-.1-.3-.3-.5-.6-.7.3-.3.5-.6.7-1 .2-.5.3-1 .3-1.6 0-1.2-.3-2.1-.9-2.5-.4-.3-.8-.4-1.3-.4h-3.2l-.1 10.8zm15 0h1v-4.9h3.4v-1.3h-3.4v-3.3h3.9v-1.3h-4.8l-.1 10.8zm10.7-2.3c-.4.9-1 1.4-1.8 1.4s-1.6-.5-1.9-1.2c-.4-.9-.6-2-.6-3 0-1.5.2-2.6.7-3.4.3-.7 1-1.1 1.8-1.1s1.4.5 1.8 1.1c.5 1 .7 2 .6 3.1 0 1-.2 2.1-.6 3.1m.8-6.8c-.6-1.2-1.5-1.8-2.7-1.8-1.2 0-2.1.7-2.7 2-.5 1.2-.8 2.4-.7 3.7 0 1.4.2 2.8.8 4 .4 1 1.4 1.6 2.5 1.6s2-.6 2.6-1.8c.6-1.3.8-2.6.8-4 .1-1.3-.1-2.6-.6-3.7m2.9 3.4v-3.7h2.2c.3 0 .5.1.7.2.4.3.5.8.5 1.6.1.5-.1 1-.4 1.5-.3.3-.6.4-1 .4h-2zm-1 5.8h.9v-4.6h2.1c.3 0 .6.1.8.2.3.2.5.7.5 1.4l.1 1.8v.9c0 .2.1.3.1.3h1.2v-.2c-.2-.1-.2-.3-.3-.7 0-.2 0-.5-.1-.9v-1.4c0-.5-.1-.9-.2-1.4-.1-.3-.3-.5-.6-.7.3-.2.6-.6.7-1 .2-.5.3-1 .3-1.6 0-1.2-.3-2.1-1-2.5-.4-.3-.8-.4-1.3-.4H45l-.1 10.8zm11.8-10c-.5-.7-1.2-1.1-2-1.1-1 0-1.8.5-2.4 1.6-.6 1.2-.9 2.6-.8 3.9 0 2.1.3 3.6 1.1 4.6.7 1.1 2.1 1.5 3.3.8.4-.2.7-.6.9-1.1.5-.9.8-1.8.8-2.8h-.9c-.1.6-.2 1.2-.4 1.7-.4.8-.9 1.2-1.6 1.2-.7 0-1.4-.5-1.7-1.1-.4-1-.6-2-.5-3.1 0-1.5.2-2.7.6-3.4.3-.7.9-1.1 1.6-1.1.5 0 1 .2 1.3.6.3.5.6 1.1.6 1.7h.9c-.1-.8-.3-1.6-.8-2.4m2.1 10h5.1v-1.3h-4.2v-3.7h3.8v-1.2h-3.8v-3.3h4.1V57h-5v10.7zm16.4-9.4h.4v8.1h-.4v1.3h1.6v-1.3h-.4V57h-1.2v1.3z" fill="#fff"/></svg></svg>