<svg width="190" height="137" xmlns="http://www.w3.org/2000/svg" xmlns:xlink="http://www.w3.org/1999/xlink"><svg width="86" height="28" viewBox="-1 -1 86 28" y="76" xmlns="http://www.w3.org/2000/svg"><g data-name="Layer 2"><g data-name="Isolation Mode"><path d="M75.88 0H7.76L0 8.56v8.52L8.12 26h68.12L84 17.48V8.96L75.88 0z"/><path d="M6.7 16.55v-6.9l1.5-1.59h1.44l1.44 1.52v1.82h-1.3v-1.17a1 1 0 00-.24-.69.82.82 0 00-.65-.25.85.85 0 00-.65.25 1 1 0 00-.24.69v5.67a1 1 0 00.24.68.86.86 0 00.65.26.83.83 0 00.65-.26 1 1 0 00.24-.68v-1.17h1.3v1.75l-1.51 1.59H8.14zm5.06 0v-6.9l1.5-1.59h1.44l1.44 1.52v6.9l-1.51 1.59h-1.44zm1.3-.65a1 1 0 00.24.68.83.83 0 00.65.26.86.86 0 00.65-.26 1 1 0 00.24-.68v-5.67a1 1 0 00-.24-.69.85.85 0 00-.6-.25.82.82 0 00-.65.25 1 1 0 00-.24.69zm4.23 2.17v-10h1.3l1.51 4.63V8.06h1.29v10H20.1V16l-1.51-4.6v6.67zm5.06-1.52v-1.82h1.3V16a.92.92 0 00.23.63.85.85 0 001.18 0 .88.88 0 00.23-.63v-.5a1.91 1.91 0 00-.19-.92 4.5 4.5 0 00-.69-.9l-1.85-2V9.43l1.3-1.37h1.23l1.23 1.3v2h-1.17V10a.83.83 0 00-.15-.55.61.61 0 00-.49-.23.62.62 0 00-.49.23.83.83 0 00-.2.56v.51a1.7 1.7 0 00.21.87 5.14 5.14 0 00.76.95l1.84 2v2.18l-1.5 1.59h-1.35zm5.13 1.52v-10h3.35v1.22h-2.06v3h1.1v1.21h-1.1v3.34H31v1.23zm4.23-1.52v-6.9l1.5-1.59h1.44l1.44 1.52v1.82h-1.3v-1.17a1 1 0 00-.24-.69.84.84 0 00-.65-.25.85.85 0 00-.65.25 1 1 0 00-.24.69v5.67a1 1 0 00.24.68.86.86 0 00.65.26.84.84 0 00.65-.26 1 1 0 00.24-.68v-2.47h-.68v-1h2.66v1h-.68v4.64h-.48l-.4-.81-.76.81h-1.3zm5.54 0V8.06h1.3v7.84a1 1 0 00.24.68.83.83 0 00.65.26.86.86 0 00.65-.26 1 1 0 00.24-.68V8.06h1.3v10h-.55l-.41-1-1 1h-1zm5.4 1.52v-1.23h.82V9.29h-.82V8.06h2.94v1.23h-.82v7.55h.82v1.23zm3.96 0v-10h1.3v8.78h2.25v1.23zm4.03 0v-2.9l.68-7.11h2.75l.67 7.11v2.9h-1.22v-3.19h-1.65v3.19zM52 13.64h1.39L53 9.29h-.55zm3.29 2.91v-1.82h1.3V16a.88.88 0 00.23.63.85.85 0 001.18 0 .92.92 0 00.23-.63v-.5a1.91 1.91 0 00-.19-.92 4.62 4.62 0 00-.7-.9l-1.85-2V9.43l1.3-1.37H58l1.23 1.3v2h-1.14V10a.83.83 0 00-.19-.56.62.62 0 00-.49-.23.64.64 0 00-.5.23.88.88 0 00-.19.56v.51a1.8 1.8 0 00.2.87 5.61 5.61 0 00.76.95l1.85 2v2.18L58 18.07h-1.3zm6.86 1.13v-2.91l.68-7.11h2.75l.67 7.11v2.91H65v-3.2h-1.62v3.2zm1.36-4.43h1.39l-.42-4.35h-.55zM67 16.16v-6.9l1.5-1.6h1.44l1.44 1.53V11h-1.3V9.84a1 1 0 00-.24-.69.84.84 0 00-.65-.25.85.85 0 00-.65.25 1 1 0 00-.24.69v5.66a1 1 0 00.24.69.86.86 0 00.65.26.84.84 0 00.65-.26 1 1 0 00.24-.69v-1.16h1.3v1.74l-1.51 1.6h-1.43zm4.92 1.52v-2.91l.68-7.11h2.75l.65 7.11v2.91h-1.21v-3.2h-1.64v3.2zm1.36-4.43h1.39l-.42-4.35h-.55zm.28-6.17l1.64-2h.8l-1.64 2z" fill="#fff"/></g></g></svg><svg width="86" height="28" viewBox="-1 -1 86 28" x="86" y="76" xmlns="http://www.w3.org/2000/svg"><g data-name="Layer 2"><g data-name="Isolation Mode"><path fill="#fff" d="M75.88 0H7.76L0 8.56v8.52L8.12 26h68.12L84 17.48V8.96L75.88 0z"/><path d="M6.7 16.55v-6.9l1.5-1.59h1.44l1.44 1.52v1.82h-1.3v-1.17a1 1 0 00-.24-.69.82.82 0 00-.65-.25.85.85 0 00-.65.25 1 1 0 00-.24.69v5.67a1 1 0 00.24.68.86.86 0 00.65.26.83.83 0 00.65-.26 1 1 0 00.24-.68v-1.17h1.3v1.75l-1.51 1.59H8.14zm5.06 0v-6.9l1.5-1.59h1.44l1.44 1.52v6.9l-1.51 1.59h-1.44zm1.3-.65a1 1 0 00.24.68.83.83 0 00.65.26.86.86 0 00.65-.26 1 1 0 00.24-.68v-5.67a1 1 0 00-.24-.69.85.85 0 00-.6-.25.82.82 0 00-.65.25 1 1 0 00-.24.69zm4.23 2.17v-10h1.3l1.51 4.63V8.06h1.29v10H20.1V16l-1.51-4.6v6.67zm5.06-1.52v-1.82h1.3V16a.92.92 0 00.23.63.85.85 0 001.18 0 .88.88 0 00.23-.63v-.5a1.91 1.91 0 00-.19-.92 4.5 4.5 0 00-.69-.9l-1.85-2V9.43l1.3-1.37h1.23l1.23 1.3v2h-1.17V10a.83.83 0 00-.15-.55.61.61 0 00-.49-.23.62.62 0 00-.49.23.83.83 0 00-.2.56v.51a1.7 1.7 0 00.21.87 5.14 5.14 0 00.76.95l1.84 2v2.18l-1.5 1.59h-1.35zm5.13 1.52v-10h3.35v1.22h-2.06v3h1.1v1.21h-1.1v3.34H31v1.23zm4.23-1.52v-6.9l1.5-1.59h1.44l1.44 1.52v1.82h-1.3v-1.17a1 1 0 00-.24-.69.84.84 0 00-.65-.25.85.85 0 00-.65.25 1 1 0 00-.24.69v5.67a1 1 0 00.24.68.86.86 0 00.65.26.84.84 0 00.65-.26 1 1 0 00.24-.68v-2.47h-.68v-1h2.66v1h-.68v4.64h-.48l-.4-.81-.76.81h-1.3zm5.54 0V8.06h1.3v7.84a1 1 0 00.24.68.83.83 0 00.65.26.86.86 0 00.65-.26 1 1 0 00.24-.68V8.06h1.3v10h-.55l-.41-1-1 1h-1zm5.4 1.52v-1.23h.82V9.29h-.82V8.06h2.94v1.23h-.82v7.55h.82v1.23zm3.96 0v-10h1.3v8.78h2.25v1.23zm4.03 0v-2.9l.68-7.11h2.75l.67 7.11v2.9h-1.22v-3.19h-1.65v3.19zM52 13.64h1.39L53 9.29h-.55zm3.29 2.91v-1.82h1.3V16a.88.88 0 00.23.63.85.85 0 001.18 0 .92.92 0 00.23-.63v-.5a1.91 1.91 0 00-.19-.92 4.62 4.62 0 00-.7-.9l-1.85-2V9.43l1.3-1.37H58l1.23 1.3v2h-1.14V10a.83.83 0 00-.19-.56.62.62 0 00-.49-.23.64.64 0 00-.5.23.88.88 0 00-.19.56v.51a1.8 1.8 0 00.2.87 5.61 5.61 0 00.76.95l1.85 2v2.18L58 18.07h-1.3zm6.86 1.13v-2.91l.68-7.11h2.75l.67 7.11v2.91H65v-3.2h-1.62v3.2zm1.36-4.43h1.39l-.42-4.35h-.55zM67 16.16v-6.9l1.5-1.6h1.44l1.44 1.53V11h-1.3V9.84a1 1 0 00-.24-.69.84.84 0 00-.65-.25.85.85 0 00-.65.25 1 1 0 00-.24.69v5.66a1 1 0 00.24.69.86.86 0 00.65.26.84.84 0 00.65-.26 1 1 0 00.24-.69v-1.16h1.3v1.74l-1.51 1.6h-1.43zm4.92 1.52v-2.91l.68-7.11h2.75l.65 7.11v2.91h-1.21v-3.2h-1.64v3.2zm1.36-4.43h1.39l-.42-4.35h-.55zm.28-6.17l1.64-2h.8l-1.64 2z"/></g></g></svg><svg width="82" height="33" viewBox="-1 -1 82 33" y="104" xmlns="http://www.w3.org/2000/svg"><g data-name="Layer 2"><g data-name="Layer 1" fill="#fff"><path d="M59.92 14.42l.42-1.22-.07 1.22.56.01.87-2.53-.57-.01-.39 1.11.1-1.11h-.6l-.87 2.53h.55zm1.59.02l.87-2.54h-.56l-.87 2.53.56.01z"/><path d="M64 15.75l-.09.6h-.28l.26-.6c.07-.16.12-.32.19-.48 0 .16-.06.31-.08.48m-.93-1.47v-1.27l.78-1zm2.71.39h-.64l-.69 2.54.2-2.54h-.35l2.76-1.25-2.78.78.08-.25h-.6l.2-.6h.5l.15-.45h-.49l.17-.51h.49l.16-.47h-1.57l-.57.73.27-.74h-.56l-.87 2.52h.56l.37-1.08v1.09h.75l-2.63.75a1.36 1.36 0 01-1.22-.08c-.62-.5-.13-1.51 0-1.81a11.36 11.36 0 00-.87 1.13 1.9 1.9 0 00-.29 1.77c.46.8 1.55.44 2.25.13l3.17-1.44-1.14 2.32h.65l.14-.33h.43v.34h1.27z"/><path d="M66.6 15.53a.4.4 0 01-.34.33l.17-.63c.17 0 .28.07.21.3m-.08-.86h-.66l-.7 2.57h.64l.19-.68.09-.39.07 1.07h.68l-.18-1.07a.91.91 0 00.55-.63c.18-.69-.17-.86-.72-.87m-7.13 4.18l-.11-.52-.13.52zm-.17-.7h.12l.27 1.18h-.11l-.08-.33h-.3l-.08.35h-.1zm.493 1.186l.001-1.18h.1l-.001 1.18zm.617-.636a.16.16 0 00.11-.05.24.24 0 000-.16.23.23 0 00-.06-.18h-.28v.4zm-.33-.55h.34a.21.21 0 01.14 0 .33.33 0 01.1.28.48.48 0 010 .18.18.18 0 01-.07.1.21.21 0 01.06.08.28.28 0 010 .15v.16a.28.28 0 000 .1v.07h-.12V19c0-.08 0-.13-.06-.16a.13.13 0 00-.08 0h-.21v.51H60zm1.62.01h.52v.14h-.42v.36h.37v.14h-.37v.54h-.1v-1.18zm1.15.92a1 1 0 00.06-.35.83.83 0 00-.06-.34.21.21 0 00-.38 0 .77.77 0 00-.08.38.81.81 0 00.06.33.23.23 0 00.21.13.2.2 0 00.19-.15m.09-.75a.8.8 0 01.07.4.85.85 0 01-.08.44c-.07.14-.16.21-.28.2a.27.27 0 01-.27-.18.93.93 0 01-.09-.44 1 1 0 01.07-.41.33.33 0 01.29-.22.31.31 0 01.29.21m.54.37a.15.15 0 00.11 0 .25.25 0 000-.17.21.21 0 00-.06-.17h-.32v.41zm-.33-.54h.34a.21.21 0 01.14 0 .32.32 0 01.1.28.4.4 0 010 .17.21.21 0 01-.07.11.17.17 0 01.06.08.43.43 0 010 .15v.15a.25.25 0 000 .1.1.1 0 000 .08h-.13V19c0-.08 0-.13-.06-.15a.11.11 0 00-.08 0h-.23v.51h-.1zm1.27.09a.58.58 0 01.09.27h-.1a.47.47 0 00-.07-.19.17.17 0 00-.14-.06.19.19 0 00-.17.12.75.75 0 00-.07.38.86.86 0 00.06.34.19.19 0 00.18.12.19.19 0 00.17-.13.78.78 0 000-.19h.1a.67.67 0 01-.09.31.24.24 0 01-.23.16.3.3 0 01-.22-.13.88.88 0 01-.11-.51.89.89 0 01.08-.43.29.29 0 01.26-.18.24.24 0 01.22.12m.27-.09h.54v.15h-.44v.35h.41v.14h-.41v.4h.45v.15l-.55-.01v-1.18zm1.77.15l.04-.01v.9h-.04v.15l.17-.01v-.14h-.04v-1.04h-.13v.15zM0 31V0h11.23v3.82H4.18v9.66h6.17v3.82H4.18V31H0zm23.8-6.74V6.74a2.69 2.69 0 00-2.87-2.92 2.68 2.68 0 00-2.86 2.92v17.52a2.68 2.68 0 002.86 2.92 2.69 2.69 0 002.87-2.92M18.51 31l-4.63-4.72V4.94L18.73 0h4.63L28 4.72v21.34L23.14 31zm23.8-19.77V6.74a2.68 2.68 0 00-2.86-2.92H36.8v10.33h2.65a2.68 2.68 0 002.86-2.92m0 19.77v-9.88c0-1.8-.88-3.15-2.64-3.15H36.8V31h-4.18V0h9.25l4.63 4.72v8.08l-4 2.92 4 1.8V31z"/><path d="M55.32 31l-4.63-4.72V4.94L55.54 0h4.63l4.62 4.72v5.61h-4.18V6.74a2.87 2.87 0 10-5.73 0v17.52a2.87 2.87 0 105.73 0v-3.59h4.18v5.39L59.94 31zm13.45 0V0h10.79v3.82h-6.61v9.21h4.14v3.82h-4.14v10.33H80V31H68.77z"/></g></g></svg><svg width="95" height="76" viewBox="-1 -1 95 76" xmlns="http://www.w3.org/2000/svg"><g data-name="Layer 2"><g data-name="Layer 1"><path d="M17.44 25.03l4.33-12.02L21.01 25l5.76.09L35.71.08 29.87.06 25.88 11l1.05-11-6.23.07-8.88 24.97 5.62-.01zm16.32.17L42.69.15 36.97.12l-8.92 25.02 5.71.06z"/><path d="M59.39 38.14l-.92 6-2.83-.06 2.58-5.85c.74-1.6 1.29-3.2 2-4.81-.28 1.6-.62 3.1-.84 4.74m-9.5-14.48l-.27-12.58 8.06-9.91.43-.43zm27.82 3.79l-6.59-.08L64 52.48l2-25.1-3.69-.05L90.66 14.9l-28.48 7.72.8-2.4-6.13.09 2-6 5.09.1 1.56-4.48h-5l1.78-5h5L69 .31 52.83.23 47 7.43 49.71.16 44 .19l-8.94 25h5.76l3.77-10.69v10.78l7.62.08-27 7.42C19.72 34.24 15.29 34 12.75 32c-6.41-5-1.41-14.95.38-17.88a98.27 98.27 0 00-8.88 11.13c-3.9 6.3-5.61 13.06-3 17.46 4.66 7.92 15.93 4.36 23.06 1.29l32.5-14.25-11.67 22.96 6.68-.06 1.42-3.26 4.44.09-.36 3.32H70.4z"/><path d="M85.94 36c-.42 1.66-1.77 3.23-3.5 3.18h-.42L83.86 33c1.74-.18 2.8.73 2.08 3m-.83-8.57l-6.34-.07-7.16 25.46 6.51.08 2-6.78c.31-1.22.62-2.46 1-3.79l.69 10.57h7l-1.89-10.6a9 9 0 005.6-6.25c1.82-6.79-1.73-8.51-7.41-8.58M12 68.8l-1.16-5.18-1.26 5.16zm-1.69-6.92h1.18l2.76 11.69h-1.17l-.81-3.5h-3l-.84 3.49h-1zm5.1 0l-.01 11.7 1.04.02V61.88h-1.03zm6.22 5.4a1.6 1.6 0 001.15-.46 2.45 2.45 0 00.4-1.6 2.06 2.06 0 00-.58-1.72 1.32 1.32 0 00-.83-.24H19.3v4zm-3.36-5.39h3.48a2.39 2.39 0 011.43.39 3.11 3.11 0 011 2.76 4.15 4.15 0 01-.28 1.73 2.88 2.88 0 01-.78 1.07 2.11 2.11 0 01.66.74 3.78 3.78 0 01.26 1.47v1.57c0 .44 0 .77.08 1a1.09 1.09 0 00.33.71v.25h-1.21a2.32 2.32 0 01-.07-.39 6.13 6.13 0 01-.07-.92l-.05-2a1.91 1.91 0 00-.55-1.52 1.59 1.59 0 00-.9-.24h-2.29v5h-1zm16.61.05h5.33v1.43l-4.29-.01-.01 3.55h3.78l-.01 1.4H35.9v5.32h-1.05l.03-11.69zm11.83 9.16a9.71 9.71 0 00.62-3.47 7 7 0 00-.7-3.34 2.13 2.13 0 00-1.94-1.24 2.2 2.2 0 00-1.95 1.22A7.54 7.54 0 0042 68a7.09 7.09 0 00.63 3.28 2.24 2.24 0 002.1 1.34 2.1 2.1 0 002-1.48m.92-7.48a8.79 8.79 0 01.74 4 9.34 9.34 0 01-.88 4.34 3.18 3.18 0 01-2.93 2 3 3 0 01-2.77-1.78 9.19 9.19 0 01-.91-4.36 9.56 9.56 0 01.79-4.05 3.15 3.15 0 012.94-2.16 3.18 3.18 0 013 2m5.49 3.67a1.54 1.54 0 001.12-.43 2.39 2.39 0 00.43-1.61 2 2 0 00-.59-1.71 1.19 1.19 0 00-.82-.23h-2.47v4zM49.76 62h3.48a2.49 2.49 0 011.43.4 3.26 3.26 0 011.06 2.77 4.67 4.67 0 01-.29 1.72 2.43 2.43 0 01-.81 1.05 1.81 1.81 0 01.68.75 3.68 3.68 0 01.25 1.49v1.55c0 .44 0 .77.07 1 .09.39.17.6.35.73v.25h-1.26c0-.1 0-.23-.08-.38s0-.47-.06-.94v-1.93a1.93 1.93 0 00-.58-1.6 1.49 1.49 0 00-.9-.22h-2.32v5h-1zm13.04.82a5.32 5.32 0 01.86 2.67h-1a3.73 3.73 0 00-.68-1.8 1.72 1.72 0 00-1.43-.69 2 2 0 00-1.78 1.21 7.53 7.53 0 00-.69 3.79 7.76 7.76 0 00.6 3.35 2 2 0 001.83 1.25 1.83 1.83 0 001.73-1.34 6.37 6.37 0 00.47-1.84h1a7 7 0 01-.9 3.09 2.65 2.65 0 01-4.65.27A8.67 8.67 0 0157 67.69a8.72 8.72 0 01.89-4.24 2.88 2.88 0 012.66-1.79 2.66 2.66 0 012.25 1.16m2.36-.84l5.57.03v1.41h-4.54v3.55h4.2l.01 1.36-4.22-.01-.01 3.97 4.62.02v1.39l-5.62-.02-.01-11.7zm18.15 1.44l.42-.01-.02 8.87-.44-.01.01 1.42 1.75-.01v-1.39l-.44-.01.04-8.87v-1.39L83.3 62l.01 1.42z"/></g></g></svg><svg width="95" height="76" viewBox="-1 -1 95 76" x="95" xmlns="http://www.w3.org/2000/svg"><g data-name="Layer 2"><g data-name="Layer 1" fill="#fff"><path d="M17.44 25.03l4.33-12.02L21.01 25l5.76.09L35.71.08 29.87.06 25.88 11l1.05-11-6.23.07-8.88 24.97 5.62-.01zm16.32.17L42.69.15 36.97.12l-8.92 25.02 5.71.06z"/><path d="M59.39 38.14l-.92 6-2.83-.06 2.58-5.85c.74-1.6 1.29-3.2 2-4.81-.28 1.6-.62 3.1-.84 4.74m-9.5-14.48l-.27-12.58 8.06-9.91.43-.43zm27.82 3.79l-6.59-.08L64 52.48l2-25.1-3.69-.05L90.66 14.9l-28.48 7.72.8-2.4-6.13.09 2-6 5.09.1 1.56-4.48h-5l1.78-5h5L69 .31 52.83.23 47 7.43 49.71.16 44 .19l-8.94 25h5.76l3.77-10.69v10.78l7.62.08-27 7.42C19.72 34.24 15.29 34 12.75 32c-6.41-5-1.41-14.95.38-17.88a98.27 98.27 0 00-8.88 11.13c-3.9 6.3-5.61 13.06-3 17.46 4.66 7.92 15.93 4.36 23.06 1.29l32.5-14.25-11.67 22.96 6.68-.06 1.42-3.26 4.44.09-.36 3.32H70.4z"/><path d="M85.94 36c-.42 1.66-1.77 3.23-3.5 3.18h-.42L83.86 33c1.74-.18 2.8.73 2.08 3m-.83-8.57l-6.34-.07-7.16 25.46 6.51.08 2-6.78c.31-1.22.62-2.46 1-3.79l.69 10.57h7l-1.89-10.6a9 9 0 005.6-6.25c1.82-6.79-1.73-8.51-7.41-8.58M12 68.8l-1.16-5.18-1.26 5.16zm-1.69-6.92h1.18l2.76 11.69h-1.17l-.81-3.5h-3l-.84 3.49h-1zm5.1 0l-.01 11.7 1.04.02V61.88h-1.03zm6.22 5.4a1.6 1.6 0 001.15-.46 2.45 2.45 0 00.4-1.6 2.06 2.06 0 00-.58-1.72 1.32 1.32 0 00-.83-.24H19.3v4zm-3.36-5.39h3.48a2.39 2.39 0 011.43.39 3.11 3.11 0 011 2.76 4.15 4.15 0 01-.28 1.73 2.88 2.88 0 01-.78 1.07 2.11 2.11 0 01.66.74 3.78 3.78 0 01.26 1.47v1.57c0 .44 0 .77.08 1a1.09 1.09 0 00.33.71v.25h-1.21a2.32 2.32 0 01-.07-.39 6.13 6.13 0 01-.07-.92l-.05-2a1.91 1.91 0 00-.55-1.52 1.59 1.59 0 00-.9-.24h-2.29v5h-1zm16.61.05h5.33v1.43l-4.29-.01-.01 3.55h3.78l-.01 1.4H35.9v5.32h-1.05l.03-11.69zm11.83 9.16a9.71 9.71 0 00.62-3.47 7 7 0 00-.7-3.34 2.13 2.13 0 00-1.94-1.24 2.2 2.2 0 00-1.95 1.22A7.54 7.54 0 0042 68a7.09 7.09 0 00.63 3.28 2.24 2.24 0 002.1 1.34 2.1 2.1 0 002-1.48m.92-7.48a8.79 8.79 0 01.74 4 9.34 9.34 0 01-.88 4.34 3.18 3.18 0 01-2.93 2 3 3 0 01-2.77-1.78 9.19 9.19 0 01-.91-4.36 9.56 9.56 0 01.79-4.05 3.15 3.15 0 012.94-2.16 3.18 3.18 0 013 2m5.49 3.67a1.54 1.54 0 001.12-.43 2.39 2.39 0 00.43-1.61 2 2 0 00-.59-1.71 1.19 1.19 0 00-.82-.23h-2.47v4zM49.76 62h3.48a2.49 2.49 0 011.43.4 3.26 3.26 0 011.06 2.77 4.67 4.67 0 01-.29 1.72 2.43 2.43 0 01-.81 1.05 1.81 1.81 0 01.68.75 3.68 3.68 0 01.25 1.49v1.55c0 .44 0 .77.07 1 .09.39.17.6.35.73v.25h-1.26c0-.1 0-.23-.08-.38s0-.47-.06-.94v-1.93a1.93 1.93 0 00-.58-1.6 1.49 1.49 0 00-.9-.22h-2.32v5h-1zm13.04.82a5.32 5.32 0 01.86 2.67h-1a3.73 3.73 0 00-.68-1.8 1.72 1.72 0 00-1.43-.69 2 2 0 00-1.78 1.21 7.53 7.53 0 00-.69 3.79 7.76 7.76 0 00.6 3.35 2 2 0 001.83 1.25 1.83 1.83 0 001.73-1.34 6.37 6.37 0 00.47-1.84h1a7 7 0 01-.9 3.09 2.65 2.65 0 01-4.65.27A8.67 8.67 0 0157 67.69a8.72 8.72 0 01.89-4.24 2.88 2.88 0 012.66-1.79 2.66 2.66 0 012.25 1.16m2.36-.84l5.57.03v1.41h-4.54v3.55h4.2l.01 1.36-4.22-.01-.01 3.97 4.62.02v1.39l-5.62-.02-.01-11.7zm18.15 1.44l.42-.01-.02 8.87-.44-.01.01 1.42 1.75-.01v-1.39l-.44-.01.04-8.87v-1.39L83.3 62l.01 1.42z"/></g></g></svg></svg>