<svg width="356" height="244" xmlns="http://www.w3.org/2000/svg" xmlns:xlink="http://www.w3.org/1999/xlink"><svg width="144" height="45" viewBox="-1 -1 144 45" y="145" xmlns="http://www.w3.org/2000/svg"><g data-name="Layer 2"><g data-name="Isolation Mode"><path d="M128.27 0H13.12L0 14.16v14.09L13.73 43h115.15L142 28.9V14.81L128.27 0z"/><path d="M11.33 27.37V16l2.54-2.64h2.43l2.44 2.53v3h-2.21v-1.97a1.57 1.57 0 00-.4-1.14 1.43 1.43 0 00-1.1-.42 1.46 1.46 0 00-1.1.42 1.57 1.57 0 00-.4 1.14v9.37a1.57 1.57 0 00.4 1.14 1.46 1.46 0 001.1.42 1.43 1.43 0 001.1-.42 1.57 1.57 0 00.4-1.14v-1.92h2.21v2.88l-2.56 2.64h-2.42zm8.55 0V16l2.54-2.64h2.42l2.44 2.53v11.4l-2.55 2.64H22.3zm2.2-1.08a1.57 1.57 0 00.4 1.14 1.43 1.43 0 001.1.42 1.46 1.46 0 001.1-.42 1.57 1.57 0 00.4-1.14v-9.37a1.57 1.57 0 00-.4-1.14 1.46 1.46 0 00-1.1-.42 1.43 1.43 0 00-1.1.42 1.57 1.57 0 00-.4 1.14zm7.15 3.6V13.32h2.19L34 21v-7.68h2.19v16.57H34v-3.37l-2.56-7.67v11zm8.55-2.52v-3H40v2.15a1.43 1.43 0 00.39 1 1.42 1.42 0 002 0 1.43 1.43 0 00.39-1v-.83a3.26 3.26 0 00-.32-1.52 8.2 8.2 0 00-1.18-1.48l-3.13-3.25V15.6l2.2-2.28h2.08l2.08 2.16v3.37h-2v-2.29a1.4 1.4 0 00-.32-.93 1 1 0 00-.83-.38 1 1 0 00-.84.38 1.4 1.4 0 00-.32.93v.84a2.79 2.79 0 00.34 1.44 9.26 9.26 0 001.28 1.57L45 23.65v3.6l-2.54 2.64h-2.2zm8.67 2.52V13.32h5.67v2h-3.48v4.93h1.85v2h-1.85v5.52h3.7v2zm7.16-2.52V16l2.54-2.64h2.42L61 15.85v3h-2.2v-1.93a1.57 1.57 0 00-.4-1.14 1.65 1.65 0 00-2.2 0 1.57 1.57 0 00-.4 1.14v9.37a1.57 1.57 0 00.4 1.14 1.65 1.65 0 002.2 0 1.57 1.57 0 00.4-1.14v-4.08h-1.14v-1.69h4.5v1.69H61v7.68h-.8l-.68-1.35-1.28 1.35H56zm9.39 0v-14h2.2v13a1.57 1.57 0 00.4 1.14 1.65 1.65 0 002.2 0 1.57 1.57 0 00.4-1.14v-13h2.2v16.52h-.92l-.7-1.68-1.62 1.68h-1.77zm9.1 2.52v-2h1.39V15.36H72.1v-2h5v2h-1.42v12.49h1.39v2zm6.69 0V13.32H81v14.53h3.8v2zm6.82 0v-4.81l1.15-11.76h4.64l1.14 11.76v4.81h-2.07V24.6h-2.78v5.29zm2.3-7.33h2.34l-.71-7.2h-.93zm5.55 4.81v-3h2.2v2.15a1.43 1.43 0 00.39 1 1.33 1.33 0 001 .41 1.34 1.34 0 001-.41 1.43 1.43 0 00.39-1v-.83a3.26 3.26 0 00-.32-1.52 8.2 8.2 0 00-1.18-1.48l-3.13-3.25V15.6L96 13.32h2.08l2.07 2.16v3.37h-2v-2.29a1.4 1.4 0 00-.32-.93 1 1 0 00-.83-.38 1 1 0 00-.84.38 1.35 1.35 0 00-.32.93v.84a2.79 2.79 0 00.34 1.44 9.26 9.26 0 001.28 1.57l3.12 3.24v3.6l-2.54 2.64h-2.2zm11.61 1.87v-4.81l1.15-11.75h4.63L112 24.43v4.81h-2.08V24h-2.78v5.29zm2.3-7.33h2.33l-.7-7.2h-.93zm5.89 4.81V15.31l2.54-2.63h2.43l2.44 2.52v3h-2.2v-1.93a1.61 1.61 0 00-.4-1.14 1.46 1.46 0 00-1.1-.42 1.43 1.43 0 00-1.1.42 1.58 1.58 0 00-.41 1.14v9.37a1.58 1.58 0 00.41 1.14 1.43 1.43 0 001.1.42 1.46 1.46 0 001.1-.42 1.61 1.61 0 00.4-1.14v-1.92h2.2v2.88l-2.55 2.64h-2.43zm8.32 2.52v-4.81l1.15-11.75h4.64l1.15 11.75v4.81h-2.08V24h-2.78v5.29zm2.3-7.33h2.34l-.71-7.2h-.92zm.47-10.2l2.78-3.36h1.39l-2.78 3.36z" fill="#fff"/></g></g></svg><svg width="144" height="45" viewBox="-1 -1 144 45" x="144" y="145" xmlns="http://www.w3.org/2000/svg"><g data-name="Layer 2"><g data-name="Isolation Mode"><path fill="#fff" d="M128.27 0H13.12L0 14.16v14.09L13.73 43h115.15L142 28.9V14.81L128.27 0z"/><path d="M11.33 27.37V16l2.54-2.64h2.43l2.44 2.53v3h-2.21v-1.97a1.57 1.57 0 00-.4-1.14 1.43 1.43 0 00-1.1-.42 1.46 1.46 0 00-1.1.42 1.57 1.57 0 00-.4 1.14v9.37a1.57 1.57 0 00.4 1.14 1.46 1.46 0 001.1.42 1.43 1.43 0 001.1-.42 1.57 1.57 0 00.4-1.14v-1.92h2.21v2.88l-2.56 2.64h-2.42zm8.55 0V16l2.54-2.64h2.42l2.44 2.53v11.4l-2.55 2.64H22.3zm2.2-1.08a1.57 1.57 0 00.4 1.14 1.43 1.43 0 001.1.42 1.46 1.46 0 001.1-.42 1.57 1.57 0 00.4-1.14v-9.37a1.57 1.57 0 00-.4-1.14 1.46 1.46 0 00-1.1-.42 1.43 1.43 0 00-1.1.42 1.57 1.57 0 00-.4 1.14zm7.15 3.6V13.32h2.19L34 21v-7.68h2.19v16.57H34v-3.37l-2.56-7.67v11zm8.55-2.52v-3H40v2.15a1.43 1.43 0 00.39 1 1.42 1.42 0 002 0 1.43 1.43 0 00.39-1v-.83a3.26 3.26 0 00-.32-1.52 8.2 8.2 0 00-1.18-1.48l-3.13-3.25V15.6l2.2-2.28h2.08l2.08 2.16v3.37h-2v-2.29a1.4 1.4 0 00-.32-.93 1 1 0 00-.83-.38 1 1 0 00-.84.38 1.4 1.4 0 00-.32.93v.84a2.79 2.79 0 00.34 1.44 9.26 9.26 0 001.28 1.57L45 23.65v3.6l-2.54 2.64h-2.2zm8.67 2.52V13.32h5.67v2h-3.48v4.93h1.85v2h-1.85v5.52h3.7v2zm7.16-2.52V16l2.54-2.64h2.42L61 15.85v3h-2.2v-1.93a1.57 1.57 0 00-.4-1.14 1.65 1.65 0 00-2.2 0 1.57 1.57 0 00-.4 1.14v9.37a1.57 1.57 0 00.4 1.14 1.65 1.65 0 002.2 0 1.57 1.57 0 00.4-1.14v-4.08h-1.14v-1.69h4.5v1.69H61v7.68h-.8l-.68-1.35-1.28 1.35H56zm9.39 0v-14h2.2v13a1.57 1.57 0 00.4 1.14 1.65 1.65 0 002.2 0 1.57 1.57 0 00.4-1.14v-13h2.2v16.52h-.92l-.7-1.68-1.62 1.68h-1.77zm9.1 2.52v-2h1.39V15.36H72.1v-2h5v2h-1.42v12.49h1.39v2zm6.69 0V13.32H81v14.53h3.8v2zm6.82 0v-4.81l1.15-11.76h4.64l1.14 11.76v4.81h-2.07V24.6h-2.78v5.29zm2.3-7.33h2.34l-.71-7.2h-.93zm5.55 4.81v-3h2.2v2.15a1.43 1.43 0 00.39 1 1.33 1.33 0 001 .41 1.34 1.34 0 001-.41 1.43 1.43 0 00.39-1v-.83a3.26 3.26 0 00-.32-1.52 8.2 8.2 0 00-1.18-1.48l-3.13-3.25V15.6L96 13.32h2.08l2.07 2.16v3.37h-2v-2.29a1.4 1.4 0 00-.32-.93 1 1 0 00-.83-.38 1 1 0 00-.84.38 1.35 1.35 0 00-.32.93v.84a2.79 2.79 0 00.34 1.44 9.26 9.26 0 001.28 1.57l3.12 3.24v3.6l-2.54 2.64h-2.2zm11.61 1.87v-4.81l1.15-11.75h4.63L112 24.43v4.81h-2.08V24h-2.78v5.29zm2.3-7.33h2.33l-.7-7.2h-.93zm5.89 4.81V15.31l2.54-2.63h2.43l2.44 2.52v3h-2.2v-1.93a1.61 1.61 0 00-.4-1.14 1.46 1.46 0 00-1.1-.42 1.43 1.43 0 00-1.1.42 1.58 1.58 0 00-.41 1.14v9.37a1.58 1.58 0 00.41 1.14 1.43 1.43 0 001.1.42 1.46 1.46 0 001.1-.42 1.61 1.61 0 00.4-1.14v-1.92h2.2v2.88l-2.55 2.64h-2.43zm8.32 2.52v-4.81l1.15-11.75h4.64l1.15 11.75v4.81h-2.08V24h-2.78v5.29zm2.3-7.33h2.34l-.71-7.2h-.92zm.47-10.2l2.78-3.36h1.39l-2.78 3.36z"/></g></g></svg><svg width="136" height="54" viewBox="-1 -1 136 54" y="190" xmlns="http://www.w3.org/2000/svg"><g data-name="Layer 2"><g data-name="Layer 1" fill="#fff"><path d="M100.37 24.19l.7-2.04-.12 2.03.94.02 1.46-4.25h-.95l-.65 1.86.17-1.87-1.02.01-1.45 4.24h.92zm2.66.03l1.46-4.25-.93-.01-1.46 4.25.93.01z"/><path d="M107.22 26.41l-.16 1h-.46l.42-1c.12-.27.22-.55.33-.82 0 .27-.1.53-.13.8M105.66 24v-2.14l1.32-1.68.07-.07zm4.54.64h-1.07L108 28.85l.33-4.26h-.6l4.62-2.11-4.65 1.31.13-.41h-1l.34-1h.83l.25-.76h-.82l.29-.85h.82l.27-.79h-2.63l-1 1.22.45-1.23h-.94l-1.46 4.24h.94l.62-1.82v1.83H106l-4.41 1.26a2.27 2.27 0 01-2-.12c-1-.85-.23-2.54.06-3a17.36 17.36 0 00-1.45 1.9 3.19 3.19 0 00-.49 3c.76 1.35 2.6.74 3.77.22l5.3-2.42-1.9 3.9H106l.23-.56h.73l-.06.56h2.1z"/><path d="M111.55 26.06c-.07.28-.29.55-.57.54h-.07l.3-1.05c.28 0 .46.12.34.51m-.13-1.46h-1l-1.17 4.32h1.06l.33-1.15c.05-.21.1-.42.16-.64l.11 1.79H112l-.3-1.8a1.48 1.48 0 00.91-1.06c.3-1.15-.28-1.44-1.2-1.46m-11.93 7.02l-.19-.88-.21.88zm-.28-1.18h.19l.45 2h-.18l-.14-.59H99l-.13.59h-.17zm.818 1.984l.003-1.99h.17l-.003 1.99zm1.032-1.064a.26.26 0 00.19-.08.39.39 0 00.06-.27.34.34 0 00-.09-.29.2.2 0 00-.14 0h-.4v.68zm-.55-.91h.57a.35.35 0 01.23.07.5.5 0 01.17.46.68.68 0 010 .3.59.59 0 01-.13.18.32.32 0 01.11.12.76.76 0 010 .25v.56h-.21a.18.18 0 000-.06v-.49a.3.3 0 00-.09-.26.26.26 0 00-.14 0h-.38v.85h-.17zm2.71 0h.87v.25h-.7v.6h.62v.24h-.62v.9h-.17v-1.99zm1.93 1.55a1.55 1.55 0 00.11-.59 1.2 1.2 0 00-.12-.57.35.35 0 00-.31-.21.36.36 0 00-.32.21 1.41 1.41 0 00-.13.63 1.28 1.28 0 00.11.55.35.35 0 00.34.23.32.32 0 00.32-.25m.16-1.27a1.66 1.66 0 01.12.68 1.73 1.73 0 01-.14.73.55.55 0 01-.48.35.49.49 0 01-.45-.3 1.62 1.62 0 01-.15-.74 1.6 1.6 0 01.13-.69.51.51 0 01.48-.37.53.53 0 01.49.34m.89.64a.25.25 0 00.18-.07.41.41 0 00.07-.28.34.34 0 00-.09-.29.21.21 0 00-.14 0h-.4v.68zm-.55-.91h.57a.33.33 0 01.23.07.53.53 0 01.18.47.84.84 0 01-.05.29.46.46 0 01-.13.18.25.25 0 01.11.12.59.59 0 010 .26v.55h-.21a.18.18 0 000-.06 1.18 1.18 0 000-.16v-.33a.3.3 0 00-.09-.26.26.26 0 00-.14 0h-.38v.85h-.17zm2.13.14a.92.92 0 01.14.46h-.16a.8.8 0 00-.11-.31.3.3 0 00-.23-.11.34.34 0 00-.3.21 1.42 1.42 0 00-.11.63 1.35 1.35 0 00.1.57.33.33 0 00.3.21.3.3 0 00.28-.23 1.07 1.07 0 00.08-.31h.16a1.1 1.1 0 01-.14.52.44.44 0 01-.4.26.42.42 0 01-.36-.21 1.5 1.5 0 01-.19-.86 1.43 1.43 0 01.14-.72.48.48 0 01.44-.3.44.44 0 01.36.19m.39-.14l.91.01v.24h-.74v.6h.68v.23h-.69v.67l.76.01v.23h-.92v-1.99zm2.96.25l.07-.01v1.51h-.08l.01.24h.28v-.24h-.07l.01-1.51v-.23h-.22v.24zM0 52V0h18.82v6.41H7.01v16.2h10.33v6.4H7.01V52H0zm39.86-11.3V11.3c0-3-1.84-4.89-4.8-4.89s-4.79 1.88-4.79 4.89v29.4c0 3 1.84 4.89 4.79 4.89s4.8-1.88 4.8-4.89M31 52l-7.75-7.92V8.29L31.38 0h7.74l7.75 7.91v35.8L38.75 52zm39.87-33.16V11.3c0-3-1.84-4.89-4.79-4.89h-4.43v17.33h4.43c3 0 4.79-1.89 4.79-4.9m0 33.16V35.42c0-3-1.47-5.28-4.42-5.28h-4.8V52h-7V0h15.48l7.75 7.91v13.57l-6.64 4.89 6.64 3V52z"/><path d="M92.66 52l-7.75-7.92V8.29L93 0h7.75l7.75 7.91v9.42h-7v-6a4.8 4.8 0 10-9.6 0V40.7a4.8 4.8 0 109.6 0v-6h7v9.05L100.41 52zm22.52 0V0h18.08v6.41h-11.07v15.44h6.94v6.41h-6.94v17.33H134V52h-18.82z"/></g></g></svg><svg width="178" height="145" viewBox="-1 -1 178 145" xmlns="http://www.w3.org/2000/svg"><g data-name="Layer 2"><g data-name="Layer 1"><path d="M33 48.37l8.19-23.23-1.44 23.18 10.9.17L67.58.16 56.52.11l-7.54 21.15L50.96 0 39.18.14 22.37 48.38 33 48.37zm30.89.33L80.79.29 69.97.23 53.08 48.58l10.81.12z"/><path d="M112.39 73.7l-1.74 11.56-5.35-.12 4.88-11.3c1.39-3.09 2.44-6.19 3.72-9.29h.1c-.53 3.08-1.19 6-1.6 9.15m-18-28l-.5-24.29 15.26-19.15.79-.8zm52.6 7.39l-12.47-.16-13.48 48.49 3.84-48.51-7-.1 53.62-24-53.83 14.89 1.51-4.62-11.6.17 3.87-11.61 9.64.18 3-8.65-9.53-.07 3.36-9.61 9.48.09 3.12-9L100 .44 88.86 14.36 94.08.3 83.25.38 66.33 48.6l10.9-.05 7.14-20.67-.06 20.83 14.41.15-51 14.34c-10.36 3-18.74 2.46-23.54-1.41-12.18-9.69-2.72-28.89.67-34.55-6 6.94-12 14.07-16.82 21.55C.66 61-2.57 74 2.36 82.53 11.18 97.84 32.51 91 46 85.06l61.5-27.53-22.07 44.32 12.64-.1 2.68-6.31 8.41.17-.69 6.41h24.73z"/><path d="M162.65 69.64c-.81 3.22-3.36 6.24-6.64 6.14l-.78.08 3.46-12c3.31-.36 5.31 1.41 4 5.82m-1.57-16.56l-12-.12-13.55 49.11 12.33.16 3.76-13.1c.58-2.36 1.18-4.76 1.82-7.32l1.3 20.42h13.28l-3.52-20.51c5.6-1.87 9-6.77 10.61-12.08 3.43-13.12-3.28-16.43-14-16.58M22.68 133l-2.21-10-2.35 10zm-3.21-13.38h2.23l5.22 22.6h-2.17l-1.52-6.77h-5.68L16 142.16h-2zm9.7-.04l-.03 22.6 1.98.04-.01-22.64h-1.94zM40.93 130a3 3 0 002.17-.89 4.68 4.68 0 00.76-3.09c0-1.62-.34-2.72-1.09-3.32a2.47 2.47 0 00-1.57-.47h-4.68V130zm-6.35-10.4h6.57a4.41 4.41 0 012.71.77c1.36 1 2 2.76 2 5.32a8.38 8.38 0 01-.53 3.35 5.71 5.71 0 01-1.49 2.06 3.94 3.94 0 011.25 1.43 7.39 7.39 0 01.51 2.85v3q.06 1.28.15 2a2.14 2.14 0 00.63 1.38v.48H44a3.71 3.71 0 01-.14-.76 13.33 13.33 0 01-.13-1.77l-.09-3.79c-.07-1.47-.4-2.45-1.06-2.93a2.85 2.85 0 00-1.7-.47h-4.33v9.69h-2zm31.43.09H76.1v2.77l-8.12-.01-.01 6.85h7.14l-.01 2.71h-7.17v10.27h-1.98l.06-22.59zm22.38 17.7a18.76 18.76 0 001.18-6.69 13.87 13.87 0 00-1.32-6.47 4.07 4.07 0 00-3.67-2.4 4.17 4.17 0 00-3.69 2.36 14.77 14.77 0 00-1.43 7.14 14.27 14.27 0 001.2 6.34 4.22 4.22 0 004 2.58c1.71 0 3-.94 3.76-2.86m1.75-14.45a17.07 17.07 0 011.39 7.69A18.23 18.23 0 0189.9 139c-1.29 2.61-3.15 4-5.53 3.92a5.73 5.73 0 01-5.24-3.44 18.14 18.14 0 01-1.74-8.42 19.33 19.33 0 011.5-7.84c1.28-2.79 3.1-4.17 5.58-4.16s4.43 1.29 5.67 3.84m10.39 7.19a2.82 2.82 0 002.11-.83 4.68 4.68 0 00.81-3.11c0-1.61-.35-2.73-1.11-3.31a2.31 2.31 0 00-1.55-.44l-4.67-.06v7.75zm-6.36-10.36h6.59a4.65 4.65 0 012.69.77c1.32 1 2 2.79 2 5.35a9.18 9.18 0 01-.55 3.33 4.58 4.58 0 01-1.53 2 3.44 3.44 0 011.29 1.45 7 7 0 01.47 2.87v3a17.09 17.09 0 00.14 1.92c.16.73.31 1.16.66 1.39v.49h-2.42c-.06-.19-.1-.45-.16-.72s-.05-.92-.1-1.83l-.11-3.73c0-1.49-.36-2.5-1-3a3 3 0 00-1.71-.43h-4.37v9.68h-2zm24.68 1.67a10.42 10.42 0 011.63 5.16h-1.93a7.44 7.44 0 00-1.29-3.47 3.19 3.19 0 00-2.67-1.27 3.78 3.78 0 00-3.38 2.34c-.88 1.57-1.31 3.94-1.3 7.2a15.33 15.33 0 001.14 6.48 3.7 3.7 0 003.47 2.41c1.41 0 2.51-.81 3.26-2.58a12.18 12.18 0 00.9-3.57h1.9a13.3 13.3 0 01-1.7 6 5 5 0 01-8.79.53c-1.5-2.11-2.22-5.35-2.22-9.78a17.39 17.39 0 011.68-8.2c1.19-2.32 2.86-3.48 5-3.46a5 5 0 014.26 2.25m4.5-1.66l10.55.04v2.74h-8.6v6.85l7.96.01.01 2.62-7.99-.02-.01 7.68 8.74.03v2.69l-10.64-.04-.02-22.6zm34.34 2.77l.81-.01-.05 17.13-.82-.01.02 2.75 3.32-.03v-2.68l-.84-.03.07-17.13v-2.7l-2.52-.03.01 2.74z"/></g></g></svg><svg width="178" height="145" viewBox="-1 -1 178 145" x="178" xmlns="http://www.w3.org/2000/svg"><g data-name="Layer 2"><g data-name="Layer 1" fill="#fff"><path d="M33 48.37l8.19-23.23-1.44 23.18 10.9.17L67.58.16 56.52.11l-7.54 21.15L50.96 0 39.18.14 22.37 48.38 33 48.37zm30.89.33L80.79.29 69.97.23 53.08 48.58l10.81.12z"/><path d="M112.39 73.7l-1.74 11.56-5.35-.12 4.88-11.3c1.39-3.09 2.44-6.19 3.72-9.29h.1c-.53 3.08-1.19 6-1.6 9.15m-18-28l-.5-24.29 15.26-19.15.79-.8zm52.6 7.39l-12.47-.16-13.48 48.49 3.84-48.51-7-.1 53.62-24-53.83 14.89 1.51-4.62-11.6.17 3.87-11.61 9.64.18 3-8.65-9.53-.07 3.36-9.61 9.48.09 3.12-9L100 .44 88.86 14.36 94.08.3 83.25.38 66.33 48.6l10.9-.05 7.14-20.67-.06 20.83 14.41.15-51 14.34c-10.36 3-18.74 2.46-23.54-1.41-12.18-9.69-2.72-28.89.67-34.55-6 6.94-12 14.07-16.82 21.55C.66 61-2.57 74 2.36 82.53 11.18 97.84 32.51 91 46 85.06l61.5-27.53-22.07 44.32 12.64-.1 2.68-6.31 8.41.17-.69 6.41h24.73z"/><path d="M162.65 69.64c-.81 3.22-3.36 6.24-6.64 6.14l-.78.08 3.46-12c3.31-.36 5.31 1.41 4 5.82m-1.57-16.56l-12-.12-13.55 49.11 12.33.16 3.76-13.1c.58-2.36 1.18-4.76 1.82-7.32l1.3 20.42h13.28l-3.52-20.51c5.6-1.87 9-6.77 10.61-12.08 3.43-13.12-3.28-16.43-14-16.58M22.68 133l-2.21-10-2.35 10zm-3.21-13.38h2.23l5.22 22.6h-2.17l-1.52-6.77h-5.68L16 142.16h-2zm9.7-.04l-.03 22.6 1.98.04-.01-22.64h-1.94zM40.93 130a3 3 0 002.17-.89 4.68 4.68 0 00.76-3.09c0-1.62-.34-2.72-1.09-3.32a2.47 2.47 0 00-1.57-.47h-4.68V130zm-6.35-10.4h6.57a4.41 4.41 0 012.71.77c1.36 1 2 2.76 2 5.32a8.38 8.38 0 01-.53 3.35 5.71 5.71 0 01-1.49 2.06 3.94 3.94 0 011.25 1.43 7.39 7.39 0 01.51 2.85v3q.06 1.28.15 2a2.14 2.14 0 00.63 1.38v.48H44a3.71 3.71 0 01-.14-.76 13.33 13.33 0 01-.13-1.77l-.09-3.79c-.07-1.47-.4-2.45-1.06-2.93a2.85 2.85 0 00-1.7-.47h-4.33v9.69h-2zm31.43.09H76.1v2.77l-8.12-.01-.01 6.85h7.14l-.01 2.71h-7.17v10.27h-1.98l.06-22.59zm22.38 17.7a18.76 18.76 0 001.18-6.69 13.87 13.87 0 00-1.32-6.47 4.07 4.07 0 00-3.67-2.4 4.17 4.17 0 00-3.69 2.36 14.77 14.77 0 00-1.43 7.14 14.27 14.27 0 001.2 6.34 4.22 4.22 0 004 2.58c1.71 0 3-.94 3.76-2.86m1.75-14.45a17.07 17.07 0 011.39 7.69A18.23 18.23 0 0189.9 139c-1.29 2.61-3.15 4-5.53 3.92a5.73 5.73 0 01-5.24-3.44 18.14 18.14 0 01-1.74-8.42 19.33 19.33 0 011.5-7.84c1.28-2.79 3.1-4.17 5.58-4.16s4.43 1.29 5.67 3.84m10.39 7.19a2.82 2.82 0 002.11-.83 4.68 4.68 0 00.81-3.11c0-1.61-.35-2.73-1.11-3.31a2.31 2.31 0 00-1.55-.44l-4.67-.06v7.75zm-6.36-10.36h6.59a4.65 4.65 0 012.69.77c1.32 1 2 2.79 2 5.35a9.18 9.18 0 01-.55 3.33 4.58 4.58 0 01-1.53 2 3.44 3.44 0 011.29 1.45 7 7 0 01.47 2.87v3a17.09 17.09 0 00.14 1.92c.16.73.31 1.16.66 1.39v.49h-2.42c-.06-.19-.1-.45-.16-.72s-.05-.92-.1-1.83l-.11-3.73c0-1.49-.36-2.5-1-3a3 3 0 00-1.71-.43h-4.37v9.68h-2zm24.68 1.67a10.42 10.42 0 011.63 5.16h-1.93a7.44 7.44 0 00-1.29-3.47 3.19 3.19 0 00-2.67-1.27 3.78 3.78 0 00-3.38 2.34c-.88 1.57-1.31 3.94-1.3 7.2a15.33 15.33 0 001.14 6.48 3.7 3.7 0 003.47 2.41c1.41 0 2.51-.81 3.26-2.58a12.18 12.18 0 00.9-3.57h1.9a13.3 13.3 0 01-1.7 6 5 5 0 01-8.79.53c-1.5-2.11-2.22-5.35-2.22-9.78a17.39 17.39 0 011.68-8.2c1.19-2.32 2.86-3.48 5-3.46a5 5 0 014.26 2.25m4.5-1.66l10.55.04v2.74h-8.6v6.85l7.96.01.01 2.62-7.99-.02-.01 7.68 8.74.03v2.69l-10.64-.04-.02-22.6zm34.34 2.77l.81-.01-.05 17.13-.82-.01.02 2.75 3.32-.03v-2.68l-.84-.03.07-17.13v-2.7l-2.52-.03.01 2.74z"/></g></g></svg></svg>