<svg width="130" height="79" xmlns="http://www.w3.org/2000/svg" xmlns:xlink="http://www.w3.org/1999/xlink"><svg width="88" height="30" viewBox="-1 -1 88 30" xmlns="http://www.w3.org/2000/svg"><g data-name="Layer 2"><g data-name="Isolation Mode"><path d="M77.69 0H7.94L0 9.22v9.18L8.31 28h69.75L86 18.82V9.64L77.69 0z"/><path d="M6.86 17.82v-7.43L8.4 8.68h1.47l1.48 1.64v1.95H10V11a1.06 1.06 0 00-.24-.74.82.82 0 00-.66-.26.81.81 0 00-.66.28 1.07 1.07 0 00-.25.74v6.1a1.08 1.08 0 00.25.74.84.84 0 00.66.27.85.85 0 00.67-.27 1.08 1.08 0 00.24-.74v-1.25h1.34v1.88L9.8 19.46H8.33zm5.14 0v-7.43l1.54-1.71h1.47l1.47 1.64v7.43L15 19.46h-1.49zm1.33-.7a1.08 1.08 0 00.24.74.86.86 0 00.67.27.87.87 0 00.67-.27 1.08 1.08 0 00.24-.74V11a1.06 1.06 0 00-.24-.74.85.85 0 00-.67-.28.83.83 0 00-.67.28 1.06 1.06 0 00-.24.74zm4.38 2.34V8.68H19l1.55 5v-5h1.35v10.78h-1.32v-2.19l-1.55-5v7.19zm5.17-1.64v-2h1.33v1.4a1 1 0 00.24.68.83.83 0 001.21 0 1 1 0 00.24-.68v-.54a2.21 2.21 0 00-.2-1 4.8 4.8 0 00-.71-1l-1.9-2.12v-2.5l1.34-1.48h1.25l1.26 1.4v2.19h-1.19v-1.39a.92.92 0 00-.19-.6.64.64 0 00-1 0 .92.92 0 00-.2.6v.55a2 2 0 00.21.94 6.14 6.14 0 00.78 1l1.88 2.11v2.35l-1.54 1.71h-1.34zm5.25 1.64V8.68h3.43V10h-2.1v3.21h1.12v1.33h-1.12v3.59h2.24v1.33zm4.34-1.64v-7.43L34 8.68h1.47L37 10.32v1.95h-1.38V11a1.06 1.06 0 00-.24-.74.85.85 0 00-.67-.28.83.83 0 00-.67.28 1.06 1.06 0 00-.24.74v6.1a1.08 1.08 0 00.24.74.86.86 0 00.67.27.87.87 0 00.67-.27 1.08 1.08 0 00.24-.74v-2.64h-.7v-1.1h2.73v1.1H37v5h-.49l-.41-.88-.78.88h-1.38zm5.66 0V8.68h1.34v8.44a1.08 1.08 0 00.24.74 1 1 0 001.33 0 1 1 0 00.25-.74V8.68h1.33v10.78h-.56l-.43-1.09-1 1.09H39.6zm5.54 1.64v-1.33h.84V10h-.84V8.68h3V10h-.84v8.13h.84v1.33zm4.05 0V8.68h1.33v9.45h2.31v1.33zm4.13 0v-3.13l.69-7.65h2.81l.7 7.65v3.13h-1.26V16h-1.68v3.44zm1.39-4.77h1.42L54.23 10h-.56zm3.36 3.13v-2h1.33v1.4a1 1 0 00.24.68.83.83 0 001.21 0 1 1 0 00.24-.68v-.54a2.21 2.21 0 00-.2-1 4.8 4.8 0 00-.71-1l-1.9-2.12v-2.5l1.34-1.48h1.25l1.26 1.4v2.19h-1.19v-1.39a.92.92 0 00-.19-.6.64.64 0 00-1 0 .92.92 0 00-.2.6v.55a2 2 0 00.21.94 6.14 6.14 0 00.78 1l1.88 2.11v2.35l-1.55 1.73h-1.33zM63.63 19v-3.09l.7-7.66h2.81l.69 7.66V19h-1.26v-3.4h-1.68V19zM65 14.27h1.42L66 9.58h-.56zm3.6 3.13V10l1.53-1.72h1.47l1.48 1.64v2h-1.33V10.6a1.09 1.09 0 00-.24-.75.87.87 0 00-.67-.27.86.86 0 00-.67.27 1.09 1.09 0 00-.24.75v6.1a1.1 1.1 0 00.24.74.86.86 0 00.67.27.87.87 0 00.67-.27 1.1 1.1 0 00.24-.74v-1.26h1.33v1.88L71.54 19h-1.47zm5.04 1.6v-3.09l.69-7.66h2.81l.69 7.66V19h-1.25v-3.4h-1.69V19zM75 14.27h1.41L76 9.58h-.57zm.28-6.64L77 5.44h.84l-1.69 2.19z" fill="#fff"/></g></g></svg><svg width="88" height="30" viewBox="-1 -1 88 30" y="30" xmlns="http://www.w3.org/2000/svg"><g data-name="Layer 2"><g data-name="Isolation Mode"><path fill="#fff" d="M77.69 0H7.94L0 9.22v9.18L8.31 28h69.75L86 18.82V9.64L77.69 0z"/><path d="M6.86 17.82v-7.43L8.4 8.68h1.47l1.48 1.64v1.95H10V11a1.06 1.06 0 00-.24-.74.82.82 0 00-.66-.26.81.81 0 00-.66.28 1.07 1.07 0 00-.25.74v6.1a1.08 1.08 0 00.25.74.84.84 0 00.66.27.85.85 0 00.67-.27 1.08 1.08 0 00.24-.74v-1.25h1.34v1.88L9.8 19.46H8.33zm5.14 0v-7.43l1.54-1.71h1.47l1.47 1.64v7.43L15 19.46h-1.49zm1.33-.7a1.08 1.08 0 00.24.74.86.86 0 00.67.27.87.87 0 00.67-.27 1.08 1.08 0 00.24-.74V11a1.06 1.06 0 00-.24-.74.85.85 0 00-.67-.28.83.83 0 00-.67.28 1.06 1.06 0 00-.24.74zm4.38 2.34V8.68H19l1.55 5v-5h1.35v10.78h-1.32v-2.19l-1.55-5v7.19zm5.17-1.64v-2h1.33v1.4a1 1 0 00.24.68.83.83 0 001.21 0 1 1 0 00.24-.68v-.54a2.21 2.21 0 00-.2-1 4.8 4.8 0 00-.71-1l-1.9-2.12v-2.5l1.34-1.48h1.25l1.26 1.4v2.19h-1.19v-1.39a.92.92 0 00-.19-.6.64.64 0 00-1 0 .92.92 0 00-.2.6v.55a2 2 0 00.21.94 6.14 6.14 0 00.78 1l1.88 2.11v2.35l-1.54 1.71h-1.34zm5.25 1.64V8.68h3.43V10h-2.1v3.21h1.12v1.33h-1.12v3.59h2.24v1.33zm4.34-1.64v-7.43L34 8.68h1.47L37 10.32v1.95h-1.38V11a1.06 1.06 0 00-.24-.74.85.85 0 00-.67-.28.83.83 0 00-.67.28 1.06 1.06 0 00-.24.74v6.1a1.08 1.08 0 00.24.74.86.86 0 00.67.27.87.87 0 00.67-.27 1.08 1.08 0 00.24-.74v-2.64h-.7v-1.1h2.73v1.1H37v5h-.49l-.41-.88-.78.88h-1.38zm5.66 0V8.68h1.34v8.44a1.08 1.08 0 00.24.74 1 1 0 001.33 0 1 1 0 00.25-.74V8.68h1.33v10.78h-.56l-.43-1.09-1 1.09H39.6zm5.54 1.64v-1.33h.84V10h-.84V8.68h3V10h-.84v8.13h.84v1.33zm4.05 0V8.68h1.33v9.45h2.31v1.33zm4.13 0v-3.13l.69-7.65h2.81l.7 7.65v3.13h-1.26V16h-1.68v3.44zm1.39-4.77h1.42L54.23 10h-.56zm3.36 3.13v-2h1.33v1.4a1 1 0 00.24.68.83.83 0 001.21 0 1 1 0 00.24-.68v-.54a2.21 2.21 0 00-.2-1 4.8 4.8 0 00-.71-1l-1.9-2.12v-2.5l1.34-1.48h1.25l1.26 1.4v2.19h-1.19v-1.39a.92.92 0 00-.19-.6.64.64 0 00-1 0 .92.92 0 00-.2.6v.55a2 2 0 00.21.94 6.14 6.14 0 00.78 1l1.88 2.11v2.35l-1.55 1.73h-1.33zM63.63 19v-3.09l.7-7.66h2.81l.69 7.66V19h-1.26v-3.4h-1.68V19zM65 14.27h1.42L66 9.58h-.56zm3.6 3.13V10l1.53-1.72h1.47l1.48 1.64v2h-1.33V10.6a1.09 1.09 0 00-.24-.75.87.87 0 00-.67-.27.86.86 0 00-.67.27 1.09 1.09 0 00-.24.75v6.1a1.1 1.1 0 00.24.74.86.86 0 00.67.27.87.87 0 00.67-.27 1.1 1.1 0 00.24-.74v-1.26h1.33v1.88L71.54 19h-1.47zm5.04 1.6v-3.09l.69-7.66h2.81l.69 7.66V19h-1.25v-3.4h-1.69V19zM75 14.27h1.41L76 9.58h-.57zm.28-6.64L77 5.44h.84l-1.69 2.19z"/></g></g></svg><svg width="47" height="19" viewBox="-1 -1 47 19" y="60" xmlns="http://www.w3.org/2000/svg"><g data-name="Layer 2"><g data-name="Layer 1" fill="#fff"><path d="M33.7 7.91l.24-.67-.04.67h.32l.49-1.39h-.32l-.22.61.06-.61h-.35l-.48 1.39h.3zm.9.01l.49-1.39h-.31l-.49 1.38.31.01z"/><path d="M36 8.64V9h-.2l.14-.32.11-.27v.27m-.53-.81v-.7l.44-.55zM37 8h-.36l-.39 1.39.12-1.39h-.2l1.55-.69-1.56.42V7.6h-.33l.17-.29h.28l.08-.25h-.27l.09-.28h.28l.09-.25h-.88l-.33.4.15-.4h-.31l-.49 1.38H35l.2-.59v.6h.42l-1.48.41a.76.76 0 01-.68 0c-.35-.27-.08-.83 0-1a5.54 5.54 0 00-.49.62 1 1 0 00-.16 1c.25.44.87.24 1.26.07l1.78-.79-.64 1.27h.37l.08-.18h.24v.19h.72z"/><path d="M37.46 8.52a.22.22 0 01-.19.18l.1-.35c.09 0 .15 0 .11.17m0-.48h-.35l-.39 1.41H37l.11-.38a1.6 1.6 0 000-.21v.59h.39l-.11-.59a.49.49 0 00.31-.35c.1-.38-.09-.47-.4-.48m-3.89 2.31l-.07-.29-.07.29zm-.1-.39h.07l.15.65h-.06v-.19h-.16v.19h-.06zm.282.646l.001-.65h.06v.65zm.348-.346H34a.2.2 0 000-.09.13.13 0 000-.1h-.18v.22zm-.19-.3h.19A.11.11 0 0134 10a.16.16 0 01.06.15.3.3 0 010 .1v.05a.13.13 0 010 .08v.14H34v-.26h-.12v.27h-.06zm.91.01h.29v.08h-.23v.19h.2v.08h-.2v.3h-.06v-.65zm.65.5a.54.54 0 000-.19.45.45 0 000-.18.12.12 0 00-.22 0 .46.46 0 000 .2.34.34 0 000 .18.12.12 0 00.11.08.11.11 0 00.11-.09m0-.41a.48.48 0 010 .22.43.43 0 010 .24.15.15 0 01-.16.11.18.18 0 01-.15-.09.62.62 0 010-.25.72.72 0 010-.22.18.18 0 01.17-.12.18.18 0 01.16.11m.33.21h.06a.12.12 0 000-.09v-.09h-.14v.23zm-.18-.3h.27a.21.21 0 010 .15.31.31 0 010 .1v.06a.45.45 0 010 .08v.14h-.07v-.27h-.18v.28h-.05zm.71.04a.24.24 0 01.05.14h-.06a.17.17 0 000-.1.11.11 0 00-.08 0 .12.12 0 00-.1.06.56.56 0 000 .21.36.36 0 000 .19.11.11 0 00.1.07s.07 0 .09-.08a.62.62 0 000-.1h.05a.29.29 0 01-.05.17.14.14 0 01-.13.09.19.19 0 01-.12-.07.52.52 0 01-.07-.28.54.54 0 01.05-.24.17.17 0 01.15-.1.13.13 0 01.12.07m.13-.07h.31v.08h-.25v.2h.23v.07h-.23v.22h.25v.08h-.31v-.65zm1 .08h.02v.49h-.03v.08h.1v-.08h-.02v-.57h-.07v.08zM0 17V0h6.32v2.09H2.35v5.3h3.47v2.09H2.35V17H0zm13.39-3.7V3.7a1.5 1.5 0 00-1.61-1.61 1.49 1.49 0 00-1.61 1.61v9.6a1.49 1.49 0 001.61 1.61 1.5 1.5 0 001.61-1.61m-3 3.7l-2.6-2.59V2.71L10.54 0h2.6l2.6 2.59v11.7L13 17zM23.8 6.16V3.7a1.5 1.5 0 00-1.61-1.61H20.7v5.67h1.49a1.49 1.49 0 001.61-1.6m0 10.84v-5.42c0-1-.5-1.73-1.49-1.73H20.7V17h-2.35V0h5.2l2.6 2.59V7l-2.22 1.6 2.22 1V17z"/><path d="M31.12 17l-2.61-2.59V2.71L31.24 0h2.6l2.61 2.59v3.08h-2.36v-2a1.61 1.61 0 10-3.22 0v9.6a1.61 1.61 0 003.22 0v-2h2.36v3L33.72 17zm7.56 0V0h6.07v2.09h-3.72v5.05h2.33v2.1h-2.33v5.67H45V17h-6.32z"/></g></g></svg><svg width="42" height="35" viewBox="-1 -1 42 35" x="88" xmlns="http://www.w3.org/2000/svg"><g data-name="Layer 2"><g data-name="Layer 1"><path d="M7.5 11.16L9.36 5.8l-.32 5.35 2.47.04L15.36.04 12.85.03l-1.72 4.88.45-4.91L8.9.03 5.08 11.16H7.5zm7.02.08L18.36.07 15.9.05l-3.84 11.16 2.46.03z"/><path d="M25.54 17l-.39 2.66h-1.22L25 17c.32-.71.56-1.43.85-2.14-.12.71-.27 1.38-.37 2.11m-4.08-6.46l-.12-5.61L24.81.52 25 .34zm12 1.7h-2.84L27.52 23.4l.87-11.19h-1.58L39 6.64l-12.25 3.45.34-1.09h-2.64l.88-2.68h2.19l.67-2H26l.76-2.22h2.16l.7-2.07-6.9.07-2.53 3.21L21.38.07h-2.46l-3.84 11.14h2.47l1.62-4.77v4.81h3.28l-11.62 3.34c-2.35.68-4.26.56-5.35-.33-2.75-2.24-.6-6.67.17-8a42.42 42.42 0 00-3.82 5C.15 14.07-.59 17.09.54 19.05c2 3.53 6.85 1.94 9.92.58l14-6.35-5 10.22h2.88l.56-1.5h1.91l-.16 1.48h5.63z"/><path d="M37 16.07a1.71 1.71 0 01-1.51 1.42h-.18l.79-2.78c.75-.09 1.2.32.9 1.34m-.36-3.82h-2.73L30.8 23.55h2.8l.86-3c.13-.55.26-1.1.41-1.69l.3 4.71h3l-.8-4.74a3.93 3.93 0 002.41-2.78c.78-3-.74-3.8-3.18-3.83M5.15 30.68l-.5-2.31-.53 2.3zm-.73-3.09h.51l1.19 5.21h-.49l-.35-1.56H4l-.36 1.56h-.46zm2.21.01l-.01 5.21.45.01V27.6h-.44zM9.3 30a.69.69 0 00.5-.2 1.19 1.19 0 00.17-.72.94.94 0 00-.25-.76.52.52 0 00-.36-.11H8.3V30zm-1.44-2.4h1.49a1 1 0 01.62.18 1.42 1.42 0 01.45 1.22 2.11 2.11 0 01-.12.77 1.43 1.43 0 01-.34.48.8.8 0 01.28.33 1.59 1.59 0 01.12.65v1.15a.48.48 0 00.14.32v.11H10a.4.4 0 010-.17 1.82 1.82 0 010-.41v-.88a.91.91 0 00-.24-.67.65.65 0 00-.39-.11h-1v2.24h-.52zm7.14.02h2.3v.64h-1.85v1.58h1.62v.62h-1.63v2.37h-.45l.01-5.21zm5.09 4.09a4.46 4.46 0 00.27-1.55 3.34 3.34 0 00-.3-1.49.92.92 0 00-.84-.55 1 1 0 00-.84.54 3.47 3.47 0 00-.32 1.65 3.26 3.26 0 00.27 1.46 1 1 0 00.9.6.91.91 0 00.86-.66m.4-3.34a4.06 4.06 0 01.31 1.78 4.31 4.31 0 01-.37 1.94 1.35 1.35 0 01-1.25.9A1.31 1.31 0 0118 32.2a4.28 4.28 0 01-.39-2 4.41 4.41 0 01.34-1.8 1.35 1.35 0 012.56-.08M22.85 30a.66.66 0 00.48-.19 1.1 1.1 0 00.18-.72.89.89 0 00-.25-.76.5.5 0 00-.35-.1h-1.06V30zm-1.45-2.37h1.5a1 1 0 01.61.18A1.45 1.45 0 0124 29a2.09 2.09 0 01-.13.77 1.08 1.08 0 01-.34.47.91.91 0 01.29.33 1.73 1.73 0 01.11.67V32a3.76 3.76 0 000 .44c0 .17.07.27.15.32v.12h-.55a.85.85 0 010-.17v-1.28a.86.86 0 00-.23-.69.67.67 0 00-.39-.1h-1v2.24h-.45zM27 28a2.46 2.46 0 01.37 1.2h-.44a1.76 1.76 0 00-.29-.81.75.75 0 00-.61-.29.86.86 0 00-.76.54 3.41 3.41 0 00-.3 1.66 3.61 3.61 0 00.26 1.5.84.84 0 00.79.56c.32 0 .57-.19.74-.6A2.66 2.66 0 0027 31h.43a3 3 0 01-.43 1.32 1.12 1.12 0 01-2 .12 4 4 0 01-.5-2.25 4 4 0 01.38-1.9A1.23 1.23 0 0126 27.5a1.15 1.15 0 011 .5m1.02-.36l2.4.01v.63h-1.95v1.58l1.81.01v.6h-1.82v1.77l1.99.01v.62l-2.42-.01-.01-5.22zm7.81.64h.18L36 32.23h-.19l.01.63h.75v-.62l-.19-.01.02-3.95v-.62l-.57-.01v.63z"/></g></g></svg><svg width="42" height="35" viewBox="-1 -1 42 35" x="88" y="35" xmlns="http://www.w3.org/2000/svg"><g data-name="Layer 2"><g data-name="Layer 1" fill="#fff"><path d="M7.5 11.16L9.36 5.8l-.32 5.35 2.47.04L15.36.04 12.85.03l-1.72 4.88.45-4.91L8.9.03 5.08 11.16H7.5zm7.02.08L18.36.07 15.9.05l-3.84 11.16 2.46.03z"/><path d="M25.54 17l-.39 2.66h-1.22L25 17c.32-.71.56-1.43.85-2.14-.12.71-.27 1.38-.37 2.11m-4.08-6.46l-.12-5.61L24.81.52 25 .34zm12 1.7h-2.84L27.52 23.4l.87-11.19h-1.58L39 6.64l-12.25 3.45.34-1.09h-2.64l.88-2.68h2.19l.67-2H26l.76-2.22h2.16l.7-2.07-6.9.07-2.53 3.21L21.38.07h-2.46l-3.84 11.14h2.47l1.62-4.77v4.81h3.28l-11.62 3.34c-2.35.68-4.26.56-5.35-.33-2.75-2.24-.6-6.67.17-8a42.42 42.42 0 00-3.82 5C.15 14.07-.59 17.09.54 19.05c2 3.53 6.85 1.94 9.92.58l14-6.35-5 10.22h2.88l.56-1.5h1.91l-.16 1.48h5.63z"/><path d="M37 16.07a1.71 1.71 0 01-1.51 1.42h-.18l.79-2.78c.75-.09 1.2.32.9 1.34m-.36-3.82h-2.73L30.8 23.55h2.8l.86-3c.13-.55.26-1.1.41-1.69l.3 4.71h3l-.8-4.74a3.93 3.93 0 002.41-2.78c.78-3-.74-3.8-3.18-3.83M5.15 30.68l-.5-2.31-.53 2.3zm-.73-3.09h.51l1.19 5.21h-.49l-.35-1.56H4l-.36 1.56h-.46zm2.21.01l-.01 5.21.45.01V27.6h-.44zM9.3 30a.69.69 0 00.5-.2 1.19 1.19 0 00.17-.72.94.94 0 00-.25-.76.52.52 0 00-.36-.11H8.3V30zm-1.44-2.4h1.49a1 1 0 01.62.18 1.42 1.42 0 01.45 1.22 2.11 2.11 0 01-.12.77 1.43 1.43 0 01-.34.48.8.8 0 01.28.33 1.59 1.59 0 01.12.65v1.15a.48.48 0 00.14.32v.11H10a.4.4 0 010-.17 1.82 1.82 0 010-.41v-.88a.91.91 0 00-.24-.67.65.65 0 00-.39-.11h-1v2.24h-.52zm7.14.02h2.3v.64h-1.85v1.58h1.62v.62h-1.63v2.37h-.45l.01-5.21zm5.09 4.09a4.46 4.46 0 00.27-1.55 3.34 3.34 0 00-.3-1.49.92.92 0 00-.84-.55 1 1 0 00-.84.54 3.47 3.47 0 00-.32 1.65 3.26 3.26 0 00.27 1.46 1 1 0 00.9.6.91.91 0 00.86-.66m.4-3.34a4.06 4.06 0 01.31 1.78 4.31 4.31 0 01-.37 1.94 1.35 1.35 0 01-1.25.9A1.31 1.31 0 0118 32.2a4.28 4.28 0 01-.39-2 4.41 4.41 0 01.34-1.8 1.35 1.35 0 012.56-.08M22.85 30a.66.66 0 00.48-.19 1.1 1.1 0 00.18-.72.89.89 0 00-.25-.76.5.5 0 00-.35-.1h-1.06V30zm-1.45-2.37h1.5a1 1 0 01.61.18A1.45 1.45 0 0124 29a2.09 2.09 0 01-.13.77 1.08 1.08 0 01-.34.47.91.91 0 01.29.33 1.73 1.73 0 01.11.67V32a3.76 3.76 0 000 .44c0 .17.07.27.15.32v.12h-.55a.85.85 0 010-.17v-1.28a.86.86 0 00-.23-.69.67.67 0 00-.39-.1h-1v2.24h-.45zM27 28a2.46 2.46 0 01.37 1.2h-.44a1.76 1.76 0 00-.29-.81.75.75 0 00-.61-.29.86.86 0 00-.76.54 3.41 3.41 0 00-.3 1.66 3.61 3.61 0 00.26 1.5.84.84 0 00.79.56c.32 0 .57-.19.74-.6A2.66 2.66 0 0027 31h.43a3 3 0 01-.43 1.32 1.12 1.12 0 01-2 .12 4 4 0 01-.5-2.25 4 4 0 01.38-1.9A1.23 1.23 0 0126 27.5a1.15 1.15 0 011 .5m1.02-.36l2.4.01v.63h-1.95v1.58l1.81.01v.6h-1.82v1.77l1.99.01v.62l-2.42-.01-.01-5.22zm7.81.64h.18L36 32.23h-.19l.01.63h.75v-.62l-.19-.01.02-3.95v-.62l-.57-.01v.63z"/></g></g></svg></svg>