<svg width="358" height="244" xmlns="http://www.w3.org/2000/svg" xmlns:xlink="http://www.w3.org/1999/xlink"><svg y="145" viewBox="-1 -1 144 45" width="144" height="45" xmlns="http://www.w3.org/2000/svg"><path d="M128.3 0H13.1L0 14.2v14.1L13.7 43h115.2L142 28.9V14.8z"/><path d="M17 27.4V16.5l2.3-2.5h2.2l2.2 2.4v2.9h-2v-1.9c0-.8-.6-1.5-1.4-1.5-.8 0-1.4.7-1.4 1.5v8.9c0 .4.1.8.4 1.1.6.5 1.4.5 2 0 .3-.3.4-.7.4-1.1v-1.8h2v2.7l-2.3 2.5h-2.3L17 27.4zm7.8 0V16.5l2.3-2.5h2.2l2.3 2.4v10.8l-2.3 2.5H27l-2.2-2.3zm2-1.1c0 .4.1.8.4 1.1.3.3.6.4 1 .4s.7-.1 1-.4c.3-.3.4-.7.4-1.1v-8.9c0-.4-.1-.8-.4-1.1-.3-.3-.6-.4-1-.4s-.7.1-1 .4c-.3.3-.4.7-.4 1.1v8.9zm6.6 3.5V14h2l2.3 7.3V14h2v15.8h-2v-3.2l-2.3-7.3v10.5h-2zm7.9-2.4v-2.8h2v2c0 .4.1.7.4 1 .5.5 1.3.6 1.8 0 .3-.3.4-.6.4-1v-.8c0-.5-.1-1-.3-1.5-.3-.5-.7-1-1.1-1.4l-2.8-3.1v-3.7l2-2.2h1.9l1.9 2v3.2h-1.8v-2.2c0-.3-.1-.6-.3-.9-.4-.5-1-.5-1.5-.1 0 0 0 .1-.1.1-.2.2-.3.6-.3.9v.8c0 .5.1 1 .3 1.4.3.5.7 1 1.2 1.4l2.8 3.1V27l-2.3 2.5h-2l-2.2-2.1zm7.9 2.4V14h5.2v2h-3.2v4.7H53v1.9h-1.7v5.2h3.4v1.9h-5.5zm6.6-2.4V16.5l2.3-2.5h2.2l2.2 2.4v2.9h-2v-1.9c0-.4-.1-.8-.4-1.1-.3-.3-.6-.4-1-.4s-.7.1-1 .4c-.2.3-.4.7-.3 1.1v8.9c0 .4.1.8.4 1.1.3.3.6.4 1 .4s.7-.1 1-.4c.2-.3.4-.7.4-1.1v-3.9h-1.1v-1.6h4.1v1.6h-1.1v7.3h-.8l-.6-1.3-1.1 1.4h-2l-2.2-2.4zm8.6 0V14h2v12.3c0 .4.1.8.4 1.1.6.5 1.4.5 2 0 .3-.3.4-.7.4-1.1V14h2v15.8h-.8l-.6-1.6-1.5 1.6h-1.6l-2.3-2.4zm8.4 2.4v-1.9h1.3V16h-1.3v-2h4.6v2h-1.3v11.9h1.3v1.9h-4.6zm6.2 0V14h2v13.8h3.5v1.9H79zm6.2 0v-4.6L86.3 14h4.3l1.1 11.2v4.6h-1.9v-5h-2.5v5h-2.1zm2.1-7h2.2l-.6-6.8H88l-.7 6.8zm5.1 4.6v-2.8h2v2c0 .8.6 1.4 1.3 1.4.7 0 1.3-.6 1.3-1.4v-.8c0-.5-.1-1-.3-1.5-.3-.5-.7-1-1.1-1.4l-2.9-3.1v-3.7l2-2.2h1.9l1.9 2v3.2h-1.8v-2.2c0-.3-.1-.6-.3-.9-.4-.5-1-.5-1.4-.1l-.1.1c-.2.2-.3.6-.3.9v.8c0 .5.1 1 .3 1.4.3.5.7 1 1.2 1.4l2.9 3.1V27l-2.3 2.5h-2l-2.3-2.1zm11.1 2.4v-4.6l1.1-11.2h4.3l1 11.2v4.6H108v-5h-2.6v5h-1.9zm2.1-7h2.1l-.6-6.8h-.8l-.7 6.8zm5.4 4.6V16.5l2.3-2.5h2.2l2.2 2.4v2.9h-2v-1.9c0-.8-.6-1.5-1.4-1.5-.8 0-1.4.7-1.4 1.5v8.9c0 .4.1.8.4 1.1.6.5 1.4.5 2 0 .3-.3.4-.7.4-1.1v-1.8h2v2.7l-2.3 2.5h-2.2l-2.2-2.3zm7.7 2.4v-4.6l1-11.2h4.3l1 11.2v4.6h-1.9v-5h-2.6v5h-1.8zm2.1-7h2.2l-.7-6.8h-.8l-.7 6.8zm.4-9.7l2.6-3.2h1.3l-2.6 3.2h-1.3z" fill="#fff"/></svg><svg x="144" y="145" viewBox="-1 -1 144 45" width="144" height="45" xmlns="http://www.w3.org/2000/svg"><path d="M128.3 0H13.1L0 14.2v14.1L13.7 43h115.2L142 28.9V14.8z" fill="#fff"/><path d="M17 27.4V16.5l2.3-2.5h2.2l2.2 2.4v2.9h-2v-1.9c0-.8-.6-1.5-1.4-1.5-.8 0-1.4.7-1.4 1.5v8.9c0 .4.1.8.4 1.1.6.5 1.4.5 2 0 .3-.3.4-.7.4-1.1v-1.8h2v2.7l-2.3 2.5h-2.3L17 27.4zm7.8 0V16.5l2.3-2.5h2.2l2.3 2.4v10.8l-2.3 2.5H27l-2.2-2.3zm2-1.1c0 .4.1.8.4 1.1.3.3.6.4 1 .4s.7-.1 1-.4c.3-.3.4-.7.4-1.1v-8.9c0-.4-.1-.8-.4-1.1-.3-.3-.6-.4-1-.4s-.7.1-1 .4c-.3.3-.4.7-.4 1.1v8.9zm6.6 3.5V14h2l2.3 7.3V14h2v15.8h-2v-3.2l-2.3-7.3v10.5h-2zm7.9-2.4v-2.8h2v2c0 .4.1.7.4 1 .5.5 1.3.6 1.8 0 .3-.3.4-.6.4-1v-.8c0-.5-.1-1-.3-1.5-.3-.5-.7-1-1.1-1.4l-2.8-3.1v-3.7l2-2.2h1.9l1.9 2v3.2h-1.8v-2.2c0-.3-.1-.6-.3-.9-.4-.5-1-.5-1.5-.1 0 0 0 .1-.1.1-.2.2-.3.6-.3.9v.8c0 .5.1 1 .3 1.4.3.5.7 1 1.2 1.4l2.8 3.1V27l-2.3 2.5h-2l-2.2-2.1zm7.9 2.4V14h5.2v2h-3.2v4.7H53v1.9h-1.7v5.2h3.4v1.9h-5.5zm6.6-2.4V16.5l2.3-2.5h2.2l2.2 2.4v2.9h-2v-1.9c0-.4-.1-.8-.4-1.1-.3-.3-.6-.4-1-.4s-.7.1-1 .4c-.2.3-.4.7-.3 1.1v8.9c0 .4.1.8.4 1.1.3.3.6.4 1 .4s.7-.1 1-.4c.2-.3.4-.7.4-1.1v-3.9h-1.1v-1.6h4.1v1.6h-1.1v7.3h-.8l-.6-1.3-1.1 1.4h-2l-2.2-2.4zm8.6 0V14h2v12.3c0 .4.1.8.4 1.1.6.5 1.4.5 2 0 .3-.3.4-.7.4-1.1V14h2v15.8h-.8l-.6-1.6-1.5 1.6h-1.6l-2.3-2.4zm8.4 2.4v-1.9h1.3V16h-1.3v-2h4.6v2h-1.3v11.9h1.3v1.9h-4.6zm6.2 0V14h2v13.8h3.5v1.9H79zm6.2 0v-4.6L86.3 14h4.3l1.1 11.2v4.6h-1.9v-5h-2.5v5h-2.1zm2.1-7h2.2l-.6-6.8H88l-.7 6.8zm5.1 4.6v-2.8h2v2c0 .8.6 1.4 1.3 1.4.7 0 1.3-.6 1.3-1.4v-.8c0-.5-.1-1-.3-1.5-.3-.5-.7-1-1.1-1.4l-2.9-3.1v-3.7l2-2.2h1.9l1.9 2v3.2h-1.8v-2.2c0-.3-.1-.6-.3-.9-.4-.5-1-.5-1.4-.1l-.1.1c-.2.2-.3.6-.3.9v.8c0 .5.1 1 .3 1.4.3.5.7 1 1.2 1.4l2.9 3.1V27l-2.3 2.5h-2l-2.3-2.1zm11.1 2.4v-4.6l1.1-11.2h4.3l1 11.2v4.6H108v-5h-2.6v5h-1.9zm2.1-7h2.1l-.6-6.8h-.8l-.7 6.8zm5.4 4.6V16.5l2.3-2.5h2.2l2.2 2.4v2.9h-2v-1.9c0-.8-.6-1.5-1.4-1.5-.8 0-1.4.7-1.4 1.5v8.9c0 .4.1.8.4 1.1.6.5 1.4.5 2 0 .3-.3.4-.7.4-1.1v-1.8h2v2.7l-2.3 2.5h-2.2l-2.2-2.3zm7.7 2.4v-4.6l1-11.2h4.3l1 11.2v4.6h-1.9v-5h-2.6v5h-1.8zm2.1-7h2.2l-.7-6.8h-.8l-.7 6.8zm.4-9.7l2.6-3.2h1.3l-2.6 3.2h-1.3z"/></svg><svg y="190" viewBox="-1 -1 136 54" width="136" height="54" xmlns="http://www.w3.org/2000/svg"><path d="M99.4 24.2l1.5-4.2h1l-.2 1.9.6-1.9h1l-1.5 4.2h-1l.1-2-.7 2h-.8zm3.6 0l1.5-4.3h-.9l-1.5 4.2.9.1zm4.2 2.2c0-.3.1-.5.1-.8-.1.3-.2.5-.3.8l-.4 1h.5l.1-1M107 20l-1.4 1.7v2.1L107 20zm2 8.9h-2.1l.1-.6h-.7l-.2.6H105l1.9-3.9-5.3 2.4c-1.2.5-3 1.1-3.8-.2-.4-.7-.1-1.9.5-3 .4-.7.9-1.3 1.5-1.9-.3.5-1.1 2.2-.1 3 .6.4 1.4.4 2 .1l4.4-1.3h-1.2v-1.8l-.6 1.8h-.9l1.5-4.2h.9l-.5 1.2 1-1.2h2.6l-.3.8h-.8l-.3.8h.8l-.2.8h-.8l-.3 1h1l-.1.4 4.6-1.3-4.6 2.1h.6l-.3 4.3 1.2-4.3h1.1l-1.5 4.4zm2.6-2.9c.1-.4-.1-.5-.3-.5l-.3 1.1h.1c.2 0 .4-.3.5-.6m-.2-1.4c.9 0 1.5.3 1.2 1.5-.1.5-.5.9-.9 1.1l.3 1.8h-1.2l-.1-1.8c-.1.2-.1.4-.2.6l-.3 1.1h-1.1l1.2-4.3h1.1m-12.3 7l.2-.9.2.9h-.4zm-.4.9h.2l.1-.6h.5l.1.6h.2l-.4-2h-.2l-.5 2zm1.3-2v2h.2v-2h-.2zm.7.9v-.7h.5c.1.1.1.2.1.3 0 .1 0 .2-.1.3 0 .1-.1.1-.2.1h-.3zm-.2 1.1h.2v-.8h.5c.1.1.1.2.1.3v.6h.2s0-.1-.1-.1v-.8c0-.1-.1-.1-.1-.1.1-.1.1-.1.1-.2s.1-.2 0-.3c0-.2 0-.4-.2-.5-.1 0-.1-.1-.2-.1h-.6l.1 2zm2.7 0h.2v-.9h.6v-.2h-.6v-.6h.7v-.2h-.8l-.1 1.9zm1.9-.5c0 .1-.2.2-.3.3-.1 0-.3-.1-.3-.2-.1-.2-.1-.4-.1-.6 0-.2 0-.4.1-.6.1-.1.2-.2.3-.2.1 0 .3.1.3.2.1.2.1.4.1.6 0 .1 0 .3-.1.5m.2-1.2c-.1-.2-.3-.3-.5-.3s-.4.2-.5.4c-.1.2-.1.5-.1.7 0 .3 0 .5.1.7.1.2.3.3.5.3s.4-.1.5-.3c.1-.2.2-.5.1-.7 0-.4 0-.6-.1-.8m.5.6v-.7h.5c.1.1.1.2.1.3 0 .1 0 .2-.1.3 0 .1-.1.1-.2.1h-.3zm-.2 1.1h.2v-.8h.5c.1.1.1.2.1.3v.6h.3s0-.1-.1-.1v-.8c0-.1-.1-.1-.1-.1.1 0 .1-.1.1-.2v-.3c0-.2 0-.3-.2-.5-.1 0-.1-.1-.2-.1h-.6v2zm2.2-1.9c-.1-.1-.2-.2-.4-.2s-.4.1-.4.3c-.1.2-.2.5-.1.7 0 .3 0 .6.2.8.1.1.2.2.4.2s.3-.1.4-.3c.1-.2.1-.3.1-.5h-.2c0 .1 0 .2-.1.3-.1.2-.2.2-.3.2-.1 0-.3-.1-.3-.2-.1-.2-.1-.4-.1-.6 0-.2 0-.4.1-.6 0-.1.2-.2.3-.2.1 0 .2 0 .2.1.1.1.1.2.1.3h.2s0-.2-.1-.3m.4 1.8h.9v-.2h-.7v-.7h.7v-.2h-.7v-.6h.7v-.2h-.9v1.9zm2.9-1.7l.1 1.5h-.1v.2h.3v-.2h-.1v-1.7h-.2v.2zM7 52V29h10.4v-6.4H7V6.4h11.8V0H0v52h7zm32.9-11.3c0 3-1.8 4.9-4.8 4.9s-4.8-1.9-4.8-4.9V11.3c0-3 1.8-4.9 4.8-4.9s4.8 1.9 4.8 4.9v29.4M38.8 52l8.1-8.3V7.9L39.1 0h-7.8l-8.1 8.3v35.8L31 52h7.8zm32.1-33.2c0 3-1.8 4.9-4.8 4.9h-4.4V6.4h4.4c3 0 4.8 1.9 4.8 4.9v7.5m7 33.2V29.4l-6.6-3 6.6-4.9V7.9L70.1 0H54.6v52h7V30.1h4.8c3 0 4.4 2.3 4.4 5.3V52h7.1zm22.5 0l8.1-8.3v-9h-7v6c0 3-1.8 4.9-4.8 4.9s-4.8-1.9-4.8-4.9V11.3c0-3 1.8-4.9 4.8-4.9s4.8 1.9 4.8 4.9v6h7V7.9L100.8 0H93l-8.1 8.3v35.8l7.7 7.9h7.8zm33.6 0v-6.4h-11.8V28.3h6.9v-6.4h-6.9V6.4h11.1V0h-18.1v52H134z" fill="#fff"/></svg><svg viewBox="-1 -1 179 145" width="179" height="145" xmlns="http://www.w3.org/2000/svg"><path d="M22.5 48.4L39.4.1 51.3 0l-2 21.3L56.9.2H68L51 48.5l-11-.2 1.4-23.2-8.2 23.3H22.5zm41.8.3L81.3.3 70.4.2l-17 48.3 10.9.2zm48.7 25c.4-3.2 1.1-6.1 1.6-9.1h-.1c-1.3 3.1-2.3 6.2-3.7 9.3l-4.9 11.3 5.4.1 1.7-11.6m-2.4-72.2l-.8.8-15.4 19.1.5 24.3 15.7-44.2zM134 102h-24.8l.7-6.4-8.5-.2-2.7 6.3-12.7.1 22.2-44.3L46.3 85c-13.6 5.9-35 12.8-43.9-2.5-5-8.5-1.7-21.6 5.7-33.7C13 41.3 18.9 34.2 25 27.2c-3.4 5.7-12.9 24.9-.7 34.5 4.9 3.9 13.3 4.4 23.7 1.4l51.3-14.3-14.5-.1V27.9l-7.2 20.7h-11L83.6.4 94.5.3l-5.3 14.1L100.4.5l30.7.2-3.1 9-9.5-.1-3.4 9.6 9.6.1-2.9 8.7-9.7-.2-3.9 11.6 11.7-.2-1.5 4.6 54.2-14.9-53.9 24 7 .1-3.9 48.5L135.3 53l12.6.2L134 102zm29.6-32.4c1.4-4.4-.7-6.2-4-5.8l-3.5 12 .8-.1c3.3.2 5.8-2.9 6.7-6.1M162 53.1c10.8.1 17.6 3.5 14.1 16.6-1.6 5.3-5 10.2-10.7 12.1l3.5 20.5h-13.4l-1.3-20.4c-.6 2.6-1.2 5-1.8 7.3l-3.8 13.1-12.4-.2L149.9 53l12.1.1M18.2 132.9l2.4-10 2.2 10h-4.6zm-4.1 9.2H16l1.6-6.8h5.7l1.5 6.8H27l-5.3-22.6h-2.2l-5.4 22.6zm15.2-22.6v22.6h2v-22.6h-2zm7.4 10.4v-7.8h4.7c.6 0 1.1.1 1.6.5.8.6 1.1 1.7 1.1 3.3.1 1.1-.2 2.2-.8 3.1-.6.6-1.4.9-2.2.9h-4.4zm-1.9 12.3h1.9v-9.7H41c.6 0 1.2.1 1.7.5.7.5 1 1.5 1.1 2.9l.1 3.8c0 .6 0 1.2.1 1.8 0 .3.1.5.1.8h2.5v-.5c-.4-.4-.6-.9-.6-1.4-.1-.5-.1-1.1-.1-1.9v-3c0-1-.2-1.9-.5-2.8-.3-.6-.7-1.1-1.3-1.4.6-.6 1.2-1.3 1.5-2.1.4-1.1.6-2.2.5-3.3 0-2.6-.6-4.4-1.9-5.3-.8-.5-1.7-.8-2.7-.8h-6.7v22.4zm31.6 0h2V132h7.2v-2.7h-7.2v-6.8h8.2v-2.8H66.4v22.5zm22.5-4.8c-.8 1.9-2.1 2.9-3.8 2.9-1.8 0-3.4-1-4-2.6-.9-2-1.3-4.2-1.2-6.3 0-3.1.5-5.5 1.4-7.1.7-1.4 2.1-2.3 3.7-2.4 1.6 0 3 .9 3.7 2.4 1 2 1.4 4.2 1.3 6.5.1 2.2-.3 4.5-1.1 6.6m1.7-14.5c-1.2-2.5-3.1-3.9-5.7-3.9s-4.3 1.4-5.6 4.2c-1.1 2.5-1.6 5.1-1.5 7.8-.1 2.9.5 5.8 1.8 8.4.9 2.1 3 3.4 5.3 3.4 2.4 0 4.3-1.3 5.6-3.9 1.2-2.6 1.8-5.5 1.6-8.4.1-2.5-.4-5.1-1.5-7.6m6 7.2v-7.8l4.7.1c.6 0 1.1.1 1.6.4.8.6 1.2 1.7 1.1 3.3.1 1.1-.2 2.2-.8 3.1-.6.6-1.3.9-2.1.8l-4.5.1zm-2 12.2h1.9v-9.7h4.4c.6 0 1.2.1 1.7.4.6.5 1 1.5 1 3l.1 3.7c0 .9.1 1.5.1 1.8s.1.5.2.7h2.4v-.5c-.4-.2-.5-.7-.7-1.4-.1-.4-.1-1.1-.1-1.9v-3c.1-1-.1-2-.5-2.9-.3-.6-.7-1.1-1.3-1.5.7-.5 1.2-1.2 1.5-2 .4-1.1.6-2.2.6-3.3 0-2.6-.7-4.4-2-5.4-.8-.5-1.7-.8-2.7-.8h-6.6v22.8zm24.9-20.9c-1-1.4-2.6-2.3-4.3-2.2-2.2 0-3.9 1.1-5.1 3.5-1.2 2.6-1.8 5.4-1.7 8.2 0 4.4.7 7.7 2.2 9.8 1.4 2.4 4.5 3.1 6.9 1.7.9-.5 1.6-1.3 2-2.2 1-1.8 1.6-3.9 1.7-6h-1.9c-.1 1.2-.4 2.4-.9 3.6-.8 1.8-1.9 2.6-3.3 2.6-1.6 0-2.9-1-3.5-2.4-.8-2.1-1.2-4.3-1.1-6.5 0-3.3.4-5.6 1.3-7.2.6-1.4 1.9-2.3 3.4-2.3 1.1 0 2.1.4 2.7 1.3.7 1 1.2 2.2 1.3 3.5h1.9c-.1-2.1-.6-3.9-1.6-5.4m4.5 21h10.7v-2.7h-8.8V132h8v-2.6h-8v-6.8h8.6v-2.7H124v22.5zm34.5-19.9h.8v17.1h-.8v2.7h3.3v-2.7h-.8l.1-17.1v-2.7h-2.5l-.1 2.7z"/></svg><svg x="179" viewBox="-1 -1 179 145" width="179" height="145" xmlns="http://www.w3.org/2000/svg"><path d="M22.5 48.4L39.4.1 51.2 0l-2 21.3L56.8.2h11.1l-17 48.3-11-.2 1.4-23.2-8.2 23.3H22.5zm41.8.3L81.3.3 70.4.2l-17 48.3 10.9.2zm48.7 25c.4-3.2 1.1-6.1 1.6-9.1h-.1c-1.3 3.1-2.3 6.2-3.7 9.3l-4.9 11.3 5.4.1 1.7-11.6m-2.4-72.2l-.8.8-15.4 19.1.5 24.3 15.7-44.2zM134 102h-24.8l.7-6.4-8.5-.2-2.7 6.3-12.7.1 22.2-44.3L46.3 85c-13.6 5.9-35 12.8-43.9-2.5-5-8.5-1.7-21.6 5.7-33.7C13 41.3 18.9 34.2 25 27.2c-3.4 5.7-12.9 24.9-.7 34.5 4.9 3.9 13.3 4.4 23.7 1.4l51.3-14.3-14.5-.1V27.9l-7.2 20.7h-11L83.6.4 94.5.3l-5.3 14.1L100.4.5l30.7.2-3.1 9-9.5-.1-3.4 9.6 9.6.1-2.9 8.7-9.7-.2-3.9 11.6 11.7-.2-1.5 4.6 54.2-14.9-53.9 24 7 .1-3.9 48.5L135.3 53l12.6.2L134 102zm29.6-32.4c1.4-4.4-.7-6.2-4-5.8l-3.5 12 .8-.1c3.3.2 5.8-2.9 6.7-6.1M162 53.1c10.8.1 17.6 3.5 14.1 16.6-1.6 5.3-5 10.2-10.7 12.1l3.5 20.5h-13.4l-1.3-20.4c-.6 2.6-1.2 5-1.8 7.3l-3.8 13.1-12.4-.2L149.9 53l12.1.1M18.2 132.9l2.4-10 2.2 10h-4.6zm-4.1 9.2H16l1.6-6.8h5.7l1.5 6.8H27l-5.3-22.6h-2.2l-5.4 22.6zm15.2-22.6v22.6h2v-22.6h-2zm7.4 10.4v-7.8h4.7c.6 0 1.1.1 1.6.5.8.6 1.1 1.7 1.1 3.3.1 1.1-.2 2.2-.8 3.1-.6.6-1.4.9-2.2.9h-4.4zm-1.9 12.3h1.9v-9.7H41c.6 0 1.2.1 1.7.5.7.5 1 1.5 1.1 2.9l.1 3.8c0 .6 0 1.2.1 1.8 0 .3.1.5.1.8h2.5v-.5c-.4-.4-.6-.9-.6-1.4-.1-.5-.1-1.1-.1-1.9v-3c0-1-.2-1.9-.5-2.8-.3-.6-.7-1.1-1.3-1.4.6-.6 1.2-1.3 1.5-2.1.4-1.1.6-2.2.5-3.3 0-2.6-.6-4.4-1.9-5.3-.8-.5-1.7-.8-2.7-.8h-6.7v22.4zm31.6 0h2V132h7.2v-2.7h-7.2v-6.8h8.2v-2.8H66.4v22.5zm22.5-4.8c-.8 1.9-2.1 2.9-3.8 2.9-1.8 0-3.4-1-4-2.6-.9-2-1.3-4.2-1.2-6.3 0-3.1.5-5.5 1.4-7.1.7-1.4 2.1-2.3 3.7-2.4 1.6 0 3 .9 3.7 2.4 1 2 1.4 4.2 1.3 6.5.1 2.2-.3 4.5-1.1 6.6m1.7-14.5c-1.2-2.5-3.1-3.9-5.7-3.9s-4.3 1.4-5.6 4.2c-1.1 2.5-1.6 5.1-1.5 7.8-.1 2.9.5 5.8 1.8 8.4.9 2.1 3 3.4 5.3 3.4 2.4 0 4.3-1.3 5.6-3.9 1.2-2.6 1.8-5.5 1.6-8.4.1-2.5-.4-5.1-1.5-7.6m6 7.2v-7.8l4.7.1c.6 0 1.1.1 1.6.4.8.6 1.2 1.7 1.1 3.3.1 1.1-.2 2.2-.8 3.1-.6.6-1.3.9-2.1.8l-4.5.1zm-2 12.2h1.9v-9.7h4.4c.6 0 1.2.1 1.7.4.6.5 1 1.5 1 3l.1 3.7c0 .9.1 1.5.1 1.8 0 .3.1.5.2.7h2.4v-.5c-.4-.2-.5-.7-.7-1.4-.1-.4-.1-1.1-.1-1.9v-3c.1-1-.1-2-.5-2.9-.3-.6-.7-1.1-1.3-1.5.7-.5 1.2-1.2 1.5-2 .4-1.1.6-2.2.6-3.3 0-2.6-.7-4.4-2-5.4-.8-.5-1.7-.8-2.7-.8h-6.6v22.8zm24.9-20.9c-1-1.4-2.6-2.3-4.3-2.2-2.2 0-3.9 1.1-5.1 3.5-1.2 2.6-1.8 5.4-1.7 8.2 0 4.4.7 7.7 2.2 9.8 1.4 2.4 4.5 3.1 6.9 1.7.9-.5 1.6-1.3 2-2.2 1-1.8 1.6-3.9 1.7-6h-1.9c-.1 1.2-.4 2.4-.9 3.6-.8 1.8-1.9 2.6-3.3 2.6-1.6 0-2.9-1-3.5-2.4-.8-2.1-1.2-4.3-1.1-6.5 0-3.3.4-5.6 1.3-7.2.6-1.4 1.9-2.3 3.4-2.3 1.1 0 2.1.4 2.7 1.3.7 1 1.2 2.2 1.3 3.5h1.9c-.1-2.1-.6-3.9-1.6-5.4m4.5 21h10.7v-2.7h-8.8V132h8v-2.6h-8v-6.8h8.6v-2.7H124v22.5zm34.5-19.9h.8v17.1h-.8v2.7h3.3v-2.7h-.8l.1-17.1v-2.7h-2.5l-.1 2.7z" fill="#fff"/></svg></svg>