<svg width="196" height="159" xmlns="http://www.w3.org/2000/svg" xmlns:xlink="http://www.w3.org/1999/xlink"><svg width="90" height="39" viewBox="-1 -1 90 39" x="98" y="81" xmlns="http://www.w3.org/2000/svg"><g data-name="Layer 2"><g data-name="Isolation Mode"><path d="M79.49 0H8.13L0 12.18v12.13L8.51 37h71.36L88 24.87V12.74L79.49 0z"/><path d="M11.81 17V9.43l1.79-1.75h1.7L17 9.35v2h-1.53v-1.28a1 1 0 00-.28-.76 1.21 1.21 0 00-1.55 0 1 1 0 00-.28.76v6.21a1 1 0 00.28.75 1.21 1.21 0 001.55 0 1 1 0 00.28-.75V15H17v1.91l-1.79 1.75h-1.69zm6.01 0V9.43l1.79-1.75h1.7L23 9.35v7.56l-1.8 1.75h-1.7zm1.55-.71a1 1 0 00.28.75 1.21 1.21 0 001.55 0 1 1 0 00.28-.75v-6.22a1 1 0 00-.28-.76 1.21 1.21 0 00-1.55 0 1 1 0 00-.28.76zm5.03 2.37v-11h1.54l1.79 5.09V7.68h1.54v11h-1.54v-2.25l-1.79-5.09v7.32zM30.41 17v-2H32v1.43a.93.93 0 00.27.69 1 1 0 00.7.27.94.94 0 00.7-.27.9.9 0 00.28-.69v-.55a2 2 0 00-.23-1 5.05 5.05 0 00-.83-1l-2.2-2.15V9.19l1.51-1.51h1.46l1.46 1.43v2.23h-1.38V9.82a.84.84 0 00-.23-.61.74.74 0 00-.58-.21.77.77 0 00-.59.26.89.89 0 00-.23.61v.56a1.72 1.72 0 00.25 1 6.13 6.13 0 00.9 1l2.19 2.16v2.38l-1.79 1.75h-1.55zm6.09 1.66v-11h4V9H38v3.3h1.3v1.35H38v3.66h2.61v1.35zM41.53 17V9.43l1.79-1.75H45l1.71 1.67v2h-1.52v-1.28a1 1 0 00-.28-.76 1 1 0 00-.77-.31 1.05 1.05 0 00-.78.28 1 1 0 00-.28.76v6.21a1 1 0 001.06 1 1 1 0 00.77-.28 1 1 0 00.28-.75v-2.65h-.81v-1.12h3.17v1.12h-.81v5.09h-.57l-.48-.89-.9.89h-1.55zm6.58 0V7.68h1.55v8.6a1 1 0 001.06 1 1 1 0 00.77-.28 1 1 0 00.28-.75V7.68h1.55v11h-.65l-.49-1.11L51 18.66h-1.18zm6.43 1.66v-1.35h1V9h-1V7.68H58V9h-1v8.28h1v1.35zm4.7 0v-11h1.54v9.63h2.68v1.35zm4.76 0v-3.18l.8-7.8h3.3l.81 7.8v3.18h-1.46v-3.5h-2v3.5zm1.61-4.85h1.64L66.8 9h-.65zM69.55 17v-2h1.55v1.43a.93.93 0 00.27.69 1 1 0 00.71.27 1 1 0 00.7-.27.93.93 0 00.27-.69v-.55a2 2 0 00-.22-1 5.44 5.44 0 00-.83-1l-2.2-2.15V9.19l1.55-1.51h1.46l1.46 1.43v2.23h-1.39V9.82a.88.88 0 00-.22-.61.79.79 0 00-1.17 0 .84.84 0 00-.23.61v.56a1.8 1.8 0 00.24 1 6.13 6.13 0 00.9 1l2.19 2.16v2.38l-1.78 1.75h-1.55zM37.09 32.85v-3.18l.81-7.8h3.26l.81 7.8v3.18h-1.46v-3.5h-2v3.5zM38.71 28h1.64l-.49-4.77h-.66zm4.15 3.18v-7.56l1.78-1.75h1.71l1.71 1.67v2h-1.55v-1.28a1 1 0 00-.28-.76 1 1 0 00-.77-.28 1.05 1.05 0 00-.78.28 1 1 0 00-.28.76v6.21a1 1 0 001.06 1 1 1 0 00.77-.28 1 1 0 00.28-.75v-1.25h1.55v1.91l-1.79 1.75h-1.71zm5.85 1.67v-3.18l.8-7.8h3.26l.81 7.8v3.18h-1.46v-3.5h-1.95v3.5zM50.32 28H52l-.49-4.77h-.65zm.33-6.76l2-2.23h1l-1.95 2.23z" fill="#fff"/></g></g></svg><svg width="90" height="39" viewBox="-1 -1 90 39" y="120" xmlns="http://www.w3.org/2000/svg"><g data-name="Layer 2"><g data-name="Isolation Mode"><path fill="#fff" d="M79.49 0H8.13L0 12.18v12.13L8.51 37h71.36L88 24.87V12.74L79.49 0z"/><path d="M11.81 17V9.43l1.79-1.75h1.7L17 9.35v2h-1.53v-1.28a1 1 0 00-.28-.76 1.21 1.21 0 00-1.55 0 1 1 0 00-.28.76v6.21a1 1 0 00.28.75 1.21 1.21 0 001.55 0 1 1 0 00.28-.75V15H17v1.91l-1.79 1.75h-1.69zm6.01 0V9.43l1.79-1.75h1.7L23 9.35v7.56l-1.8 1.75h-1.7zm1.55-.71a1 1 0 00.28.75 1.21 1.21 0 001.55 0 1 1 0 00.28-.75v-6.22a1 1 0 00-.28-.76 1.21 1.21 0 00-1.55 0 1 1 0 00-.28.76zm5.03 2.37v-11h1.54l1.79 5.09V7.68h1.54v11h-1.54v-2.25l-1.79-5.09v7.32zM30.41 17v-2H32v1.43a.93.93 0 00.27.69 1 1 0 00.7.27.94.94 0 00.7-.27.9.9 0 00.28-.69v-.55a2 2 0 00-.23-1 5.05 5.05 0 00-.83-1l-2.2-2.15V9.19l1.51-1.51h1.46l1.46 1.43v2.23h-1.38V9.82a.84.84 0 00-.23-.61.74.74 0 00-.58-.21.77.77 0 00-.59.26.89.89 0 00-.23.61v.56a1.72 1.72 0 00.25 1 6.13 6.13 0 00.9 1l2.19 2.16v2.38l-1.79 1.75h-1.55zm6.09 1.66v-11h4V9H38v3.3h1.3v1.35H38v3.66h2.61v1.35zM41.53 17V9.43l1.79-1.75H45l1.71 1.67v2h-1.52v-1.28a1 1 0 00-.28-.76 1 1 0 00-.77-.31 1.05 1.05 0 00-.78.28 1 1 0 00-.28.76v6.21a1 1 0 001.06 1 1 1 0 00.77-.28 1 1 0 00.28-.75v-2.65h-.81v-1.12h3.17v1.12h-.81v5.09h-.57l-.48-.89-.9.89h-1.55zm6.58 0V7.68h1.55v8.6a1 1 0 001.06 1 1 1 0 00.77-.28 1 1 0 00.28-.75V7.68h1.55v11h-.65l-.49-1.11L51 18.66h-1.18zm6.43 1.66v-1.35h1V9h-1V7.68H58V9h-1v8.28h1v1.35zm4.7 0v-11h1.54v9.63h2.68v1.35zm4.76 0v-3.18l.8-7.8h3.3l.81 7.8v3.18h-1.46v-3.5h-2v3.5zm1.61-4.85h1.64L66.8 9h-.65zM69.55 17v-2h1.55v1.43a.93.93 0 00.27.69 1 1 0 00.71.27 1 1 0 00.7-.27.93.93 0 00.27-.69v-.55a2 2 0 00-.22-1 5.44 5.44 0 00-.83-1l-2.2-2.15V9.19l1.55-1.51h1.46l1.46 1.43v2.23h-1.39V9.82a.88.88 0 00-.22-.61.79.79 0 00-1.17 0 .84.84 0 00-.23.61v.56a1.8 1.8 0 00.24 1 6.13 6.13 0 00.9 1l2.19 2.16v2.38l-1.78 1.75h-1.55zM37.09 32.85v-3.18l.81-7.8h3.26l.81 7.8v3.18h-1.46v-3.5h-2v3.5zM38.71 28h1.64l-.49-4.77h-.66zm4.15 3.18v-7.56l1.78-1.75h1.71l1.71 1.67v2h-1.55v-1.28a1 1 0 00-.28-.76 1 1 0 00-.77-.28 1.05 1.05 0 00-.78.28 1 1 0 00-.28.76v6.21a1 1 0 001.06 1 1 1 0 00.77-.28 1 1 0 00.28-.75v-1.25h1.55v1.91l-1.79 1.75h-1.71zm5.85 1.67v-3.18l.8-7.8h3.26l.81 7.8v3.18h-1.46v-3.5h-1.95v3.5zM50.32 28H52l-.49-4.77h-.65zm.33-6.76l2-2.23h1l-1.95 2.23z"/></g></g></svg><svg viewBox="-1 -1 98 39" width="98" height="39" xmlns="http://www.w3.org/2000/svg"><path d="M71.2 17.2l1-3h.8l-.1 1.3.5-1.3h.7l-1 3h-.7l.1-1.5-.5 1.5h-.8zm2.6 0l1-3h-.7l-1 3h.7zm3 1.6c0-.2.1-.4.1-.6-.1.2-.1.4-.2.6l-.3.7h.3l.1-.7m-.1-4.5l-1 1.2V17l1-2.7zm1.4 6.2h-1.5v-.4h-.5l-.2.4h-.8l1.4-2.8-3.8 1.7c-.8.4-2.2.8-2.7-.2-.3-.5-.1-1.3.3-2.1.3-.5.7-.9 1-1.3-.2.4-.8 1.6 0 2.2.4.3 1 .3 1.5.1l3.2-.9h-.9v-1.3l-.4 1.3H74l1-3h.7l-.3.9.7-.9H78l-.2.6h-.6l-.2.6h.6l-.2.5h-.6l-.2.7h.7l-.1.3 3.3-.9-3.3 1.5h.4l-.2 3 .8-3h.8l-.9 3zm1.8-2c.1-.3 0-.4-.2-.4l-.2.8c.2 0 .4-.2.4-.4m-.1-1c.7 0 1.1.2.9 1-.1.3-.3.6-.7.8l.2 1.3h-.8l-.1-1.3c0 .2-.1.3-.1.5l-.2.8h-.8l.8-3.1h.8m-8.8 5l.1-.6.1.6H71zm-.3.6h.1l.1-.4h.3l.1.4h.1l-.3-1.4H71l-.3 1.4zm1-1.4v1.4h.1v-1.4h-.1zm.4.6v-.5h.4c.1.1.1.1.1.2v.2l-.1.1h-.4zm-.1.8h.1v-.6h.4s.1.1.1.2v.4h.1v-.6s0-.1-.1-.1l.1-.1v-.2c0-.1 0-.2-.1-.3H72v1.3zm1.9 0h.1v-.7h.4v-.2H74v-.4h.5v-.2H74l-.1 1.5zm1.4-.3c0 .1-.1.2-.2.2s-.2-.1-.2-.2c-.1-.1-.1-.3-.1-.4 0-.2 0-.3.1-.4 0-.1.1-.1.2-.1s.2.1.2.1c.1.1.1.3.1.4 0 .1 0 .3-.1.4m.1-.9c-.1-.1-.2-.2-.3-.2-.2 0-.3.1-.3.3-.1.2-.1.3-.1.5s0 .4.1.5c.1.1.2.2.3.2.2 0 .3-.1.3-.2.1-.2.1-.3.1-.5 0-.3 0-.5-.1-.6m.4.4v-.5h.4c.1.1.1.1.1.2s0 .1-.1.2l-.1.1h-.3zm-.1.8h.1v-.6h.4c.1 0 .1.1.1.2v.3h.2v-.6s0-.1-.1-.1l.1-.1V22c0-.1 0-.2-.1-.3 0 0-.1-.1-.2 0h-.4l-.1 1.4zm1.5-1.3c-.1-.1-.2-.1-.3-.1-.1 0-.3.1-.3.2-.1.2-.1.3-.1.5s0 .4.1.6c.1.1.2.2.3.1.1 0 .2-.1.3-.2.1-.1.1-.2.1-.4h-.1c0 .1 0 .2-.1.2 0 .1-.1.2-.2.2s-.2-.1-.2-.2c-.1-.1-.1-.3-.1-.4 0-.2 0-.3.1-.4 0-.1.1-.1.2-.1h.3c-.1.2 0 .2 0 .3h.1c0-.1 0-.2-.1-.3m.3 1.3h.7v-.2h-.5v-.5h.5v-.2h-.5v-.4h.5v-.2h-.7v1.5zm2.1-1.3v1.1h-.1v.2h.2v-.2h-.1v-1.3h-.2l.2.2zM5 37V20.6h7.4v-4.5H5V4.6h8.5V0H0v37h5zm23.6-8c0 2.1-1.3 3.5-3.4 3.5s-3.4-1.3-3.4-3.5V8.1c0-2.1 1.3-3.5 3.4-3.5s3.4 1.3 3.4 3.5V29m-.8 8l5.8-5.9V5.6L28 0h-5.6l-5.8 5.9v25.5l5.5 5.6h5.7zm23-23.6c0 2.1-1.3 3.5-3.4 3.5h-3.2V4.6h3.2c2.1 0 3.4 1.3 3.4 3.5v5.3m5 23.6V20.9l-4.7-2.1 4.7-3.5V5.6L50.2 0H39.1v37h5V21.4h3.4c2.1 0 3.2 1.6 3.2 3.8V37h5.1zm16.1 0l5.8-5.9v-6.4h-5V29c0 2.1-1.3 3.5-3.4 3.5s-3.4-1.3-3.4-3.5V8.1c0-2.1 1.3-3.5 3.4-3.5s3.4 1.3 3.4 3.5v4.3h5V5.6L72.2 0h-5.6l-5.8 5.9v25.5l5.5 5.6h5.6zM96 37v-4.6h-8.5V20.1h5v-4.6h-5v-11h7.9V0h-13v37H96z" fill="#fff"/></svg><svg viewBox="-1 -1 98 81" width="98" height="81" y="39" xmlns="http://www.w3.org/2000/svg"><path d="M12.2 26.7L21.4.1l6.4-.1-1.1 11.7L30.8 0h6l-9.2 26.7-5.9-.1.8-12.8L18 26.7h-5.8zm22.6.2L44 .2h-5.9L29 26.8l5.8.1zm26.5 13.8c.2-1.7.6-3.4.9-5.1-.7 1.7-1.3 3.4-2 5.1L57.5 47l2.9.1.9-6.4M60 .8l-.4.4-8.3 10.6.3 13.4L60 .8zm12.7 55.6H59.1l.4-3.5-4.5-.2-1.5 3.5-6.9.1 12-24.5L25.1 47c-7.4 3.3-19 7.1-23.8-1.4C-1.4 40.9.4 33.7 4.4 27c2.6-4.1 5.9-8.1 9.2-11.9-1.8 3.1-7 13.7-.4 19.1 2.6 2.1 7.2 2.4 12.8.8l27.9-8-7.9-.1V15.4l-3.9 11.4h-5.9L45.4.2h5.9L48.5 8 54.6.3l16.6.1-1.7 5h-5.2l-1.8 5.3h5.2l-1.6 4.8-5.3-.1-2.1 6.4 6.3-.1-.8 2.5L93.6 16 64.4 29.2h3.8L66 56l7.3-26.8 6.8.1-7.4 27.1zm16-17.9c.7-2.4-.4-3.4-2.2-3.2l-1.9 6.6h.4c1.9 0 3.3-1.7 3.7-3.4m-.8-9.2c5.9.1 9.5 1.9 7.6 9.2-.9 2.9-2.7 5.6-5.8 6.7l1.9 11.3h-7.2l-.7-11.2c-.3 1.4-.7 2.7-1 4l-2.1 7.2-6.7-.1 7.4-27.1h6.6m-78 44.1l1.3-5.5 1.2 5.5H9.9zm-2.3 5.1h1.1l.9-3.7h3.1l.8 3.7h1.2L11.8 66h-1.2l-3 12.5zM15.9 66v12.5H17V66h-1.1zm4 5.8v-4.3h2.5c.3 0 .6.1.9.3.4.3.6.9.6 1.8.1.6-.1 1.2-.4 1.7-.3.3-.7.5-1.2.5h-2.4zm-1 6.7H20v-5.4h2.4c.3 0 .7.1.9.3.4.3.5.8.6 1.6v2.1c0 .3 0 .7.1 1 0 .1 0 .3.1.4h1.3v-.3c-.2-.2-.3-.5-.3-.8 0-.3-.1-.6-.1-1.1v-1.7c0-.5-.1-1.1-.3-1.6-.2-.3-.4-.6-.7-.8.3-.3.6-.7.8-1.1.2-.6.3-1.2.3-1.8 0-1.4-.3-2.4-1.1-2.9-.4-.3-.9-.5-1.5-.4h-3.7l.1 12.5zm17.1.1h1.1v-5.7H41v-1.5h-3.9v-3.8h4.4v-1.5H36v12.5zm12.2-2.7c-.4 1.1-1.1 1.6-2 1.6-1 0-1.8-.5-2.2-1.4-.5-1.1-.7-2.3-.7-3.5 0-1.7.3-3 .8-3.9.4-.8 1.2-1.3 2-1.3.9 0 1.6.5 2 1.3.5 1.1.8 2.3.7 3.6.1 1.2-.2 2.4-.6 3.6m1-8c-.7-1.4-1.7-2.1-3.1-2.1s-2.3.8-3 2.3c-.6 1.4-.9 2.8-.8 4.3-.1 1.6.3 3.2.9 4.7.5 1.2 1.6 1.9 2.9 1.9 1.3 0 2.3-.7 3-2.1.7-1.5 1-3 .9-4.6 0-1.6-.3-3-.8-4.4m3.2 4v-4.3h2.5c.3 0 .6.1.8.2.4.3.6.9.6 1.8.1.6-.1 1.2-.4 1.7-.3.3-.7.5-1.1.5l-2.4.1zm-1.1 6.7h1.1v-5.4h2.4c.3 0 .7.1.9.2.3.3.5.8.5 1.7l.1 2.1c0 .5 0 .8.1 1 0 .2.1.3.1.4h1.3v-.3c-.2-.1-.3-.4-.4-.8 0-.2-.1-.6-.1-1.1v-1.7c0-.5-.1-1.1-.3-1.6-.2-.3-.4-.6-.7-.8.4-.3.7-.7.8-1.1.2-.6.3-1.2.3-1.8 0-1.4-.4-2.4-1.1-3-.4-.3-.9-.4-1.5-.4h-3.6l.1 12.6zm13.5-11.5c-.5-.8-1.4-1.3-2.3-1.2-1.2 0-2.1.6-2.7 1.9-.7 1.4-1 3-.9 4.5 0 2.4.4 4.2 1.2 5.4.8 1.3 2.4 1.7 3.7.9.5-.3.8-.7 1.1-1.2.6-1 .9-2.1.9-3.3h-1.1c-.1.7-.2 1.3-.5 2-.4 1-1 1.5-1.8 1.4-.8 0-1.6-.5-1.9-1.3-.5-1.1-.7-2.4-.6-3.6 0-1.8.2-3.1.7-4 .3-.8 1-1.3 1.8-1.3.6 0 1.1.2 1.5.7.4.6.6 1.2.7 1.9h1.1c-.1-1-.4-2-.9-2.8m2.4 11.5H73v-1.5h-4.7v-4.2h4.4v-1.5h-4.3v-3.8H73v-1.5h-5.8v12.5zM86 67.7h.4v9.5H86v1.5h1.8v-1.5h-.5v-11H86v1.5z"/></svg><svg x="98" viewBox="-1 -1 98 81" width="98" height="81" xmlns="http://www.w3.org/2000/svg"><path d="M12.2 26.7L21.4.1l6.4-.1-1.1 11.7L30.8 0h6l-9.2 26.7-5.9-.1.8-12.8L18 26.7h-5.8zm22.6.2L44 .2h-5.9L29 26.8l5.8.1zm26.5 13.8c.2-1.7.6-3.4.9-5.1-.7 1.7-1.3 3.4-2 5.1L57.5 47l2.9.1.9-6.4M60 .8l-.4.4-8.3 10.6.3 13.4L60 .8zm12.7 55.6H59.1l.4-3.5-4.5-.2-1.5 3.5-6.9.1 12-24.5L25.1 47c-7.4 3.3-19 7.1-23.8-1.4C-1.4 40.9.4 33.7 4.4 27c2.6-4.1 5.9-8.1 9.2-11.9-1.8 3.1-7 13.7-.4 19.1 2.6 2.1 7.2 2.4 12.8.8l27.9-8-7.9-.1V15.4l-3.9 11.4h-5.9L45.4.2h5.9L48.5 8 54.6.3l16.6.1-1.7 5h-5.2l-1.8 5.3h5.2l-1.6 4.8-5.3-.1-2.1 6.4 6.3-.1-.8 2.5L93.6 16 64.4 29.2h3.8L66 56l7.3-26.8 6.8.1-7.4 27.1zm16-17.9c.7-2.4-.4-3.4-2.2-3.2l-1.9 6.6h.4c1.9 0 3.3-1.7 3.7-3.4m-.8-9.2c5.9.1 9.5 1.9 7.6 9.2-.9 2.9-2.7 5.6-5.8 6.7l1.9 11.3h-7.2l-.7-11.2c-.3 1.4-.7 2.7-1 4l-2.1 7.2-6.7-.1 7.4-27.1h6.6m-78 44.1l1.3-5.5 1.2 5.5H9.9zm-2.3 5.1h1.1l.9-3.7h3.1l.8 3.7h1.2L11.8 66h-1.2l-3 12.5zM15.9 66v12.5H17V66h-1.1zm4 5.8v-4.3h2.5c.3 0 .6.1.9.3.4.3.6.9.6 1.8.1.6-.1 1.2-.4 1.7-.3.3-.7.5-1.2.5h-2.4zm-1 6.7H20v-5.4h2.4c.3 0 .7.1.9.3.4.3.5.8.6 1.6v2.1c0 .3 0 .7.1 1 0 .1 0 .3.1.4h1.3v-.3c-.2-.2-.3-.5-.3-.8 0-.3-.1-.6-.1-1.1v-1.7c0-.5-.1-1.1-.3-1.6-.2-.3-.4-.6-.7-.8.3-.3.6-.7.8-1.1.2-.6.3-1.2.3-1.8 0-1.4-.3-2.4-1.1-2.9-.4-.3-.9-.5-1.5-.4h-3.7l.1 12.5zm17.1.1h1.1v-5.7H41v-1.5h-3.9v-3.8h4.4v-1.5H36v12.5zm12.2-2.7c-.4 1.1-1.1 1.6-2 1.6-1 0-1.8-.5-2.2-1.4-.5-1.1-.7-2.3-.7-3.5 0-1.7.3-3 .8-3.9.4-.8 1.2-1.3 2-1.3.9 0 1.6.5 2 1.3.5 1.1.8 2.3.7 3.6.1 1.2-.2 2.4-.6 3.6m1-8c-.7-1.4-1.7-2.1-3.1-2.1s-2.3.8-3 2.3c-.6 1.4-.9 2.8-.8 4.3-.1 1.6.3 3.2.9 4.7.5 1.2 1.6 1.9 2.9 1.9 1.3 0 2.3-.7 3-2.1.7-1.5 1-3 .9-4.6 0-1.6-.3-3-.8-4.4m3.2 4v-4.3h2.5c.3 0 .6.1.8.2.4.3.6.9.6 1.8.1.6-.1 1.2-.4 1.7-.3.3-.7.5-1.1.5l-2.4.1zm-1.1 6.7h1.1v-5.4h2.4c.3 0 .7.1.9.2.3.3.5.8.5 1.7l.1 2.1c0 .5 0 .8.1 1 0 .2.1.3.1.4h1.3v-.3c-.2-.1-.3-.4-.4-.8 0-.2-.1-.6-.1-1.1v-1.7c0-.5-.1-1.1-.3-1.6-.2-.3-.4-.6-.7-.8.4-.3.7-.7.8-1.1.2-.6.3-1.2.3-1.8 0-1.4-.4-2.4-1.1-3-.4-.3-.9-.4-1.5-.4h-3.6l.1 12.6zm13.5-11.5c-.5-.8-1.4-1.3-2.3-1.2-1.2 0-2.1.6-2.7 1.9-.7 1.4-1 3-.9 4.5 0 2.4.4 4.2 1.2 5.4.8 1.3 2.4 1.7 3.7.9.5-.3.8-.7 1.1-1.2.6-1 .9-2.1.9-3.3h-1.1c-.1.7-.2 1.3-.5 2-.4 1-1 1.5-1.8 1.4-.8 0-1.6-.5-1.9-1.3-.5-1.1-.7-2.4-.6-3.6 0-1.8.2-3.1.7-4 .3-.8 1-1.3 1.8-1.3.6 0 1.1.2 1.5.7.4.6.6 1.2.7 1.9h1.1c-.1-1-.4-2-.9-2.8m2.4 11.5H73v-1.5h-4.7v-4.2h4.4v-1.5h-4.3v-3.8H73v-1.5h-5.8v12.5zM86 67.7h.4v9.5H86v1.5h1.8v-1.5h-.5v-11H86v1.5z" fill="#fff"/></svg></svg>