<svg width="259" height="143" xmlns="http://www.w3.org/2000/svg" xmlns:xlink="http://www.w3.org/1999/xlink"><svg width="173" height="53" viewBox="-1 -1 173 53" xmlns="http://www.w3.org/2000/svg"><g data-name="Layer 2"><g data-name="Isolation Mode"><path d="M154.47 0H15.79L0 16.8v16.71L16.53 51h138.68L171 34.28V17.57L154.47 0z"/><path d="M13.64 32.46V18.93l3.06-3.13h2.92l2.94 3v3.56h-2.65v-2.29a1.86 1.86 0 00-.48-1.35 1.78 1.78 0 00-1.33-.5 1.76 1.76 0 00-1.32.5 1.86 1.86 0 00-.49 1.35v11.11a1.86 1.86 0 00.49 1.35 1.76 1.76 0 001.32.5 1.78 1.78 0 001.33-.5 1.86 1.86 0 00.48-1.35V28.9h2.65v3.42l-3.07 3.13h-2.92zm10.29 0V18.93L27 15.8h2.93l2.93 3v13.52l-3.07 3.13h-2.93zm2.66-1.28a1.86 1.86 0 00.48 1.35 1.76 1.76 0 001.32.5 1.78 1.78 0 001.33-.5 1.86 1.86 0 00.48-1.35V20.07a1.86 1.86 0 00-.48-1.35 1.78 1.78 0 00-1.33-.5 1.76 1.76 0 00-1.32.5 1.86 1.86 0 00-.48 1.35zm8.62 4.27V15.8h2.63l3.07 9.11V15.8h2.64v19.65h-2.64v-4l-3.07-9.11v13.1zm10.29-2.99V28.9h2.65v2.56a1.66 1.66 0 00.47 1.23 1.74 1.74 0 002.4 0 1.7 1.7 0 00.47-1.23v-1a3.69 3.69 0 00-.39-1.8 9.09 9.09 0 00-1.42-1.76l-3.76-3.85V18.5l2.65-2.7h2.5l2.5 2.56v4H51.2v-2.72a1.62 1.62 0 00-.38-1.1 1.24 1.24 0 00-1-.46 1.27 1.27 0 00-1 .46 1.63 1.63 0 00-.39 1.1v1a3.38 3.38 0 00.41 1.71 11.2 11.2 0 001.55 1.85l3.75 3.85v4.27l-3.06 3.13h-2.66zm10.44 2.99V15.8h6.82v2.42h-4.19v5.84h2.23v2.42h-2.23V33H63v2.42zm8.61-2.99V18.93l3.06-3.13h2.93l2.93 3v3.56h-2.65v-2.29a1.86 1.86 0 00-.48-1.35 2 2 0 00-2.65 0 1.86 1.86 0 00-.48 1.35v11.11a1.86 1.86 0 00.48 1.35 2 2 0 002.65 0 1.86 1.86 0 00.48-1.35v-4.84h-1.39v-2h5.43v2h-1.39v9.11h-1l-.81-1.6-1.55 1.6h-2.63zm11.28 0V15.8h2.65v15.38a1.86 1.86 0 00.52 1.35 2 2 0 002.65 0 1.86 1.86 0 00.48-1.35V15.8h2.65v19.65h-1.15l-.84-2-2 2h-2.04zm10.99 2.99V33h1.68V18.22h-1.68V15.8h6v2.42h-1.69V33h1.68v2.42zm8.07 0V15.8h2.63V33h4.6v2.42zm8.21 0v-5.7l1.38-13.95h5.58l1.38 14v5.7h-2.5v-6.32h-3.34v6.27zm2.76-8.69h2.82l-.85-8.54h-1.12zm6.69 5.7V28.9h2.65v2.56a1.69 1.69 0 00.46 1.23 1.64 1.64 0 001.21.48 1.6 1.6 0 001.2-.48 1.7 1.7 0 00.47-1.23v-1a3.69 3.69 0 00-.39-1.8 9.09 9.09 0 00-1.42-1.76L113 23.06V18.5l2.65-2.7h2.5l2.5 2.56v4h-2.37v-2.72a1.67 1.67 0 00-.38-1.1 1.24 1.24 0 00-1-.46 1.26 1.26 0 00-1 .46 1.63 1.63 0 00-.39 1.1v1a3.38 3.38 0 00.41 1.71 11.2 11.2 0 001.55 1.85l3.75 3.85v4.27l-3.06 3.13h-2.65zm13.98 2.22V29l1.38-14h5.58l1.38 14v5.7h-2.5v-6.29H129v6.27zm2.76-8.68h2.82l-.85-8.54h-1.12zm7.1 5.69V18.16l3.06-3.16h2.93l2.93 3v3.56h-2.65V19.3a1.86 1.86 0 00-.48-1.35 2 2 0 00-2.65 0 1.86 1.86 0 00-.48 1.35v11.11a1.86 1.86 0 00.48 1.35 2 2 0 002.65 0 1.86 1.86 0 00.48-1.35v-2.28h2.65v3.42l-3.07 3.13h-2.92zm10.03 2.99V29l1.38-14h5.58l1.38 14v5.7h-2.5v-6.29h-3.34v6.27zm2.76-8.68H152l-.85-8.54H150zm.57-12.1l3.34-4h1.67l-3.34 4z" fill="#fff"/></g></g></svg><svg width="173" height="53" viewBox="-1 -1 173 53" y="53" xmlns="http://www.w3.org/2000/svg"><g data-name="Layer 2"><g data-name="Isolation Mode"><path fill="#fff" d="M154.47 0H15.79L0 16.8v16.71L16.53 51h138.68L171 34.28V17.57L154.47 0z"/><path d="M13.64 32.46V18.93l3.06-3.13h2.92l2.94 3v3.56h-2.65v-2.29a1.86 1.86 0 00-.48-1.35 1.78 1.78 0 00-1.33-.5 1.76 1.76 0 00-1.32.5 1.86 1.86 0 00-.49 1.35v11.11a1.86 1.86 0 00.49 1.35 1.76 1.76 0 001.32.5 1.78 1.78 0 001.33-.5 1.86 1.86 0 00.48-1.35V28.9h2.65v3.42l-3.07 3.13h-2.92zm10.29 0V18.93L27 15.8h2.93l2.93 3v13.52l-3.07 3.13h-2.93zm2.66-1.28a1.86 1.86 0 00.48 1.35 1.76 1.76 0 001.32.5 1.78 1.78 0 001.33-.5 1.86 1.86 0 00.48-1.35V20.07a1.86 1.86 0 00-.48-1.35 1.78 1.78 0 00-1.33-.5 1.76 1.76 0 00-1.32.5 1.86 1.86 0 00-.48 1.35zm8.62 4.27V15.8h2.63l3.07 9.11V15.8h2.64v19.65h-2.64v-4l-3.07-9.11v13.1zm10.29-2.99V28.9h2.65v2.56a1.66 1.66 0 00.47 1.23 1.74 1.74 0 002.4 0 1.7 1.7 0 00.47-1.23v-1a3.69 3.69 0 00-.39-1.8 9.09 9.09 0 00-1.42-1.76l-3.76-3.85V18.5l2.65-2.7h2.5l2.5 2.56v4H51.2v-2.72a1.62 1.62 0 00-.38-1.1 1.24 1.24 0 00-1-.46 1.27 1.27 0 00-1 .46 1.63 1.63 0 00-.39 1.1v1a3.38 3.38 0 00.41 1.71 11.2 11.2 0 001.55 1.85l3.75 3.85v4.27l-3.06 3.13h-2.66zm10.44 2.99V15.8h6.82v2.42h-4.19v5.84h2.23v2.42h-2.23V33H63v2.42zm8.61-2.99V18.93l3.06-3.13h2.93l2.93 3v3.56h-2.65v-2.29a1.86 1.86 0 00-.48-1.35 2 2 0 00-2.65 0 1.86 1.86 0 00-.48 1.35v11.11a1.86 1.86 0 00.48 1.35 2 2 0 002.65 0 1.86 1.86 0 00.48-1.35v-4.84h-1.39v-2h5.43v2h-1.39v9.11h-1l-.81-1.6-1.55 1.6h-2.63zm11.28 0V15.8h2.65v15.38a1.86 1.86 0 00.52 1.35 2 2 0 002.65 0 1.86 1.86 0 00.48-1.35V15.8h2.65v19.65h-1.15l-.84-2-2 2h-2.04zm10.99 2.99V33h1.68V18.22h-1.68V15.8h6v2.42h-1.69V33h1.68v2.42zm8.07 0V15.8h2.63V33h4.6v2.42zm8.21 0v-5.7l1.38-13.95h5.58l1.38 14v5.7h-2.5v-6.32h-3.34v6.27zm2.76-8.69h2.82l-.85-8.54h-1.12zm6.69 5.7V28.9h2.65v2.56a1.69 1.69 0 00.46 1.23 1.64 1.64 0 001.21.48 1.6 1.6 0 001.2-.48 1.7 1.7 0 00.47-1.23v-1a3.69 3.69 0 00-.39-1.8 9.09 9.09 0 00-1.42-1.76L113 23.06V18.5l2.65-2.7h2.5l2.5 2.56v4h-2.37v-2.72a1.67 1.67 0 00-.38-1.1 1.24 1.24 0 00-1-.46 1.26 1.26 0 00-1 .46 1.63 1.63 0 00-.39 1.1v1a3.38 3.38 0 00.41 1.71 11.2 11.2 0 001.55 1.85l3.75 3.85v4.27l-3.06 3.13h-2.65zm13.98 2.22V29l1.38-14h5.58l1.38 14v5.7h-2.5v-6.29H129v6.27zm2.76-8.68h2.82l-.85-8.54h-1.12zm7.1 5.69V18.16l3.06-3.16h2.93l2.93 3v3.56h-2.65V19.3a1.86 1.86 0 00-.48-1.35 2 2 0 00-2.65 0 1.86 1.86 0 00-.48 1.35v11.11a1.86 1.86 0 00.48 1.35 2 2 0 002.65 0 1.86 1.86 0 00.48-1.35v-2.28h2.65v3.42l-3.07 3.13h-2.92zm10.03 2.99V29l1.38-14h5.58l1.38 14v5.7h-2.5v-6.29h-3.34v6.27zm2.76-8.68H152l-.85-8.54H150zm.57-12.1l3.34-4h1.67l-3.34 4z"/></g></g></svg><svg width="93" height="37" viewBox="-1 -1 93 37" y="106" xmlns="http://www.w3.org/2000/svg"><g data-name="Layer 2"><g data-name="Layer 1" fill="#fff"><path d="M68.16 16.28l.48-1.37-.08 1.37.63.01 1-2.86h-.65l-.44 1.25.11-1.26-.69.01-.98 2.85h.62zm1.81.02l.99-2.86h-.63l-.99 2.85.63.01z"/><path d="M72.81 17.78l-.1.68h-.31l.28-.67c.08-.18.14-.37.22-.55 0 .18-.07.35-.09.54m-1-1.65v-1.44l.89-1.14zm3.08.43h-.73l-.79 2.87.23-2.87h-.41l3.14-1.42-3.21.86.09-.28h-.68l.23-.68h.56l.17-.52h-.56l.2-.57h.56l.18-.53h-1.79l-.65.82.31-.83h-.64l-1 2.86h.64l.42-1.22v1.25H72l-3 .85a1.56 1.56 0 01-1.38-.09c-.71-.57-.16-1.7 0-2a10.86 10.86 0 00-1 1.28 2.15 2.15 0 00-.34 2c.52.91 1.77.5 2.56.15l3.6-1.63-1.29 2.62H72l.16-.38h.49v.38H74z"/><path d="M75.75 17.54a.41.41 0 01-.38.36h-.05l.2-.72c.2 0 .31.09.23.35m-.09-1H75l-.79 2.91h.72l.22-.78c0-.14.07-.28.1-.43l.08 1.21h.78l-.21-1.22a1 1 0 00.62-.71c.21-.78-.19-1-.82-1m-8.15 4.77l-.12-.59-.14.59zm-.18-.79h.13l.3 1.34h-.12l-.09-.4h-.34l-.09.4H67zm.554 1.34l.002-1.34h.11l-.002 1.34zm.696-.72a.17.17 0 00.13-.05.31.31 0 000-.19.21.21 0 00-.07-.19.12.12 0 00-.09 0h-.27v.46zm-.37-.62h.39a.3.3 0 01.16.05.36.36 0 01.11.31.56.56 0 010 .2.27.27 0 01-.09.12.32.32 0 01.08.09 1.09 1.09 0 010 .17v.18a.34.34 0 000 .11.12.12 0 000 .08h-.1a.31.31 0 010-.11v-.22a.15.15 0 00-.16-.2h-.25v.57h-.11zm1.84.01h.59v.16h-.47v.41h.42v.16h-.42v.6h-.12V20.5zm1.31 1.05a1 1 0 00.07-.4.81.81 0 00-.07-.38c-.06-.1-.13-.15-.22-.14a.23.23 0 00-.22.13 1 1 0 00-.08.43.84.84 0 00.07.37.25.25 0 00.23.15.22.22 0 00.22-.16m.11-.86a1.19 1.19 0 01.08.46 1 1 0 01-.1.49.32.32 0 01-.32.23.33.33 0 01-.31-.2 1.2 1.2 0 01-.1-.5 1.08 1.08 0 01.09-.46.34.34 0 01.32-.25.37.37 0 01.34.23m.61.42a.13.13 0 00.12-.05.26.26 0 00.05-.18.23.23 0 00-.07-.2h-.36v.45zm-.38-.61h.39a.3.3 0 01.16.05.37.37 0 01.11.31.56.56 0 010 .2.27.27 0 01-.09.12.18.18 0 01.08.09.52.52 0 010 .17v.17a.41.41 0 000 .12.15.15 0 000 .08h-.15a.11.11 0 000-.05v-.32a.22.22 0 00-.06-.18.13.13 0 00-.1 0h-.25v.57h-.12zm1.45.1a.53.53 0 01.09.3h-.11a.52.52 0 00-.07-.2.23.23 0 00-.16-.08.23.23 0 00-.2.14.86.86 0 00-.07.43.87.87 0 00.06.38.21.21 0 00.21.14c.08 0 .14 0 .19-.15a.81.81 0 00.05-.21h.11a.72.72 0 01-.1.35.3.3 0 01-.27.18.29.29 0 01-.24-.15 1 1 0 01-.13-.57 1 1 0 01.09-.49.32.32 0 01.3-.2.29.29 0 01.25.13m.26-.1l.62.01v.16h-.51v.4h.47v.16h-.47v.45h.52v.16h-.63V20.5zm2.01.17h.05v1.01h-.05v.16h.19v-.16h-.04v-1.17h-.15v.16zM0 35V0h12.78v4.31H4.76v10.91h7.02v4.31H4.76V35H0zm27.07-7.61V7.61a3 3 0 00-3.26-3.3 3 3 0 00-3.25 3.3v19.78a3 3 0 003.25 3.3 3 3 0 003.26-3.3m-6 7.61l-5.27-5.33V5.58L21.31 0h5.26l5.26 5.32v24.1L26.32 35zm27.06-22.32V7.61a3 3 0 00-3.26-3.3h-3V16h3a3 3 0 003.26-3.3m0 22.32V23.84c0-2-1-3.55-3-3.55h-3.26V35h-4.76V0h10.52l5.26 5.32v9.14l-4.51 3.29 4.51 2V35z"/><path d="M62.93 35l-5.27-5.33V5.58L63.18 0h5.26l5.26 5.32v6.34h-4.76v-4a3.26 3.26 0 10-6.51 0v19.73a3.26 3.26 0 106.51 0v-4.06h4.76v6.09L68.19 35zm15.29 0V0H90.5v4.31h-7.52v10.4h4.71v4.31h-4.71v11.67H91V35H78.22z"/></g></g></svg><svg width="86" height="70" viewBox="-1 -1 86 70" x="173" xmlns="http://www.w3.org/2000/svg"><g data-name="Layer 2"><g data-name="Layer 1"><path d="M15.75 23l3.91-11.05-.69 11.03 5.21.08L32.25.07 26.98.05l-3.6 10.06L24.32 0 18.7.07 10.68 23h5.07zm14.74.16L38.56.14 33.39.11 25.33 23.1l5.16.06z"/><path d="M53.64 35.05l-.83 5.49h-2.55l2.32-5.38c.67-1.47 1.17-2.94 1.78-4.42-.25 1.47-.56 2.85-.76 4.36m-8.54-13.36l-.24-11.56 7.28-9.11.38-.37zm25.12 3.51l-6-.08-6.38 23.06 1.83-23.07-3.33-.05 25.59-11.42-25.72 7.09.72-2.2-5.54.09 1.85-5.53 4.6.09 1.4-4.12h-4.54l1.6-4.57h4.52L62.27.28 47.72.21l-5.31 6.62L44.9.14h-5.17l-8.07 22.97h5.2l3.41-9.82v9.9l6.88.08-24.4 6.78c-4.94 1.41-8.94 1.18-11.24-.67-5.79-4.6-1.27-13.74.35-16.43a91.72 91.72 0 00-8 10.25C.32 29-1.23 35.21 1.13 39.25c4.21 7.27 14.39 4 20.83 1.2l29.35-13.09-10.54 21.07h6l1.28-3 4 .09-.33 3H63.5z"/><path d="M77.63 33.11c-.39 1.53-1.61 3-3.17 2.93h-.38l1.66-5.72c1.58-.17 2.53.67 1.89 2.76m-.75-7.87l-5.73-.06-6.47 23.39 5.88.07 1.8-6.23c.28-1.12.56-2.26.87-3.48l.62 9.71h6.34l-1.68-9.75a8.22 8.22 0 005.06-5.74c1.64-6.24-1.57-7.82-6.69-7.89M10.82 63.22l-1.05-4.76-1.12 4.74zm-1.53-6.36h1.07l2.49 10.75h-1l-.73-3.23H8.37l-.75 3.22h-1zm4.63 0l-.01 10.75.94.02V56.86h-.93zm5.62 4.96a1.4 1.4 0 001-.42 2.28 2.28 0 00.37-1.47 1.93 1.93 0 00-.53-1.58 1.16 1.16 0 00-.75-.22h-2.2v3.67zm-3-5h3.14a2.1 2.1 0 011.29.36 2.87 2.87 0 01.95 2.53 3.83 3.83 0 01-.26 1.59 2.72 2.72 0 01-.7 1 1.82 1.82 0 01.59.68 3.46 3.46 0 01.24 1.35v1.44c0 .41 0 .71.07.93a1 1 0 00.3.66v.22H21a2 2 0 01-.06-.36 5 5 0 01-.07-.84v-1.8a1.78 1.78 0 00-.5-1.4 1.48 1.48 0 00-.81-.22h-2.12v4.61h-.93zm14.97.09h4.81v1.32h-3.87l-.01 3.25 3.41.01-.01 1.29h-3.42v4.88h-.94l.03-10.75zm10.68 8.42a9.05 9.05 0 00.56-3.18 6.68 6.68 0 00-.63-3.08 2 2 0 00-1.75-1.14 2 2 0 00-1.77 1.13 7 7 0 00-.67 3.39 6.6 6.6 0 00.57 3 2 2 0 001.89 1.22 1.88 1.88 0 001.8-1.36m.81-6.85a8.08 8.08 0 01.66 3.66 8.65 8.65 0 01-.77 4A2.86 2.86 0 0140.27 68a2.73 2.73 0 01-2.5-1.63 8.52 8.52 0 01-.83-4 9.16 9.16 0 01.71-3.73 2.85 2.85 0 015.35-.18m5 3.4a1.33 1.33 0 001-.4 2.2 2.2 0 00.38-1.46 1.88 1.88 0 00-.53-1.58 1.17 1.17 0 00-.75-.21h-2.22v3.68zm-3-4.92h3.14a2.21 2.21 0 011.29.36 3 3 0 01.95 2.55 4.42 4.42 0 01-.26 1.58 2.19 2.19 0 01-.73 1 1.66 1.66 0 01.62.7 3.33 3.33 0 01.22 1.36v1.43a7.67 7.67 0 00.07.91c.08.35.15.55.31.66v.24h-1.18c0-.09 0-.22-.08-.35s0-.43-.05-.87v-1.77a1.78 1.78 0 00-.48-1.42 1.43 1.43 0 00-.82-.21h-2.13v4.6h-.94zm11.72.79a4.87 4.87 0 01.78 2.45h-.92a3.54 3.54 0 00-.58-1.65 1.52 1.52 0 00-1.28-.6A1.79 1.79 0 0053.08 59a7.09 7.09 0 00-.62 3.42 7.26 7.26 0 00.54 3.13 1.77 1.77 0 001.66 1.14c.67 0 1.2-.38 1.55-1.23a5.52 5.52 0 00.43-1.69h.91a6.34 6.34 0 01-.81 2.84 2.37 2.37 0 01-4.2.25 8.09 8.09 0 01-1.06-4.65 8.3 8.3 0 01.81-3.9 2.59 2.59 0 012.4-1.64 2.39 2.39 0 012 1.07m2.16-.78l5.04.02v1.3h-4.11v3.26h3.8l.01 1.25-3.82-.01v3.65l4.17.02v1.27l-5.08-.02-.01-10.74zm16.39 1.32l.39-.01-.02 8.15-.4-.01.01 1.31 1.59-.02v-1.27l-.4-.01.03-8.15v-1.28l-1.2-.02v1.31z"/></g></g></svg><svg width="86" height="70" viewBox="-1 -1 86 70" x="173" y="70" xmlns="http://www.w3.org/2000/svg"><g data-name="Layer 2"><g data-name="Layer 1" fill="#fff"><path d="M15.75 23l3.91-11.05-.69 11.03 5.21.08L32.25.07 26.98.05l-3.6 10.06L24.32 0 18.7.07 10.68 23h5.07zm14.74.16L38.56.14 33.39.11 25.33 23.1l5.16.06z"/><path d="M53.64 35.05l-.83 5.49h-2.55l2.32-5.38c.67-1.47 1.17-2.94 1.78-4.42-.25 1.47-.56 2.85-.76 4.36m-8.54-13.36l-.24-11.56 7.28-9.11.38-.37zm25.12 3.51l-6-.08-6.38 23.06 1.83-23.07-3.33-.05 25.59-11.42-25.72 7.09.72-2.2-5.54.09 1.85-5.53 4.6.09 1.4-4.12h-4.54l1.6-4.57h4.52L62.27.28 47.72.21l-5.31 6.62L44.9.14h-5.17l-8.07 22.97h5.2l3.41-9.82v9.9l6.88.08-24.4 6.78c-4.94 1.41-8.94 1.18-11.24-.67-5.79-4.6-1.27-13.74.35-16.43a91.72 91.72 0 00-8 10.25C.32 29-1.23 35.21 1.13 39.25c4.21 7.27 14.39 4 20.83 1.2l29.35-13.09-10.54 21.07h6l1.28-3 4 .09-.33 3H63.5z"/><path d="M77.63 33.11c-.39 1.53-1.61 3-3.17 2.93h-.38l1.66-5.72c1.58-.17 2.53.67 1.89 2.76m-.75-7.87l-5.73-.06-6.47 23.39 5.88.07 1.8-6.23c.28-1.12.56-2.26.87-3.48l.62 9.71h6.34l-1.68-9.75a8.22 8.22 0 005.06-5.74c1.64-6.24-1.57-7.82-6.69-7.89M10.82 63.22l-1.05-4.76-1.12 4.74zm-1.53-6.36h1.07l2.49 10.75h-1l-.73-3.23H8.37l-.75 3.22h-1zm4.63 0l-.01 10.75.94.02V56.86h-.93zm5.62 4.96a1.4 1.4 0 001-.42 2.28 2.28 0 00.37-1.47 1.93 1.93 0 00-.53-1.58 1.16 1.16 0 00-.75-.22h-2.2v3.67zm-3-5h3.14a2.1 2.1 0 011.29.36 2.87 2.87 0 01.95 2.53 3.83 3.83 0 01-.26 1.59 2.72 2.72 0 01-.7 1 1.82 1.82 0 01.59.68 3.46 3.46 0 01.24 1.35v1.44c0 .41 0 .71.07.93a1 1 0 00.3.66v.22H21a2 2 0 01-.06-.36 5 5 0 01-.07-.84v-1.8a1.78 1.78 0 00-.5-1.4 1.48 1.48 0 00-.81-.22h-2.12v4.61h-.93zm14.97.09h4.81v1.32h-3.87l-.01 3.25 3.41.01-.01 1.29h-3.42v4.88h-.94l.03-10.75zm10.68 8.42a9.05 9.05 0 00.56-3.18 6.68 6.68 0 00-.63-3.08 2 2 0 00-1.75-1.14 2 2 0 00-1.77 1.13 7 7 0 00-.67 3.39 6.6 6.6 0 00.57 3 2 2 0 001.89 1.22 1.88 1.88 0 001.8-1.36m.81-6.85a8.08 8.08 0 01.66 3.66 8.65 8.65 0 01-.77 4A2.86 2.86 0 0140.27 68a2.73 2.73 0 01-2.5-1.63 8.52 8.52 0 01-.83-4 9.16 9.16 0 01.71-3.73 2.85 2.85 0 015.35-.18m5 3.4a1.33 1.33 0 001-.4 2.2 2.2 0 00.38-1.46 1.88 1.88 0 00-.53-1.58 1.17 1.17 0 00-.75-.21h-2.22v3.68zm-3-4.92h3.14a2.21 2.21 0 011.29.36 3 3 0 01.95 2.55 4.42 4.42 0 01-.26 1.58 2.19 2.19 0 01-.73 1 1.66 1.66 0 01.62.7 3.33 3.33 0 01.22 1.36v1.43a7.67 7.67 0 00.07.91c.08.35.15.55.31.66v.24h-1.18c0-.09 0-.22-.08-.35s0-.43-.05-.87v-1.77a1.78 1.78 0 00-.48-1.42 1.43 1.43 0 00-.82-.21h-2.13v4.6h-.94zm11.72.79a4.87 4.87 0 01.78 2.45h-.92a3.54 3.54 0 00-.58-1.65 1.52 1.52 0 00-1.28-.6A1.79 1.79 0 0053.08 59a7.09 7.09 0 00-.62 3.42 7.26 7.26 0 00.54 3.13 1.77 1.77 0 001.66 1.14c.67 0 1.2-.38 1.55-1.23a5.52 5.52 0 00.43-1.69h.91a6.34 6.34 0 01-.81 2.84 2.37 2.37 0 01-4.2.25 8.09 8.09 0 01-1.06-4.65 8.3 8.3 0 01.81-3.9 2.59 2.59 0 012.4-1.64 2.39 2.39 0 012 1.07m2.16-.78l5.04.02v1.3h-4.11v3.26h3.8l.01 1.25-3.82-.01v3.65l4.17.02v1.27l-5.08-.02-.01-10.74zm16.39 1.32l.39-.01-.02 8.15-.4-.01.01 1.31 1.59-.02v-1.27l-.4-.01.03-8.15v-1.28l-1.2-.02v1.31z"/></g></g></svg></svg>