<svg width="272" height="195" xmlns="http://www.w3.org/2000/svg" xmlns:xlink="http://www.w3.org/1999/xlink"><svg y="111" viewBox="-1 -1 121 37" width="121" height="37" xmlns="http://www.w3.org/2000/svg"><path d="M107.5 0H11L0 11.5V23l11.5 12H108l11-11.5V12.1z"/><path d="M14.2 22.3v-8.8l1.9-2H18l1.9 2v2.3h-1.7v-1.5c0-.7-.5-1.2-1.2-1.2-.6 0-1.2.5-1.2 1.2v7.3c0 .3.1.6.3.9.5.4 1.2.4 1.7 0 .2-.2.3-.6.3-.9V20h1.7v2.2l-1.9 2H16l-1.8-1.9zm6.6 0v-8.8l1.9-2h1.9l1.9 1.9v8.8l-1.9 2h-1.9l-1.9-1.9zm1.7-.9c0 .3.1.6.3.9.2.2.5.3.8.3.3 0 .6-.1.8-.3.2-.2.3-.6.3-.9v-7.3c0-.3-.1-.6-.3-.9-.2-.2-.5-.3-.8-.3-.3 0-.6.1-.8.3-.2.2-.3.6-.3.9v7.3zm5.5 2.8V11.4h1.7l1.9 5.9v-5.9h1.7v12.8h-1.6v-2.6l-1.9-5.9v8.5H28zm6.6-1.9V20h1.7v1.7c0 .3.1.6.3.8.4.4 1.1.5 1.5 0 .2-.2.3-.5.3-.8V21c0-.4-.1-.8-.3-1.2-.3-.4-.6-.8-.9-1.1l-2.4-2.5v-3l1.7-1.8h1.6l1.6 1.7v2.6h-1.5v-1.8c0-.3-.1-.5-.2-.7-.3-.4-.9-.4-1.2-.1l-.1.1c-.2.2-.3.5-.3.7v.7c0 .4.1.8.3 1.1.3.4.6.8 1 1.2l2.4 2.5v2.8l-1.9 2h-1.7l-1.9-1.9zm6.7 1.9V11.4h4.4V13H43v3.8h1.4v1.6H43v4.3h2.9v1.6h-4.6zm5.5-1.9v-8.8l1.9-2h1.9l1.9 2v2.3h-1.7v-1.5c0-.3-.1-.6-.3-.9-.2-.2-.5-.3-.8-.3-.3 0-.6.1-.8.3-.2.2-.3.6-.3.9v7.3c0 .3.1.6.3.9.2.2.5.3.8.3.3 0 .6-.1.8-.3.2-.2.3-.6.3-.9v-3.2h-.9V17h3.5v1.3h-.9v5.9h-.6l-.5-1-1 1h-1.7l-1.9-1.9zm7.2 0V11.4h1.7v10c0 .3.1.6.3.9.5.4 1.2.4 1.7 0 .2-.2.3-.6.3-.9v-10h1.7v12.8H59l-.5-1.3-1.2 1.3H56l-2-1.9zm7 1.9v-1.6h1.1V13H61v-1.6h3.8V13h-1.1v9.7h1.1v1.6H61zm5.2 0V11.4h1.7v11.2h2.9v1.6h-4.6zm5.2 0v-3.7l.9-9.1h3.6l.9 9.1v3.7h-1.6v-4.1H73v4.1h-1.6zm1.8-5.6H75l-.5-5.6h-.8l-.5 5.6zm4.3 3.7V20h1.7v1.7c0 .6.5 1.1 1.1 1.1s1.1-.5 1.1-1.1V21c0-.4-.1-.8-.2-1.2-.3-.4-.6-.8-.9-1.1l-2.4-2.5v-3l1.7-1.8H81l1.6 1.7v2.6h-1.5v-1.8c0-.3-.1-.5-.2-.7-.3-.4-.9-.4-1.2-.1l-.1.1c-.2.2-.3.5-.3.7v.7c0 .4.1.8.3 1.1.3.4.6.8 1 1.2l2.4 2.5v2.8l-1.9 2h-1.7l-1.9-1.9zm9.2 1.9v-3.7l.9-9.1h3.6l.9 9.1v3.7h-1.6v-4.1h-2.1v4.1h-1.7zm1.8-5.6h1.8l-.6-5.6H89l-.5 5.6zm4.5 3.7v-8.8l1.9-2h1.9l1.9 2v2.3H97v-1.5c0-.7-.5-1.2-1.2-1.2-.6 0-1.2.5-1.2 1.2v7.3c0 .3.1.6.3.9.5.4 1.2.4 1.7 0 .2-.2.3-.6.3-.9V20h1.7v2.2l-1.9 2h-1.9L93 22.3zm6.4 1.9v-3.7l.9-9.1h3.6l.9 9.1v3.7h-1.6v-4.1H101v4.1h-1.6zm1.8-5.6h1.8l-.5-5.6h-.7l-.6 5.6zm.4-7.9l2.1-2.6h1.1l-2.1 2.6h-1.1z" fill="#fff"/></svg><svg x="121" y="111" viewBox="-1 -1 121 37" width="121" height="37" xmlns="http://www.w3.org/2000/svg"><path d="M107.5 0H11L0 11.5V23l11.5 12H108l11-11.5V12.1z" fill="#fff"/><path d="M14.2 22.3v-8.8l1.9-2H18l1.9 2v2.3h-1.7v-1.5c0-.7-.5-1.2-1.2-1.2-.6 0-1.2.5-1.2 1.2v7.3c0 .3.1.6.3.9.5.4 1.2.4 1.7 0 .2-.2.3-.6.3-.9V20h1.7v2.2l-1.9 2H16l-1.8-1.9zm6.6 0v-8.8l1.9-2h1.9l1.9 1.9v8.8l-1.9 2h-1.9l-1.9-1.9zm1.7-.9c0 .3.1.6.3.9.2.2.5.3.8.3.3 0 .6-.1.8-.3.2-.2.3-.6.3-.9v-7.3c0-.3-.1-.6-.3-.9-.2-.2-.5-.3-.8-.3-.3 0-.6.1-.8.3-.2.2-.3.6-.3.9v7.3zm5.5 2.8V11.4h1.7l1.9 5.9v-5.9h1.7v12.8h-1.6v-2.6l-1.9-5.9v8.5H28zm6.6-1.9V20h1.7v1.7c0 .3.1.6.3.8.4.4 1.1.5 1.5 0 .2-.2.3-.5.3-.8V21c0-.4-.1-.8-.3-1.2-.3-.4-.6-.8-.9-1.1l-2.4-2.5v-3l1.7-1.8h1.6l1.6 1.7v2.6h-1.5v-1.8c0-.3-.1-.5-.2-.7-.3-.4-.9-.4-1.2-.1l-.1.1c-.2.2-.3.5-.3.7v.7c0 .4.1.8.3 1.1.3.4.6.8 1 1.2l2.4 2.5v2.8l-1.9 2h-1.7l-1.9-1.9zm6.7 1.9V11.4h4.4V13H43v3.8h1.4v1.6H43v4.3h2.9v1.6h-4.6zm5.5-1.9v-8.8l1.9-2h1.9l1.9 2v2.3h-1.7v-1.5c0-.3-.1-.6-.3-.9-.2-.2-.5-.3-.8-.3-.3 0-.6.1-.8.3-.2.2-.3.6-.3.9v7.3c0 .3.1.6.3.9.2.2.5.3.8.3.3 0 .6-.1.8-.3.2-.2.3-.6.3-.9v-3.2h-.9V17h3.5v1.3h-.9v5.9h-.6l-.5-1-1 1h-1.7l-1.9-1.9zm7.2 0V11.4h1.7v10c0 .3.1.6.3.9.5.4 1.2.4 1.7 0 .2-.2.3-.6.3-.9v-10h1.7v12.8H59l-.5-1.3-1.2 1.3H56l-2-1.9zm7 1.9v-1.6h1.1V13H61v-1.6h3.8V13h-1.1v9.7h1.1v1.6H61zm5.2 0V11.4h1.7v11.2h2.9v1.6h-4.6zm5.2 0v-3.7l.9-9.1h3.6l.9 9.1v3.7h-1.6v-4.1H73v4.1h-1.6zm1.8-5.6H75l-.5-5.6h-.8l-.5 5.6zm4.3 3.7V20h1.7v1.7c0 .6.5 1.1 1.1 1.1s1.1-.5 1.1-1.1V21c0-.4-.1-.8-.2-1.2-.3-.4-.6-.8-.9-1.1l-2.4-2.5v-3l1.7-1.8H81l1.6 1.7v2.6h-1.5v-1.8c0-.3-.1-.5-.2-.7-.3-.4-.9-.4-1.2-.1l-.1.1c-.2.2-.3.5-.3.7v.7c0 .4.1.8.3 1.1.3.4.6.8 1 1.2l2.4 2.5v2.8l-1.9 2h-1.7l-1.9-1.9zm9.2 1.9v-3.7l.9-9.1h3.6l.9 9.1v3.7h-1.6v-4.1h-2.1v4.1h-1.7zm1.8-5.6h1.8l-.6-5.6H89l-.5 5.6zm4.5 3.7v-8.8l1.9-2h1.9l1.9 2v2.3H97v-1.5c0-.7-.5-1.2-1.2-1.2-.6 0-1.2.5-1.2 1.2v7.3c0 .3.1.6.3.9.5.4 1.2.4 1.7 0 .2-.2.3-.6.3-.9V20h1.7v2.2l-1.9 2h-1.9L93 22.3zm6.4 1.9v-3.7l.9-9.1h3.6l.9 9.1v3.7h-1.6v-4.1H101v4.1h-1.6zm1.8-5.6h1.8l-.5-5.6h-.7l-.6 5.6zm.4-7.9l2.1-2.6h1.1l-2.1 2.6h-1.1z"/></svg><svg y="148" viewBox="-1 -1 118 47" width="118" height="47" xmlns="http://www.w3.org/2000/svg"><path d="M86.1 20.9l1.3-3.7h.9l-.2 1.6.6-1.6h.9l-1.3 3.7h-.9l.1-1.8-.6 1.8h-.8zm3.1 0l1.3-3.7h-.8l-1.3 3.7h.8zm3.6 1.9c0-.2.1-.5.1-.7-.1.2-.2.5-.3.7l-.4.9h.4l.2-.9m-.2-5.5l-1.2 1.5v1.8l1.2-3.3zm1.8 7.7h-1.8l.1-.5h-.6l-.3.5h-.9l1.6-3.4-4.6 2.1c-1 .4-2.6 1-3.3-.2-.4-.6-.1-1.6.4-2.6.4-.6.8-1.1 1.3-1.6-.3.4-1 1.9-.1 2.6.5.3 1.2.4 1.8.1l3.8-1.1h-1.1v-1.6l-.5 1.6h-.8l1.3-3.7h.8l-.4 1.1.8-1.1h2.3l-.2.8h-.7l-.3.7h.7l-.2.7h-.7l-.3.9h.9l-.1.3 4-1.1-4 1.8h.5l-.3 3.7 1-3.7h.9l-1 3.7zm2.2-2.5c.1-.3-.1-.5-.3-.4l-.3.9h.1c.2 0 .4-.2.5-.5m-.1-1.2c.8 0 1.3.3 1 1.3-.1.4-.4.8-.8.9L97 25h-1l-.1-1.6c-.1.2-.1.4-.1.6l-.3 1h-.9l1-3.7h.9m-10.7 6.1l.2-.8.2.8h-.4zm-.3.7h.2l.1-.5h.4l.1.5h.2l-.5-1.7h-.2l-.3 1.7zm1.1-1.7v1.7h.1v-1.7h-.1zm.6.8v-.6h.4c.1.1.1.2.1.3 0 .1 0 .2-.1.2 0 0-.1.1-.2.1h-.2zm-.2.9h.1v-.7h.4c.1.1.1.1.1.2v.5h.2s0-.1-.1-.1v-.6l-.1-.1s.1-.1.1-.2v-.3c0-.2 0-.3-.2-.4-.1 0-.1-.1-.2-.1H87v1.8zm2.3 0h.2v-.8h.5v-.2h-.5v-.5h.6v-.2h-.7l-.1 1.7zm1.7-.4c0 .1-.2.2-.3.2-.1 0-.2-.1-.3-.2-.1-.2-.1-.3-.1-.5s0-.4.1-.5c.1-.1.2-.2.3-.2.1 0 .2.1.3.2.1.2.1.3.1.5s0 .4-.1.5m.2-1.1c-.1-.2-.2-.3-.4-.3s-.4.1-.4.3c-.1.2-.1.4-.1.6 0 .2 0 .4.1.6.1.2.2.3.4.3s.3-.1.4-.3c.1-.2.1-.4.1-.6 0-.2-.1-.4-.1-.6m.4.6v-.6h.5c.1.1.1.2.1.3 0 .1 0 .2-.1.2 0 0-.1.1-.2.1h-.3zm-.2.9h.2v-.7h.4c.1.1.1.1.1.2v.5h.2s0-.1-.1-.1v-.5l-.1-.1s.1-.1.1-.2v-.3c0-.2 0-.3-.2-.4-.1 0-.1-.1-.2-.1h-.5l.1 1.7zm1.9-1.6c-.1-.1-.2-.2-.3-.2-.2 0-.3.1-.4.3-.1.2-.1.4-.1.6 0 .3 0 .5.2.7.1.1.2.2.3.2.1 0 .3-.1.3-.2.1-.1.1-.3.1-.5h-.1c0 .1 0 .2-.1.3-.1.1-.1.2-.2.2s-.2-.1-.3-.2c-.1-.2-.1-.3-.1-.5s0-.4.1-.5c0-.1.1-.2.3-.2.1 0 .2 0 .2.1.1.1.1.2.1.3h.1c0-.2 0-.3-.1-.4m.3 1.6h.8v-.2h-.6v-.6h.6v-.2h-.6v-.5h.6v-.2h-.8v1.7zm2.6-1.5l.1 1.3h-.1v.2h.3v-.2h-.1v-1.5h-.2v.2zM6.1 45V25.1h9v-5.5h-9V5.5h10.2V0H0v45h6.1zm28.4-9.8c0 2.6-1.6 4.2-4.2 4.2s-4.2-1.6-4.2-4.2V9.8c0-2.6 1.6-4.2 4.2-4.2s4.2 1.6 4.2 4.2v25.4m-1 9.8l7-7.2v-31L33.9 0h-6.7l-7 7.2v31l6.7 6.9h6.6zm27.9-28.7c0 2.6-1.6 4.2-4.2 4.2h-3.8v-15h3.8c2.6 0 4.2 1.6 4.2 4.2v6.6m6 28.7V25.4l-5.7-2.6 5.7-4.2V6.8L60.7 0H47.3v45h6.1V26.1h4.2c2.6 0 3.8 2 3.8 4.6V45h6zm19.5 0l7-7.2V30h-6.1v5.2c0 2.6-1.6 4.2-4.2 4.2s-4.2-1.6-4.2-4.2V9.8c0-2.6 1.6-4.2 4.2-4.2s4.2 1.6 4.2 4.2V15h6.1V6.8L87.2 0h-6.7l-7 7.2v31l6.7 6.9h6.7zm29.1 0v-5.5h-10.2v-15h6V19h-6V5.5h9.6V0H99.7v45H116z" fill="#fff"/></svg><svg viewBox="-1 -1 136 111" width="136" height="111" xmlns="http://www.w3.org/2000/svg"><path d="M17 36.9L29.8.1l9-.1-1.5 16.2L43 .1h8.4L38.6 37l-8.3-.1 1.1-17.7-6.2 17.7H17zm31.6.2L61.5.2h-8.2L40.4 37l8.2.1zm37 19.1c.3-2.4.8-4.6 1.2-7h-.1c-1 2.4-1.8 4.7-2.8 7.1l-3.7 8.6 4.1.1 1.3-8.8M83.7 1.1l-.6.6-11.6 14.6.4 18.5L83.7 1.1zm17.7 76.7H82.6l.5-4.9-6.4-.1-2 4.8-9.6.1 16.8-33.8L35 64.8c-10.3 4.5-26.5 9.7-33.2-1.9C-2 56.4.5 46.5 6.1 37.2c3.7-5.7 8.2-11.1 12.8-16.4-2.6 4.3-9.8 19-.5 26.3 3.7 3 10 3.3 17.9 1.1l38.9-10.9-11-.1v-16L58.8 37h-8.3L63.4.3l8.2-.1-4 10.7L76.1.3l23.2.1L97 7.3l-7.2-.1-2.6 7.3h7.3l-2.2 6.6-7.4-.1-2.9 8.9 8.8-.1-1.1 3.5 41-11.4-40.9 18.3 5.3.1-2.9 37 10.3-37 9.5.1-10.6 37.4zm22.4-24.7c1-3.4-.5-4.7-3-4.4l-2.6 9.2.6-.1c2.5 0 4.4-2.3 5-4.7m-1.2-12.7c8.2.1 13.3 2.6 10.7 12.6-1.2 4-3.8 7.8-8.1 9.2l2.7 15.6h-10.1l-1-15.5c-.5 2-.9 3.8-1.4 5.6l-2.9 10-9.4-.1 10.3-37.4h9.2M13.8 101.3l1.8-7.6 1.7 7.6h-3.5zm-3.2 7h1.5l1.2-5.2h4.3l1.2 5.2h1.6l-4-17.2h-1.7l-4.1 17.2zm11.6-17.2v17.2h1.5V91.1h-1.5zm5.6 7.9v-5.9h3.6c.4 0 .8.1 1.2.4.6.5.9 1.3.8 2.5.1.8-.1 1.7-.6 2.4-.4.4-1 .7-1.6.7l-3.4-.1zm-1.5 9.4h1.5V101h3.3c.5 0 .9.1 1.3.4.5.4.7 1.1.8 2.2l.1 2.9c0 .5 0 .9.1 1.4 0 .2 0 .4.1.6h1.9v-.5c-.3-.3-.5-.7-.5-1 0-.3-.1-.8-.1-1.5v-2.3c0-.7-.1-1.5-.4-2.2-.2-.4-.5-.8-.9-1.1.5-.4.9-1 1.1-1.6.3-.8.4-1.7.4-2.5 0-2-.5-3.3-1.5-4-.6-.4-1.3-.6-2.1-.6h-5.1v17.2zm23.9 0h1.5v-7.8h5.5v-2.1h-5.5v-5.2h6.2v-2.1h-7.7v17.2zm17.1-3.7c-.6 1.5-1.6 2.2-2.9 2.2-1.3 0-2.5-.8-3.1-2-.7-1.5-1-3.2-.9-4.8 0-2.4.4-4.2 1.1-5.4a3.077 3.077 0 015.6 0c.7 1.5 1.1 3.2 1 4.9.1 1.8-.2 3.5-.8 5.1m1.3-11c-.9-1.9-2.4-3-4.3-3s-3.3 1-4.2 3.2c-.8 1.9-1.2 3.9-1.2 6-.1 2.2.4 4.4 1.3 6.4.7 1.6 2.3 2.6 4 2.6 1.8 0 3.2-1 4.2-3 .9-2 1.3-4.2 1.2-6.4.2-1.9-.2-3.9-1-5.8m4.6 5.5v-5.9h3.5c.4 0 .8.1 1.2.3.6.5.9 1.3.8 2.5.1.8-.1 1.7-.6 2.4-.4.4-1 .7-1.6.6l-3.3.1zm-1.5 9.3h1.5v-7.4h3.3c.5 0 .9.1 1.3.3.5.4.7 1.1.7 2.3l.1 2.8c0 .7.1 1.1.1 1.4s.1.4.1.6h1.8v-.4c-.3-.2-.4-.5-.5-1.1-.1-.3-.1-.8-.1-1.5v-2.3c0-.8-.1-1.5-.4-2.2-.2-.5-.6-.8-1-1.1.5-.4.9-.9 1.2-1.5.3-.8.4-1.7.4-2.5 0-2-.5-3.3-1.5-4.1-.6-.4-1.3-.6-2-.6h-5v17.3zm18.8-16c-.7-1.1-1.9-1.7-3.2-1.7-1.7 0-2.9.9-3.8 2.6-.9 2-1.4 4.1-1.3 6.3 0 3.4.6 5.8 1.7 7.4 1.1 1.8 3.4 2.4 5.2 1.3.7-.4 1.2-1 1.5-1.7.8-1.4 1.2-3 1.3-4.6h-1.5c-.1.9-.3 1.8-.7 2.7-.6 1.4-1.4 2-2.5 2-1.2 0-2.2-.7-2.6-1.8-.6-1.6-.9-3.2-.9-4.9 0-2.5.3-4.3 1-5.5.4-1 1.4-1.7 2.6-1.8.8 0 1.6.3 2 1 .5.8.9 1.7 1 2.6h1.5c-.2-1.3-.6-2.7-1.3-3.9m3.4 16h8.1v-2.1h-6.6v-5.9h6.1v-2h-6.1v-5.2h6.5v-2.1h-8v17.3zM120 93.4h.6v13.1h-.6v2.1h2.5v-2h-.6l.1-13.1v-2h-2v1.9z"/></svg><svg x="136" viewBox="-1 -1 136 111" width="136" height="111" xmlns="http://www.w3.org/2000/svg"><path d="M17 36.9L29.8.1l9-.1-1.5 16.2L43 .1h8.4L38.6 37l-8.3-.1 1.1-17.7-6.2 17.7H17zm31.6.2L61.5.2h-8.2L40.4 37l8.2.1zm37 19.1c.3-2.4.8-4.6 1.2-7h-.1c-1 2.4-1.8 4.7-2.8 7.1l-3.7 8.6 4.1.1 1.3-8.8M83.7 1.1l-.6.6-11.6 14.6.4 18.5L83.7 1.1zm17.7 76.7H82.6l.5-4.9-6.4-.1-2 4.8-9.6.1 16.8-33.8L35 64.8c-10.3 4.5-26.5 9.7-33.2-1.9C-2 56.4.5 46.5 6.1 37.2c3.7-5.7 8.2-11.1 12.8-16.4-2.6 4.3-9.8 19-.5 26.3 3.7 3 10 3.3 17.9 1.1l38.9-10.9-11-.1v-16L58.8 37h-8.3L63.4.3l8.2-.1-4 10.7L76.1.3l23.2.1L97 7.3l-7.2-.1-2.6 7.3h7.3l-2.2 6.6-7.4-.1-2.9 8.9 8.8-.1-1.1 3.5 41-11.4-40.9 18.3 5.3.1-2.9 37 10.3-37 9.5.1-10.6 37.4zm22.4-24.7c1-3.4-.5-4.7-3-4.4l-2.6 9.2.6-.1c2.5 0 4.4-2.3 5-4.7m-1.2-12.7c8.2.1 13.3 2.6 10.7 12.6-1.2 4-3.8 7.8-8.1 9.2l2.7 15.6h-10.1l-1-15.5c-.5 2-.9 3.8-1.4 5.6l-2.9 10-9.4-.1 10.3-37.4h9.2M13.8 101.3l1.8-7.6 1.7 7.6h-3.5zm-3.2 7h1.5l1.2-5.2h4.3l1.2 5.2h1.6l-4-17.2h-1.7l-4.1 17.2zm11.6-17.2v17.2h1.5V91.1h-1.5zm5.6 7.9v-5.9h3.6c.4 0 .8.1 1.2.4.6.5.9 1.3.8 2.5.1.8-.1 1.7-.6 2.4-.4.4-1 .7-1.6.7l-3.4-.1zm-1.5 9.4h1.5V101h3.3c.5 0 .9.1 1.3.4.5.4.7 1.1.8 2.2l.1 2.9c0 .5 0 .9.1 1.4 0 .2 0 .4.1.6h1.9v-.5c-.3-.3-.5-.7-.5-1 0-.3-.1-.8-.1-1.5v-2.3c0-.7-.1-1.5-.4-2.2-.2-.4-.5-.8-.9-1.1.5-.4.9-1 1.1-1.6.3-.8.4-1.7.4-2.5 0-2-.5-3.3-1.5-4-.6-.4-1.3-.6-2.1-.6h-5.1v17.2zm23.9 0h1.5v-7.8h5.5v-2.1h-5.5v-5.2h6.2v-2.1h-7.7v17.2zm17.1-3.7c-.6 1.5-1.6 2.2-2.9 2.2-1.3 0-2.5-.8-3.1-2-.7-1.5-1-3.2-.9-4.8 0-2.4.4-4.2 1.1-5.4a3.077 3.077 0 015.6 0c.7 1.5 1.1 3.2 1 4.9.1 1.8-.2 3.5-.8 5.1m1.3-11c-.9-1.9-2.4-3-4.3-3s-3.3 1-4.2 3.2c-.8 1.9-1.2 3.9-1.2 6-.1 2.2.4 4.4 1.3 6.4.7 1.6 2.3 2.6 4 2.6 1.8 0 3.2-1 4.2-3 .9-2 1.3-4.2 1.2-6.4.2-1.9-.2-3.9-1-5.8m4.6 5.5v-5.9h3.5c.4 0 .8.1 1.2.3.6.5.9 1.3.8 2.5.1.8-.1 1.7-.6 2.4-.4.4-1 .7-1.6.6l-3.3.1zm-1.5 9.3h1.5v-7.4h3.3c.5 0 .9.1 1.3.3.5.4.7 1.1.7 2.3l.1 2.8c0 .7.1 1.1.1 1.4s.1.4.1.6h1.8v-.4c-.3-.2-.4-.5-.5-1.1-.1-.3-.1-.8-.1-1.5v-2.3c0-.8-.1-1.5-.4-2.2-.2-.5-.6-.8-1-1.1.5-.4.9-.9 1.2-1.5.3-.8.4-1.7.4-2.5 0-2-.5-3.3-1.5-4.1-.6-.4-1.3-.6-2-.6h-5v17.3zm18.8-16c-.7-1.1-1.9-1.7-3.2-1.7-1.7 0-2.9.9-3.8 2.6-.9 2-1.4 4.1-1.3 6.3 0 3.4.6 5.8 1.7 7.4 1.1 1.8 3.4 2.4 5.2 1.3.7-.4 1.2-1 1.5-1.7.8-1.4 1.2-3 1.3-4.6h-1.5c-.1.9-.3 1.8-.7 2.7-.6 1.4-1.4 2-2.5 2-1.2 0-2.2-.7-2.6-1.8-.6-1.6-.9-3.2-.9-4.9 0-2.5.3-4.3 1-5.5.4-1 1.4-1.7 2.6-1.8.8 0 1.6.3 2 1 .5.8.9 1.7 1 2.6h1.5c-.2-1.3-.6-2.7-1.3-3.9m3.4 16h8.1v-2.1h-6.6v-5.9h6.1v-2h-6.1v-5.2h6.5v-2.1h-8v17.3zM120 93.4h.6v13.1h-.6v2.1h2.5v-2h-.6l.1-13.1v-2h-2v1.9z" fill="#fff"/></svg></svg>